<?xml version="1.0" encoding="utf-8" ?>
<svg xmlns="http://www.w3.org/2000/svg" xmlns:cc="http://creativecommons.org/ns" xmlns:dc="http://purl.org/dc/elements/1.1/" xmlns:ev="http://www.w3.org/2001/xml-events" xmlns:inkscape="http://www.inkscape.org/namespaces/inkscape" xmlns:rdf="http://www.w3.org/1999/02/22-rdf-syntax-ns" xmlns:sodipodi="http://sodipodi.sourceforge.net/DTD/sodipodi-0.dtd" xmlns:xlink="http://www.w3.org/1999/xlink" baseProfile="tiny" height="31.75001715cm" version="1.2" viewBox="0 0 1200.0006480000002 1200.0006480000002" width="31.75001715cm">
  <metadata>
    <rdf:RDF>
      <cc:Work>
        <dc:format>image/svg+xml</dc:format>
        <dc:source>vpype read '/Users/simon/Downloads/plotify-export (17).svg' crop 0 0 10cm 10cm write cropped.svg
</dc:source>
        <dc:date>2025-07-15T16:18:38.816968</dc:date>
      </cc:Work>
    </rdf:RDF>
  </metadata>
  <defs/>
  <g fill="none" id="layer1" inkscape:groupmode="layer" inkscape:label="1" stroke="#593987" stroke-width="1.0" style="display:inline">
    <polyline points="65.1524,377.9528 65.1561,377.9438 65.3015,377.5947 65.4471,377.2458 65.5929,376.897 65.7389,376.5482 65.8852,376.1996 66.0317,375.851 66.1785,375.5025 66.3255,375.1542 66.4727,374.8059 66.6201,374.4578 66.7677,374.1097 66.9156,373.7617 67.0637,373.4138 67.212,373.066 67.3606,372.7184 67.5094,372.3708 67.6584,372.0233 67.8076,371.6759 67.9571,371.3286 68.1068,370.9814 68.2567,370.6343 68.4069,370.2873 68.5572,369.9404 68.7078,369.5936 68.8587,369.2469 69.0097,368.9002 69.161,368.5537 69.3125,368.2073 69.4642,367.861 69.6162,367.5148 69.7684,367.1687 69.9208,366.8227 70.0734,366.4767 70.2263,366.1309 70.3793,365.7852 70.5327,365.4396 70.6862,365.0941 70.84,364.7487 70.9939,364.4033 71.1482,364.0581 71.3026,363.713 71.4573,363.368 71.6121,363.0231 71.7673,362.6783 71.9226,362.3336 72.0782,361.989 72.234,361.6444 72.39,361.3 72.5462,360.9557 72.7027,360.6115 72.8594,360.2674 73.0163,359.9234 73.1734,359.5795 73.3308,359.2358 73.4884,358.8921 73.6462,358.5485 73.8042,358.205 73.9625,357.8616 74.1209,357.5183 74.2797,357.1752 74.4386,356.8321 74.5977,356.4891 74.7571,356.1463 74.9167,355.8035 75.0765,355.4609 75.2366,355.1183 75.3969,354.7759 75.5574,354.4335 75.7181,354.0913 75.879,353.7492 76.0402,353.4071 76.2016,353.0652 76.3632,352.7234 76.525,352.3817 76.6871,352.0401 76.8494,351.6986 77.0119,351.3572 77.1746,351.0159 77.3376,350.6748 77.5008,350.3337 77.6642,349.9927 77.8278,349.6519 77.9916,349.3111 78.1557,348.9705 78.32,348.6299 78.4845,348.2895 78.6492,347.9492 78.8142,347.609 78.9793,347.2689 79.1447,346.9289 79.3104,346.589 79.4762,346.2492 79.6423,345.9095 79.8085,345.57 79.9751,345.2305 80.1418,344.8911 80.3087,344.5519 80.4759,344.2128 80.6433,343.8738 80.8109,343.5348 80.9787,343.196 81.1468,342.8574 81.3151,342.5188 81.4836,342.1803 81.6523,341.8419 81.8212,341.5037 81.9904,341.1655 82.1598,340.8275 82.3294,340.4896 82.4992,340.1518 82.6693,339.8141 82.8395,339.4765 83.01,339.139 83.1807,338.8017 83.3516,338.4644 83.5228,338.1273 83.6941,337.7902 83.8657,337.4533 84.0375,337.1165 84.2096,336.7798 84.3818,336.4432 84.5543,336.1068 84.727,335.7704 84.8999,335.4342 85.073,335.098 85.2463,334.762 85.4199,334.4261 85.5937,334.0903 85.7677,333.7546 85.9419,333.4191 86.1163,333.0836 86.291,332.7483 86.4659,332.4131 86.641,332.078 86.8163,331.743 86.9918,331.4081 87.1675,331.0733 87.3435,330.7387 87.5197,330.4041 87.6961,330.0697 87.8727,329.7354 88.0496,329.4012 88.2266,329.0672 88.4039,328.7332 88.5814,328.3994 88.7591,328.0656 88.9371,327.732 89.1152,327.3985 89.2936,327.0652 89.4722,326.7319 89.651,326.3987 89.83,326.0657 90.0092,325.7328 90.1887,325.4 90.3684,325.0673 90.5483,324.7348 90.7284,324.4023 90.9087,324.07 91.0892,323.7378 91.27,323.4057 91.451,323.0738 91.6322,322.7419 91.8136,322.4102 91.9952,322.0786 92.177,321.7471 92.3591,321.4157 92.5414,321.0844 92.7239,320.7533 92.9067,320.4223 93.0896,320.0914 93.2727,319.7606 93.4561,319.4299 93.6396,319.0994 93.8234,318.769 94.0074,318.4387 94.1916,318.1085 94.3761,317.7784 94.5607,317.4485 94.7456,317.1187 94.9307,316.789 95.116,316.4594 95.3015,316.1299 95.4872,315.8006 95.6731,315.4714 95.8593,315.1423 96.0457,314.8133 96.2322,314.4845 96.419,314.1557 96.6061,313.8271 96.7933,313.4987 96.9807,313.1703 97.1684,312.8421 97.3562,312.5139 97.5443,312.1859 97.7326,311.8581 97.9211,311.5303 98.1099,311.2027 98.2988,310.8752 98.488,310.5478 98.6773,310.2206 98.8669,309.8934 99.0567,309.5664 99.2467,309.2395 99.4369,308.9128 99.6274,308.5862 99.818,308.2596 100.0089,307.9333 100.2,307.607 100.3912,307.2809 100.5827,306.9549 100.7745,306.629 100.9664,306.3032 101.1585,305.9776 101.3509,305.6521 101.5434,305.3267 101.7362,305.0014 101.9292,304.6763 102.1224,304.3513 102.3158,304.0264 102.5094,303.7016 102.7033,303.377 102.8973,303.0525 103.0916,302.7281 103.2861,302.4039 103.4807,302.0798 103.6756,301.7558 103.8707,301.4319 104.0661,301.1082 104.2616,300.7846 104.4573,300.4611 104.6533,300.1377 104.8494,299.8145 105.0458,299.4914 105.2424,299.1684 105.4392,298.8456 105.6362,298.5229 105.8334,298.2003 106.0308,297.8778 106.2285,297.5555 106.4263,297.2333 106.6244,296.9113 106.8227,296.5893 107.0211,296.2675 107.2198,295.9458 107.4187,295.6243 107.6178,295.3029 107.8172,294.9816 108.0167,294.6604 108.2164,294.3394 108.4164,294.0185 108.6165,293.6977 108.8169,293.3771 109.0175,293.0566 109.2183,292.7362 109.4192,292.4159 109.6205,292.0958 109.8219,291.7758 110.0235,291.456 110.2253,291.1363 110.4274,290.8167 110.6296,290.4972 110.8321,290.1779 111.0347,289.8587 111.2376,289.5397 111.4407,289.2207 111.644,288.9019 111.8475,288.5833 112.0512,288.2648 112.2551,287.9464 112.4592,287.6281 112.6635,287.31 112.8681,286.992 113.0728,286.6741 113.2778,286.3564 113.4829,286.0388 113.6883,285.7213 113.8939,285.404 114.0996,285.0868 114.3056,284.7698 114.5118,284.4528 114.7182,284.1361 114.9248,283.8194 115.1316,283.5029 115.3387,283.1865 115.5459,282.8703 115.7533,282.5541 115.961,282.2382 116.1688,281.9223 116.3769,281.6066 116.5851,281.2911 116.7936,280.9756 117.0023,280.6603 117.2111,280.3452 117.4202,280.0301 117.6295,279.7153 117.839,279.4005 118.0487,279.0859 118.2586,278.7714 118.4687,278.4571 118.679,278.1429 118.8895,277.8288 119.1003,277.5148 119.3112,277.201 119.5223,276.8873 119.7337,276.5738 119.9452,276.2604 120.157,275.9472 120.3689,275.6341 120.5811,275.3211 120.7934,275.0083 121.006,274.6956 121.2188,274.3831 121.4317,274.0707 121.6449,273.7584 121.8583,273.4463 122.0719,273.1343 122.2857,272.8225 122.4997,272.5107 122.7139,272.1992 122.9283,271.8877 123.1429,271.5765 123.3577,271.2653 123.5727,270.9543 123.7879,270.6434 124.0033,270.3327 124.2189,270.0221 124.4347,269.7117 124.6508,269.4014 124.867,269.0912 125.0834,268.7812 125.3,268.4713 125.5169,268.1615 125.7339,267.8519 125.9511,267.5425 126.1686,267.2332 126.3862,266.924 126.6041,266.615 126.8221,266.3061 127.0404,265.9973 127.2588,265.6887 127.4775,265.3803 127.6963,265.072 127.9154,264.7638 128.1346,264.4557 128.3541,264.1479 128.5737,263.8401 128.7936,263.5325 129.0136,263.2251 129.2339,262.9177 129.4543,262.6106 129.675,262.3035 129.8959,261.9967 130.1169,261.6899 130.3382,261.3833 130.5596,261.0769 130.7813,260.7706 131.0032,260.4644 131.2252,260.1584 131.4475,259.8525 131.6699,259.5468 131.8926,259.2412 132.1154,258.9358 132.3385,258.6305 132.5618,258.3254 132.7852,258.0204 133.0089,257.7155 133.2327,257.4108 133.4568,257.1062 133.681,256.8018 133.9055,256.4976 134.1301,256.1934 134.355,255.8895 134.58,255.5856 134.8052,255.282 135.0307,254.9784 135.2563,254.675 135.4822,254.3718 135.7082,254.0687 135.9344,253.7658 136.1609,253.463 136.3875,253.1603 136.6143,252.8578 136.8413,252.5555 137.0686,252.2533 137.296,251.9512 137.5236,251.6493 137.7514,251.3476 137.9794,251.046 138.2076,250.7445 138.436,250.4432 138.6646,250.142 138.8934,249.841 139.1224,249.5402 139.3516,249.2394 139.581,248.9389 139.8106,248.6385 140.0403,248.3382 140.2703,248.0381 140.5005,247.7381 140.7309,247.4383 140.9614,247.1387 141.1922,246.8391 141.4231,246.5398 141.6543,246.2406 141.8856,245.9415 142.1172,245.6426 142.3489,245.3439 142.5808,245.0452 142.8129,244.7468 143.0453,244.4485 143.2778,244.1503 143.5105,243.8523 143.7434,243.5545 143.9765,243.2568 144.2098,242.9593 144.4432,242.6619 144.6769,242.3646 144.9108,242.0676 145.1449,241.7706 145.3791,241.4738 145.6136,241.1772 145.8482,240.8807 146.0831,240.5844 146.3181,240.2883 146.5533,239.9922 146.7887,239.6964 147.0244,239.4007 147.2602,239.1051 147.4962,238.8097 147.7324,238.5145 147.9687,238.2194 148.2053,237.9245 148.4421,237.6297 148.6791,237.3351 148.9162,237.0406 149.1536,236.7463 149.3911,236.4521 149.6288,236.1581 149.8668,235.8643 150.1049,235.5706 150.3432,235.277 150.5817,234.9836 150.8204,234.6904 151.0592,234.3973 151.2983,234.1044 151.5376,233.8117 151.777,233.5191 152.0167,233.2266 152.2565,232.9343 152.4965,232.6422 152.7368,232.3502 152.9772,232.0584 153.2178,231.7667 153.4586,231.4752 153.6995,231.1839 153.9407,230.8927 154.1821,230.6017 154.4236,230.3108 154.6654,230.0201 154.9073,229.7295 155.1494,229.4391 155.3917,229.1488 155.6342,228.8588 155.8769,228.5688 156.1198,228.2791 156.3628,227.9895 156.6061,227.7 156.8495,227.4107 157.0932,227.1216 157.337,226.8326 157.581,226.5438 157.8252,226.2551 158.0696,225.9666 158.3142,225.6783 158.5589,225.3901 158.8039,225.1021 159.049,224.8142 159.2944,224.5265 159.5399,224.239 159.7856,223.9516 160.0315,223.6644 160.2775,223.3774 160.5238,223.0905 160.7703,222.8037 161.0169,222.5172 161.2637,222.2307 161.5107,221.9445 161.7579,221.6584 162.0053,221.3725 162.2529,221.0867 162.5007,220.8011 162.7486,220.5157 162.9967,220.2304 163.2451,219.9453 163.4936,219.6603 163.7423,219.3755 163.9911,219.0909 164.2402,218.8064 164.4894,218.5221 164.7389,218.238 164.9885,217.954 165.2383,217.6702 165.4883,217.3865 165.7385,217.103 165.9888,216.8197 166.2394,216.5365 166.4901,216.2535 166.741,215.9707 166.9921,215.688 167.2434,215.4055 167.4949,215.1231 167.7465,214.841 167.9984,214.5589 168.2504,214.2771 168.5026,213.9954 168.755,213.7139 169.0075,213.4325 169.2603,213.1513 169.5132,212.8703 169.7664,212.5894 170.0197,212.3087 170.2732,212.0282 170.5268,211.7478 170.7807,211.4676 171.0347,211.1876 171.2889,210.9077 171.5434,210.628 171.7979,210.3485 172.0527,210.0691 172.3077,209.7899 172.5628,209.5109 172.8181,209.232 173.0736,208.9533 173.3293,208.6748 173.5851,208.3964 173.8412,208.1182 174.0974,207.8402 174.3538,207.5623 174.6104,207.2846 174.8672,207.007 175.1241,206.7297 175.3813,206.4525 175.6386,206.1754 175.8961,205.8986 176.1537,205.6219 176.4116,205.3454 176.6696,205.069 176.9278,204.7928 177.1862,204.5168 177.4448,204.2409 177.7036,203.9653 177.9625,203.6897 178.2216,203.4144 178.4809,203.1392 178.7404,202.8642 179.0,202.5894 179.2599,202.3147 179.5199,202.0402 179.7801,201.7659 180.0404,201.4917 180.301,201.2177 180.5617,200.9439 180.8226,200.6703 181.0837,200.3968 181.345,200.1235 181.6064,199.8504 181.868,199.5774 182.1298,199.3046 182.3918,199.032 182.654,198.7595 182.9163,198.4872 183.1788,198.2151 183.4415,197.9432 183.7044,197.6714 183.9674,197.3998 184.2306,197.1284 184.494,196.8572 184.7576,196.5861 185.0213,196.3152 185.2853,196.0444 185.5494,195.7739 185.8137,195.5035 186.0781,195.2333 186.3428,194.9632 186.6076,194.6933 186.8725,194.4236 187.1377,194.1541 187.4031,193.8848 187.6686,193.6156 187.9343,193.3466 188.2001,193.0778 188.4662,192.8091 188.7324,192.5406 188.9988,192.2723 189.2653,192.0042 189.5321,191.7362 189.799,191.4684 190.0661,191.2008 190.3333,190.9333 190.6008,190.6661 190.8684,190.399 191.1362,190.1321 191.4042,189.8653 191.6723,189.5988 191.9406,189.3324 192.2091,189.0662 192.4778,188.8001 192.7466,188.5343 193.0156,188.2686 193.2848,188.0031 193.5541,187.7377 193.8236,187.4725 194.0933,187.2076 194.3632,186.9428 194.6333,186.6781 194.9035,186.4137 195.1739,186.1494 195.4444,185.8853 195.7152,185.6213 195.9861,185.3576 196.2572,185.094 196.5284,184.8306 196.7998,184.5674 197.0714,184.3044 197.3432,184.0415 197.6151,183.7788 197.8872,183.5163 198.1595,183.254 198.432,182.9918 198.7046,182.7298 198.9774,182.468 199.2504,182.2064 199.5235,181.945 199.7968,181.6837 200.0703,181.4226 200.3439,181.1617 200.6177,180.901 200.8917,180.6404 201.1659,180.3801 201.4402,180.1199 201.7147,179.8599 201.9894,179.6 202.2642,179.3404 202.5392,179.0809 202.8144,178.8216 203.0897,178.5625 203.3653,178.3036 203.6409,178.0448 203.9168,177.7862 204.1928,177.5278 204.469,177.2696 204.7454,177.0116 205.0219,176.7537 205.2986,176.4961 205.5754,176.2386 205.8525,175.9813 206.1297,175.7241 206.407,175.4672 206.6846,175.2104 206.9623,174.9538 207.2402,174.6974 207.5182,174.4412 207.7964,174.1851 208.0748,173.9293 208.3533,173.6736 208.632,173.4181 208.9109,173.1628 209.1899,172.9077 209.4691,172.6527 209.7485,172.3979 210.028,172.1434 210.3077,171.8889 210.5876,171.6347 210.8676,171.3807 211.1478,171.1268 211.4282,170.8732 211.7087,170.6197 211.9894,170.3664 212.2703,170.1132 212.5513,169.8603 212.8325,169.6075 213.1139,169.355 213.3954,169.1026 213.6771,168.8504 213.9589,168.5984 214.241,168.3465 214.5231,168.0949 214.8055,167.8434 215.088,167.5921 215.3707,167.341 215.6535,167.0901 215.9365,166.8394 216.2197,166.5888 216.503,166.3385 216.7865,166.0883 217.0702,165.8383 217.354,165.5885 217.638,165.3389 217.9221,165.0894 218.2064,164.8402 218.4909,164.5911 218.7755,164.3423 219.0603,164.0936 219.3453,163.8451 219.6304,163.5967 219.9157,163.3486 220.2011,163.1007 220.4867,162.8529 220.7725,162.6053 221.0584,162.3579 221.3445,162.1107 221.6307,161.8637 221.9172,161.6169 222.2037,161.3703 222.4905,161.1238 222.7774,160.8775 223.0644,160.6315 223.3516,160.3856 223.639,160.1399 223.9265,159.8944 224.2142,159.649 224.5021,159.4039 224.7901,159.1589 225.0783,158.9142 225.3666,158.6696 225.6551,158.4252 225.9438,158.181 226.2326,157.937 226.5216,157.6932 226.8107,157.4495 227.1,157.2061 227.3895,156.9628 227.6791,156.7198 227.9688,156.4769 228.2588,156.2342 228.5488,155.9917 228.8391,155.7494 229.1295,155.5073 229.4201,155.2654 229.7108,155.0236 230.0017,154.7821 230.2927,154.5407 230.5839,154.2995 230.8752,154.0586 231.1667,153.8178 231.4584,153.5772 231.7502,153.3368 232.0422,153.0965 232.3343,152.8565 232.6266,152.6167 232.9191,152.377 233.2117,152.1376 233.5044,151.8983 233.7973,151.6592 234.0904,151.4204 234.3836,151.1817 234.677,150.9432 234.9706,150.7049 235.2643,150.4668 235.5581,150.2288 235.8521,149.9911 236.1463,149.7536 236.4406,149.5162 236.7351,149.2791 237.0297,149.0421 237.3245,148.8053 237.6194,148.5687 237.9145,148.3324 238.2097,148.0962 238.5051,147.8602 238.8007,147.6244 239.0964,147.3887 239.3922,147.1533 239.6883,146.9181 239.9844,146.6831 240.2807,146.4482 240.5772,146.2136 240.8738,145.9791 241.1706,145.7449 241.4676,145.5108 241.7646,145.2769 242.0619,145.0432 242.3593,144.8098 242.6568,144.5765 242.9545,144.3434 243.2523,144.1105 243.5503,143.8778 243.8485,143.6453 244.1468,143.4129 244.4452,143.1808 244.7439,142.9489 245.0426,142.7172 245.3415,142.4856 245.6406,142.2543 245.9398,142.0231 246.2391,141.7922 246.5387,141.5614 246.8383,141.3309 247.1381,141.1005 247.4381,140.8703 247.7382,140.6403 248.0385,140.4106 248.3389,140.181 248.6394,139.9516 248.9402,139.7224 249.241,139.4934 249.542,139.2646 249.8432,139.036 250.1445,138.8076 250.446,138.5794 250.7476,138.3514 251.0493,138.1236 251.3512,137.896 251.6533,137.6686 251.9555,137.4413 252.2578,137.2143 252.5603,136.9875 252.863,136.7609 253.1658,136.5344 253.4687,136.3082 253.7718,136.0822 254.075,135.8563 254.3784,135.6307 254.682,135.4052 254.9856,135.18 255.2895,134.955 255.5934,134.7301 255.8976,134.5055 256.2018,134.281 256.5062,134.0568 256.8108,133.8327 257.1155,133.6089 257.4204,133.3852 257.7254,133.1618 258.0305,132.9385 258.3358,132.7154 258.6412,132.4926 258.9468,132.2699 259.2525,132.0475 259.5584,131.8252 259.8644,131.6032 260.1706,131.3813 260.4769,131.1596 260.7833,130.9382 261.0899,130.7169 261.3967,130.4959 261.7035,130.275 262.0106,130.0543 262.3177,129.8339 262.6251,129.6136 262.9325,129.3936 263.2401,129.1737 263.5479,128.9541 263.8557,128.7346 264.1638,128.5154 264.472,128.2963 264.7803,128.0775 265.0887,127.8588 265.3973,127.6404 265.7061,127.4221 266.015,127.2041 266.324,126.9862 266.6332,126.7686 266.9425,126.5511 267.2519,126.3339 267.5615,126.1169 267.8713,125.9 268.1812,125.6834 268.4912,125.467 268.8014,125.2508 269.1117,125.0347 269.4221,124.8189 269.7327,124.6033 270.0434,124.3879 270.3543,124.1727 270.6653,123.9577 270.9765,123.7429 271.2877,123.5283 271.5992,123.3139 271.9107,123.0997 272.2225,122.8857 272.5343,122.6719 272.8463,122.4583 273.1584,122.2449 273.4707,122.0317 273.7831,121.8188 274.0956,121.606 274.4083,121.3934 274.7211,121.1811 275.0341,120.9689 275.3472,120.757 275.6604,120.5452 275.9738,120.3337 276.2873,120.1223 276.601,119.9112 276.9148,119.7003 277.2287,119.4895 277.5428,119.279 277.8571,119.0687 278.1714,118.8586 278.4859,118.6487 278.8005,118.439 279.1153,118.2295 279.4301,118.0202 279.7452,117.8111 280.0603,117.6023 280.3756,117.3936 280.6911,117.1851 281.0066,116.9769 281.3223,116.7688 281.6382,116.561 281.9541,116.3533 282.2703,116.1459 282.5865,115.9387 282.9029,115.7316 283.2194,115.5248 283.5361,115.3182 283.8528,115.1118 284.1698,114.9056 284.4868,114.6996 284.804,114.4939 285.1213,114.2883 285.4388,114.0829 285.7564,113.8778 286.0741,113.6728 286.392,113.4681 286.71,113.2635 287.0281,113.0592 287.3464,112.8551 287.6648,112.6512 287.9833,112.4475 288.3019,112.244 288.6207,112.0407 288.9397,111.8376 289.2587,111.6347 289.5779,111.4321 289.8972,111.2296 290.2167,111.0274 290.5363,110.8253 290.856,110.6235 291.1758,110.4219 291.4958,110.2205 291.8159,110.0192 292.1362,109.8183 292.4566,109.6175 292.7771,109.4169 293.0977,109.2165 293.4185,109.0164 293.7394,108.8164 294.0604,108.6167 294.3816,108.4172 294.7029,108.2178 295.0243,108.0187 295.3458,107.8198 295.6675,107.6211 295.9893,107.4227 296.3113,107.2244 296.6333,107.0263 296.9555,106.8285 297.2778,106.6308 297.6003,106.4334 297.9229,106.2362 298.2456,106.0392 298.5684,105.8424 298.8914,105.6458 299.2145,105.4494 299.5377,105.2533 299.8611,105.0573 300.1846,104.8616 300.5082,104.6661 300.8319,104.4707 301.1558,104.2756 301.4798,104.0807 301.8039,103.8861 302.1281,103.6916 302.4525,103.4973 302.777,103.3033 303.1016,103.1094 303.4264,102.9158 303.7513,102.7224 304.0763,102.5292 304.4014,102.3362 304.7267,102.1434 305.0521,101.9509 305.3776,101.7585 305.7032,101.5664 306.029,101.3745 306.3549,101.1827 306.6809,100.9912 307.007,100.8 307.3333,100.6089 307.6596,100.418 307.9862,100.2274 308.3128,100.0369 308.6395,99.8467 308.9664,99.6567 309.2934,99.4669 309.6206,99.2773 309.9478,99.088 310.2752,98.8988 310.6027,98.7099 310.9303,98.5211 311.2581,98.3326 311.5859,98.1443 311.9139,97.9562 312.2421,97.7684 312.5703,97.5807 312.8987,97.3933 313.2271,97.2061 313.5557,97.019 313.8845,96.8322 314.2133,96.6457 314.5423,96.4593 314.8714,96.2731 315.2006,96.0872 315.5299,95.9015 315.8594,95.716 316.189,95.5307 316.5187,95.3456 316.8485,95.1607 317.1784,94.9761 317.5085,94.7916 317.8387,94.6074 318.169,94.4234 318.4994,94.2396 318.8299,94.0561 319.1606,93.8727 319.4914,93.6896 319.8223,93.5067 320.1533,93.3239 320.4844,93.1415 320.8157,92.9592 321.1471,92.7771 321.4786,92.5953 321.8102,92.4136 322.1419,92.2322 322.4738,92.051 322.8057,91.87 323.1378,91.6892 323.47,91.5087 323.8023,91.3284 324.1348,91.1483 324.4673,90.9684 324.8,90.7887 325.1328,90.6092 325.4657,90.43 325.7987,90.251 326.1319,90.0722 326.4652,89.8936 326.7985,89.7152 327.132,89.5371 327.4656,89.3591 327.7994,89.1814 328.1332,89.0039 328.4672,88.8266 328.8012,88.6496 329.1354,88.4727 329.4697,88.2961 329.8041,88.1197 330.1387,87.9435 330.4733,87.7675 330.8081,87.5918 331.143,87.4163 331.478,87.241 331.8131,87.0659 332.1483,86.891 332.4836,86.7163 332.8191,86.5419 333.1546,86.3677 333.4903,86.1937 333.8261,86.0199 334.162,85.8463 334.498,85.673 334.8342,85.4999 335.1704,85.327 335.5068,85.1543 335.8432,84.9818 336.1798,84.8096 336.5165,84.6375 336.8533,84.4657 337.1902,84.2941 337.5273,84.1228 337.8644,83.9516 338.2017,83.7807 338.539,83.61 338.8765,83.4395 339.2141,83.2693 339.5518,83.0992 339.8896,82.9294 340.2275,82.7598 340.5655,82.5904 340.9037,82.4212 341.2419,82.2523 341.5803,82.0836 341.9188,81.9151 342.2574,81.7468 342.596,81.5787 342.9348,81.4109 343.2738,81.2433 343.6128,81.0759 343.9519,80.9087 344.2911,80.7418 344.6305,80.5751 344.97,80.4085 345.3095,80.2423 345.6492,80.0762 345.989,79.9104 346.3289,79.7447 346.6689,79.5793 347.009,79.4142 347.3492,79.2492 347.6895,79.0845 348.0299,78.92 348.3705,78.7557 348.7111,78.5916 349.0519,78.4278 349.3927,78.2642 349.7337,78.1008 350.0748,77.9376 350.4159,77.7746 350.7572,77.6119 351.0986,77.4494 351.4401,77.2871 351.7817,77.125 352.1234,76.9632 352.4652,76.8016 352.8071,76.6402 353.1492,76.479 353.4913,76.3181 353.8335,76.1574 354.1759,75.9969 354.5183,75.8366 354.8609,75.6765 355.2035,75.5167 355.5463,75.3571 355.8891,75.1977 356.2321,75.0386 356.5752,74.8797 356.9183,74.7209 357.2616,74.5625 357.605,74.4042 357.9485,74.2462 358.2921,74.0884 358.6358,73.9308 358.9795,73.7734 359.3234,73.6163 359.6674,73.4594 360.0115,73.3027 360.3557,73.1462 360.7,72.99 361.0444,72.834 361.389,72.6782 361.7336,72.5226 362.0783,72.3673 362.4231,72.2121 362.768,72.0573 363.113,71.9026 363.4581,71.7482 363.8033,71.5939 364.1487,71.44 364.4941,71.2862 364.8396,71.1327 365.1852,70.9793 365.5309,70.8263 365.8767,70.6734 366.2227,70.5208 366.5687,70.3684 366.9148,70.2162 367.261,70.0642 367.6073,69.9125 367.9537,69.761 368.3002,69.6097 368.6469,69.4587 368.9936,69.3078 369.3404,69.1572 369.6873,69.0069 370.0343,68.8567 370.3814,68.7068 370.7286,68.5571 371.0759,68.4076 371.4233,68.2584 371.7708,68.1094 372.1184,67.9606 372.466,67.812 372.8138,67.6637 373.1617,67.5156 373.5097,67.3677 373.8578,67.2201 374.2059,67.0727 374.5542,66.9255 374.9025,66.7785 375.251,66.6317 375.5996,66.4852 375.9482,66.3389 376.297,66.1929 376.6458,66.0471 376.9947,65.9015 377.3438,65.7561 377.6929,65.6109 377.9528,65.5031"/>
    <polyline points="329.7702,189.5901 329.1817,189.9762 328.6059,190.3539 328.0428,190.7232 327.4924,191.0842 326.9548,191.4369 326.4299,191.7812 325.9177,192.1171 325.4182,192.4447 324.9314,192.764 324.4574,193.0749 323.9961,193.3775 323.5475,193.6717 323.1116,193.9575 322.6884,194.235 322.278,194.5042 321.8803,194.765 321.4953,195.0174 321.123,195.2615 320.7634,195.4973 320.4166,195.7247 320.0825,195.9437 319.7611,196.1544 319.4524,196.3568 319.1565,196.5507 318.8732,196.7364 318.6027,196.9137 318.3449,197.0826 318.0998,197.2432 317.8675,197.3955 317.6479,197.5394 317.441,197.6749 317.2468,197.8021 317.0653,197.9209 316.8965,198.0314 316.7405,198.1336 316.5972,198.2274 316.4666,198.3128 316.3487,198.3899 316.2436,198.4586 316.1512,198.519 316.0715,198.5711 316.0045,198.6148 315.9502,198.6501 315.3702,198.5401 297.8502,173.3701 297.2802,173.2901 284.0902,183.6401 284.0402,184.0101 329.0702,248.7001 329.4803,248.9531 329.9402,248.8301 342.8302,238.7101 342.9002,238.2401 325.2002,212.8101 325.2902,212.3301 325.4257,212.24 325.5704,212.1439 325.7241,212.0419 325.887,211.9339 326.059,211.82 326.2402,211.7001 326.4305,211.5743 326.6299,211.4425 326.8384,211.3047 327.0561,211.1611 327.2829,211.0114 327.5188,210.8558 327.7638,210.6943 328.018,210.5268 328.2813,210.3533 328.5537,210.1739 328.8352,209.9886 329.1259,209.7972 329.4257,209.6 329.7346,209.3968 330.0527,209.1876 330.3799,208.9725 330.7162,208.7514 331.0616,208.5244 331.4162,208.2914 331.7799,208.0525 332.1527,207.8076 332.5346,207.5568 332.9257,207.3 333.3259,207.0372 333.7352,206.7686 334.1537,206.4939 334.5813,206.2133 335.018,205.9268 335.4638,205.6343 335.9188,205.3358 336.3829,205.0314 336.8561,204.7211 337.3384,204.4047 337.8299,204.0825 338.3305,203.7543 338.8402,203.4201 339.3499,203.086 339.8506,202.7578 340.3421,202.4356 340.8246,202.1194 341.298,201.8092 341.7622,201.505 342.2174,201.2068 342.6635,200.9145 343.1005,200.6283 343.5284,200.348 343.9472,200.0737 344.3569,199.8054 344.7576,199.5431 345.1491,199.2868 345.5315,199.0364 345.9049,198.7921 346.2691,198.5537 346.6243,198.3213 346.9703,198.0949 347.3073,197.8745 347.6352,197.6601 347.954,197.4517 348.2637,197.2492 348.5643,197.0528 348.8558,196.8623 349.1382,196.6778 349.4115,196.4993 349.6758,196.3268 349.9309,196.1602 350.1769,195.9997 350.4139,195.8451 350.6417,195.6966 350.8605,195.554 351.0702,195.4174 351.2708,195.2868 351.4622,195.1621 351.6446,195.0435 351.8179,194.9308 351.9821,194.8242 352.1373,194.7235 352.2833,194.6288 352.4202,194.5401 352.8902,194.6501 369.1602,221.0201 369.6202,221.1401 377.9528,216.6387"/>
    <polyline points="377.9528,202.2838 342.8802,145.4201 342.5202,145.3201 327.7702,153.2901 327.6202,153.8501 343.7202,179.9501 343.5902,180.5201 343.5364,180.5559 343.4698,180.6 343.3905,180.6525 343.2985,180.7133 343.1937,180.7825 343.0762,180.86 342.9459,180.9458 342.8029,181.04 342.6472,181.1425 342.4787,181.2534 342.2974,181.3726 342.1035,181.5001 341.8968,181.636 341.6773,181.7802 341.4451,181.9327 341.2002,182.0936 340.9425,182.2629 340.672,182.4404 340.3889,182.6263 340.093,182.8206 339.7843,183.0232 339.4629,183.2341 339.1288,183.4534 338.7819,183.681 338.4223,183.9169 338.0499,184.1612 337.6648,184.4139 337.267,184.6748 336.8564,184.9441 336.433,185.2218 335.997,185.5078 335.5481,185.8021 335.0866,186.1048 334.6123,186.4158 334.1252,186.7351 333.6255,187.0628 333.1129,187.3988 332.5877,187.7432 332.0497,188.0959 331.4989,188.4569 330.9354,188.8263 330.3592,189.204 329.7702,189.5901"/>
    <polygon points="304.2702,249.8601 289.6602,249.8601 289.2217,250.0345 289.0302,250.4601 289.0075,250.9518 288.9831,251.4325 288.9571,251.9023 288.9295,252.3612 288.9003,252.8092 288.8694,253.2462 288.8369,253.6723 288.8027,254.0875 288.7669,254.4917 288.7295,254.885 288.6905,255.2674 288.6498,255.6389 288.6075,255.9994 288.5635,256.349 288.518,256.6877 288.4707,257.0154 288.4219,257.3322 288.3714,257.6381 288.3193,257.933 288.2656,258.217 288.2102,258.4901 288.1313,258.8464 288.0453,259.2031 287.9523,259.56 287.8524,259.9171 287.7457,260.2741 287.6322,260.631 287.5122,260.9875 287.3856,261.3435 287.2527,261.6989 287.1134,262.0535 286.968,262.4072 286.8165,262.7598 286.6589,263.1112 286.4955,263.4612 286.3263,263.8097 286.1514,264.1565 285.971,264.5015 285.785,264.8446 285.5937,265.1855 285.3971,265.5242 285.1953,265.8604 284.9885,266.1941 284.7767,266.5251 284.56,266.8532 284.3386,267.1784 284.1125,267.5003 283.8818,267.819 283.6467,268.1342 283.4072,268.4459 283.1635,268.7537 282.9157,269.0577 282.6637,269.3577 282.4079,269.6534 282.1482,269.9448 281.8848,270.2318 281.6177,270.5141 281.3471,270.7916 281.073,271.0642 280.7957,271.3317 280.5151,271.5939 280.2313,271.8508 279.9446,272.1022 279.6549,272.3479 279.3625,272.5877 279.0673,272.8216 278.7694,273.0494 278.4691,273.2709 278.1664,273.486 277.8614,273.6946 277.554,273.8964 277.2447,274.0913 276.9333,274.2793 276.6201,274.4601 276.2598,274.6588 275.8983,274.85 275.5356,275.0339 275.1718,275.2105 274.807,275.3797 274.4411,275.5418 274.0742,275.6966 273.7065,275.8443 273.3379,275.9849 272.9685,276.1185 272.5984,276.245 272.2276,276.3646 271.8562,276.4773 271.4843,276.5832 271.1118,276.6822 270.7389,276.7745 270.3656,276.86 269.992,276.9389 269.6181,277.0111 269.2439,277.0768 268.8696,277.136 268.4952,277.1887 268.1208,277.2349 267.7463,277.2747 267.3719,277.3083 266.9976,277.3355 266.6235,277.3564 266.2496,277.3712 265.8761,277.3798 265.5028,277.3824 265.13,277.3788 264.7576,277.3693 264.3857,277.3538 264.0144,277.3323 263.6437,277.305 263.2737,277.2719 262.9044,277.233 262.5359,277.1884 262.1683,277.1381 261.8015,277.0822 261.4358,277.0207 261.071,276.9536 260.7074,276.8811 260.3448,276.8031 259.9835,276.7197 259.6234,276.631 259.2646,276.5369 258.9071,276.4376 258.5511,276.3331 258.1966,276.2235 257.8435,276.1087 257.4921,275.9889 257.1423,275.864 256.7942,275.7342 256.4478,275.5994 256.1033,275.4598 255.7606,275.3153 255.4198,275.1661 255.081,275.0121 254.7443,274.8534 254.4096,274.6901 254.0771,274.5222 253.7468,274.3497 253.4188,274.1727 253.0931,273.9913 252.7697,273.8055 252.4488,273.6153 252.1304,273.4208 251.8145,273.222 251.5012,273.019 251.1905,272.8119 250.8826,272.6006 250.5774,272.3853 250.2751,272.1659 249.9757,271.9425 249.6791,271.7152 249.3856,271.484 249.0951,271.249 248.8078,271.0102 248.5236,270.7676 248.2426,270.5213 247.9649,270.2714 247.6905,270.0179 247.4195,269.7608 247.152,269.5002 246.888,269.2362 246.6275,268.9687 246.3706,268.6979 246.1174,268.4237 245.868,268.1462 245.6223,267.8656 245.3805,267.5817 245.1425,267.2947 244.9085,267.0047 244.6785,266.7116 244.4526,266.4155 244.2308,266.1164 244.0132,265.8145 243.7998,265.5097 243.5908,265.2021 243.386,264.8917 243.1857,264.5787 242.9898,264.2629 242.7985,263.9446 242.6117,263.6237 242.4295,263.3003 242.2521,262.9744 242.0794,262.646 241.9114,262.3153 241.7484,261.9823 241.5902,261.647 241.437,261.3094 241.2889,260.9696 241.1458,260.6277 241.0079,260.2837 240.8751,259.9377 240.7476,259.5897 240.6254,259.2397 240.5086,258.8877 240.3972,258.534 240.2913,258.1784 240.1909,257.8211 240.0961,257.462 240.007,257.1012 239.9235,256.7389 239.8458,256.3749 239.7739,256.0095 239.7079,255.6425 239.6478,255.2741 239.5937,254.9043 239.5457,254.5332 239.5037,254.1608 239.4679,253.7871 239.4383,253.4123 239.415,253.0363 239.398,252.6591 239.3874,252.2809 239.3832,251.9018 239.3855,251.5216 239.3943,251.1405 239.4098,250.7586 239.4319,250.3758 239.4608,249.9923 239.4964,249.608 239.5388,249.223 239.5881,248.8374 239.6444,248.4512 239.7077,248.0645 239.778,247.6773 239.8555,247.2896 239.9401,246.9016 240.0319,246.5132 240.131,246.1245 240.2375,245.7355 240.3513,245.3463 240.4726,244.957 240.6014,244.5675 240.7378,244.178 240.8818,243.7884 241.0335,243.3989 241.1929,243.0094 241.3601,242.6201 241.5218,242.261 241.6893,241.9066 241.8625,241.5569 242.0414,241.2118 242.2259,240.8713 242.4159,240.5355 242.6114,240.2043 242.8122,239.8777 243.0183,239.5558 243.2296,239.2385 243.4461,238.9258 243.6677,238.6177 243.8943,238.3142 244.1258,238.0153 244.3621,237.721 244.6033,237.4313 244.8492,237.1462 245.0997,236.8657 245.3548,236.5898 245.6143,236.3185 245.8783,236.0517 246.1467,235.7895 246.4193,235.5319 246.6962,235.2788 246.9771,235.0303 247.2622,234.7863 247.5512,234.5469 247.8441,234.3121 248.1409,234.0818 248.4415,233.856 248.7457,233.6347 249.0536,233.418 249.365,233.2058 249.6799,232.9981 249.9982,232.795 250.3198,232.5964 250.6447,232.4022 250.9728,232.2126 251.304,232.0275 251.6383,231.8468 251.9755,231.6707 252.3156,231.499 252.6585,231.3319 253.0042,231.1692 253.3525,231.011 253.7035,230.8572 254.057,230.7079 254.413,230.5631 254.7713,230.4228 255.132,230.2869 255.4949,230.1554 255.8599,230.0284 256.2271,229.9059 256.5963,229.7877 256.9674,229.674 257.3404,229.5648 257.7153,229.46 258.0918,229.3595 258.47,229.2635 258.8498,229.172 259.2312,229.0848 259.6139,229.002 259.998,228.9237 260.3835,228.8497 260.7701,228.7801 260.9429,228.7509 261.147,228.7174 261.3825,228.6798 261.6493,228.6381 261.9474,228.5921 262.2768,228.5419 262.6376,228.4876 263.0297,228.4291 263.4531,228.3664 263.9079,228.2995 264.3939,228.2284 264.9113,228.1532 265.46,228.0737 266.0401,227.9901 266.4574,227.7454 266.5901,227.2801 265.0701,211.3401 264.8996,211.0048 264.5501,210.8801 264.1617,210.8982 263.7742,210.9199 263.3876,210.9451 263.0019,210.9739 262.6172,211.0063 262.2334,211.0421 261.8505,211.0815 261.4686,211.1243 261.0877,211.1706 260.7077,211.2204 260.3287,211.2736 259.9508,211.3302 259.5738,211.3902 259.1979,211.4536 258.823,211.5204 258.4492,211.5905 258.0764,211.664 257.7047,211.7408 257.334,211.8209 256.9645,211.9043 256.5961,211.9909 256.2287,212.0808 255.8625,212.174 255.4975,212.2704 255.1335,212.37 254.7708,212.4728 254.4092,212.5788 254.0487,212.6879 253.6895,212.8002 253.3315,212.9156 252.9747,213.0342 252.6191,213.1558 252.2647,213.2805 251.9116,213.4083 251.5597,213.5391 251.2091,213.673 250.8598,213.8099 250.5118,213.9498 250.1651,214.0926 249.8197,214.2385 249.4756,214.3873 249.1328,214.539 248.7914,214.6936 248.4513,214.8512 248.1126,215.0116 247.7753,215.175 247.4393,215.3411 247.1048,215.5102 246.7717,215.682 246.44,215.8566 246.1097,216.0341 245.7809,216.2143 245.4535,216.3973 245.1276,216.583 244.8031,216.7715 244.4802,216.9626 244.1587,217.1565 243.8388,217.353 243.5203,217.5522 243.2034,217.7541 242.8881,217.9586 242.5743,218.1656 242.262,218.3753 241.9513,218.5876 241.6423,218.8025 241.3348,219.0199 241.0289,219.2398 240.7246,219.4623 240.422,219.6872 240.121,219.9147 239.8217,220.1446 239.524,220.3769 239.228,220.6117 238.9336,220.849 238.641,221.0886 238.3501,221.3306 238.0609,221.575 237.7734,221.8218 237.4877,222.0709 237.2037,222.3223 236.9214,222.5761 236.641,222.8321 236.3623,223.0904 236.0854,223.351 235.8104,223.6138 235.5371,223.8788 235.2657,224.1461 234.9961,224.4155 234.7283,224.6872 234.4624,224.961 234.1984,225.2369 233.9363,225.515 233.676,225.7952 233.4177,226.0775 233.1613,226.3619 232.9068,226.6484 232.6542,226.9369 232.4036,227.2274 232.1549,227.52 231.9082,227.8145 231.6635,228.1111 231.4208,228.4096 231.1801,228.7101 230.9278,229.0299 230.6793,229.3512 230.4346,229.674 230.1937,229.9982 229.9565,230.3238 229.7231,230.6508 229.4934,230.9791 229.2675,231.3088 229.0454,231.6398 228.827,231.9721 228.6123,232.3057 228.4014,232.6405 228.1942,232.9765 227.9907,233.3138 227.7909,233.6522 227.5948,233.9918 227.4024,234.3326 227.2137,234.6744 227.0287,235.0173 226.8474,235.3613 226.6697,235.7063 226.4958,236.0524 226.3255,236.3995 226.1588,236.7475 225.9958,237.0965 225.8364,237.4464 225.6807,237.7972 225.5287,238.1489 225.3802,238.5014 225.2354,238.8548 225.0942,239.209 224.9566,239.564 224.8226,239.9198 224.6922,240.2763 224.5654,240.6336 224.4422,240.9915 224.3225,241.3501 224.2065,241.7094 224.094,242.0693 223.9851,242.4298 223.8797,242.7909 223.7779,243.1525 223.6796,243.5147 223.5849,243.8774 223.4937,244.2406 223.406,244.6043 223.3219,244.9684 223.2413,245.333 223.1642,245.6979 223.0905,246.0633 223.0204,246.429 222.9538,246.795 222.8907,247.1613 222.831,247.5279 222.7748,247.8948 222.7221,248.2619 222.6729,248.6293 222.6271,248.9968 222.5848,249.3645 222.5459,249.7324 222.5104,250.1004 222.4784,250.4685 222.4498,250.8366 222.4246,251.2049 222.4029,251.5732 222.3845,251.9414 222.3696,252.3097 222.3581,252.678 222.3499,253.0461 222.3451,253.4142 222.3438,253.7822 222.3457,254.1501 222.3511,254.5179 222.3598,254.8854 222.3719,255.2528 222.3873,255.6199 222.4061,255.9869 222.4282,256.3535 222.4537,256.7199 222.4825,257.0859 222.5145,257.4517 222.55,257.8171 222.5887,258.1821 222.6307,258.5467 222.676,258.9108 222.7246,259.2746 222.7765,259.6378 222.8317,260.0006 222.8902,260.3629 222.9519,260.7246 223.0169,261.0858 223.0851,261.4463 223.1566,261.8063 223.2313,262.1657 223.3093,262.5244 223.3905,262.8824 223.4749,263.2397 223.5626,263.5963 223.6534,263.9522 223.7475,264.3073 223.8448,264.6616 223.9453,265.0151 224.0489,265.3678 224.1558,265.7196 224.2658,266.0705 224.379,266.4206 224.4954,266.7697 224.6149,267.1178 224.7376,267.465 224.8634,267.8112 224.9924,268.1564 225.1245,268.5005 225.2598,268.8436 225.3982,269.1855 225.5397,269.5264 225.6843,269.8661 225.832,270.2047 225.9828,270.5421 226.1367,270.8783 226.2938,271.2133 226.4538,271.5471 226.617,271.8795 226.7833,272.2107 226.9526,272.5406 227.1249,272.8691 227.3004,273.1963 227.4789,273.522 227.6604,273.8464 227.8449,274.1694 228.0325,274.4909 228.2231,274.8109 228.4168,275.1294 228.6134,275.4464 228.8131,275.7618 229.0157,276.0757 229.2214,276.388 229.43,276.6987 229.6417,277.0078 229.8563,277.3151 230.0738,277.6209 230.2944,277.925 230.5179,278.2272 230.7444,278.5278 230.9738,278.8265 231.2061,279.1235 231.4414,279.4186 231.6796,279.7119 231.9208,280.0034 232.1648,280.2929 232.4118,280.5805 232.6617,280.8662 232.9145,281.15 233.1702,281.4318 233.4287,281.7115 233.6902,281.9893 233.9545,282.265 234.2217,282.5386 234.4918,282.8101 234.7647,283.0795 235.0405,283.3468 235.3191,283.6119 235.6006,283.8749 235.8849,284.1356 236.172,284.3941 236.462,284.6503 236.7548,284.9043 237.0504,285.1559 237.3488,285.4053 237.65,285.6523 237.954,285.8969 238.2608,286.1391 238.5703,286.379 238.8827,286.6163 239.1978,286.8513 239.5157,287.0837 239.8363,287.3136 240.1597,287.5411 240.4859,287.7659 240.8148,287.9882 241.1464,288.2079 241.4807,288.4249 241.8178,288.6394 242.1576,288.8511 242.5001,289.0602 242.8386,289.2621 243.1784,289.4604 243.5193,289.6551 243.8615,289.8462 244.2048,290.0337 244.5492,290.2175 244.8948,290.3978 245.2415,290.5745 245.5892,290.7476 245.938,290.9171 246.2877,291.083 246.6385,291.2453 246.9903,291.4041 247.3431,291.5592 247.6967,291.7108 248.0513,291.8588 248.4068,292.0033 248.7631,292.1442 249.1203,292.2815 249.4783,292.4152 249.8371,292.5454 250.1966,292.6721 250.557,292.7951 250.918,292.9147 251.2798,293.0307 251.6422,293.1431 252.0054,293.252 252.3691,293.3574 252.7335,293.4592 253.0984,293.5575 253.464,293.6523 253.8301,293.7436 254.1967,293.8313 254.5638,293.9155 254.9314,293.9962 255.2994,294.0733 255.6679,294.147 256.0368,294.2172 256.4061,294.2838 256.7758,294.3469 257.1458,294.4066 257.5161,294.4627 257.8868,294.5154 258.2577,294.5645 258.6288,294.6102 259.0002,294.6524 259.3718,294.6911 259.7436,294.7263 260.1156,294.7581 260.4877,294.7863 260.8599,294.8111 261.2322,294.8325 261.6046,294.8503 261.9771,294.8648 262.3495,294.8757 262.722,294.8832 263.0945,294.8872 263.4669,294.8878 263.8393,294.8849 264.2115,294.8786 264.5837,294.8689 264.9557,294.8557 265.3276,294.8391 265.6993,294.819 266.0708,294.7955 266.4421,294.7686 266.8132,294.7383 267.1839,294.7045 267.5544,294.6673 267.9246,294.6267 268.2945,294.5827 268.664,294.5353 269.0331,294.4845 269.4018,294.4302 269.7701,294.3726 270.1379,294.3116 270.5053,294.2472 270.8722,294.1793 271.2385,294.1081 271.6044,294.0335 271.9696,293.9556 272.3343,293.8742 272.6984,293.7895 273.0618,293.7014 273.4246,293.6099 273.7868,293.515 274.1482,293.4168 274.5089,293.3152 274.8689,293.2103 275.2281,293.102 275.5865,292.9903 275.9441,292.8753 276.3009,292.7569 276.6568,292.6352 277.0119,292.5102 277.366,292.3818 277.7193,292.2501 278.0716,292.115 278.423,291.9766 278.7733,291.8349 279.1226,291.6899 279.4709,291.5415 279.8181,291.3898 280.1642,291.2348 280.5093,291.0765 280.8532,290.9149 281.1959,290.7499 281.5375,290.5817 281.8779,290.4101 282.2171,290.2353 282.555,290.0572 282.8917,289.8757 283.2271,289.691 283.5612,289.503 283.8939,289.3117 284.2253,289.1171 284.5554,288.9192 284.884,288.7181 285.2112,288.5137 285.537,288.306 285.8613,288.0951 286.1841,287.8809 286.5054,287.6634 286.8252,287.4426 287.1434,287.2187 287.46,286.9914 287.775,286.7609 288.0884,286.5272 288.4002,286.2902 288.7097,286.0505 289.0165,285.8088 289.3207,285.5649 289.6222,285.319 289.921,285.0709 290.2172,284.8209 290.5106,284.5687 290.8013,284.3146 291.0893,284.0584 291.3746,283.8002 291.6571,283.54 291.9369,283.2778 292.214,283.0136 292.4883,282.7474 292.7599,282.4793 293.0286,282.2092 293.2947,281.9372 293.5579,281.6633 293.8183,281.3874 294.076,281.1096 294.3308,280.8299 294.5828,280.5484 294.832,280.265 295.0784,279.9797 295.322,279.6925 295.5627,279.4035 295.8005,279.1127 296.0355,278.8201 296.2676,278.5256 296.4969,278.2293 296.7233,277.9313 296.9468,277.6314 297.1673,277.3298 297.385,277.0265 297.5998,276.7214 297.8117,276.4145 298.0206,276.106 298.2266,275.7957 298.4297,275.4838 298.6298,275.1701 298.827,274.8548 299.0212,274.5378 299.2124,274.2191 299.4006,273.8988 299.5859,273.5769 299.7682,273.2533 299.9474,272.9282 300.1237,272.6014 300.297,272.273 300.4672,271.943 300.6344,271.6115 300.7985,271.2784 300.9596,270.9438 301.1177,270.6076 301.2727,270.2699 301.4246,269.9307 301.5735,269.5899 301.7192,269.2477 301.8619,268.904 302.0015,268.5588 302.138,268.2122 302.2713,267.8641 302.4016,267.5145 302.5287,267.1636 302.6527,266.8112 302.7735,266.4574 302.8912,266.1022 303.0057,265.7456 303.1171,265.3877 303.2252,265.0283 303.3302,264.6677 303.4321,264.3057 303.5307,263.9423 303.6261,263.5776 303.7183,263.2117 303.8073,262.8444 303.893,262.4758 303.9755,262.106 304.0548,261.7348 304.1309,261.3625 304.2036,260.9889 304.2732,260.614 304.3394,260.2379 304.4024,259.8606 304.462,259.4821 304.5184,259.1025 304.5715,258.7216 304.6213,258.3396 304.6677,257.9564 304.7108,257.572 304.7506,257.1866 304.7871,256.8 304.8202,256.4123 304.85,256.0234 304.8764,255.6335 304.8994,255.2425 304.9191,254.8505 304.9353,254.4573 304.9482,254.0632 304.9577,253.6679 304.9637,253.2717 304.9664,252.8744 304.9656,252.4762 304.9614,252.0769 304.9538,251.6766 304.9427,251.2754 304.9282,250.8732 304.9102,250.4701 304.7125,250.0368"/>
    <polyline points="377.9528,281.6726 377.8967,281.7116 377.5866,281.9278 377.2767,282.1443 376.967,282.3611 376.6575,282.5782 376.3482,282.7956 376.0391,283.0132 375.7302,283.2312 375.4216,283.4495 375.1131,283.6681 374.8049,283.887 374.4969,284.1062 374.1891,284.3257 373.8815,284.5455 373.5742,284.7656 373.267,284.9859 372.9601,285.2066 372.6533,285.4276 372.3468,285.6489 372.0405,285.8705 371.7344,286.0924 371.4286,286.3145 371.1229,286.537 370.8175,286.7598 370.5123,286.9829 370.2073,287.2062 369.9025,287.4299 369.5979,287.6539 369.2936,287.8781 368.9895,288.1027 368.6856,288.3275 368.3819,288.5527 368.0784,288.7781 367.7752,289.0038 367.4721,289.2299 367.1693,289.4562 366.8667,289.6828 366.5644,289.9097 366.2622,290.1369 365.9603,290.3644 365.6586,290.5922 365.3571,290.8203 365.0559,291.0487 364.7548,291.2774 364.454,291.5063 364.1534,291.7356 363.853,291.9652 363.5529,292.195 363.253,292.4251 362.9533,292.6556 362.6538,292.8863 362.3546,293.1173 362.0555,293.3486 361.7567,293.5802 361.4582,293.8121 361.1598,294.0443 360.8617,294.2767 360.5638,294.5095 360.2661,294.7425 359.9687,294.9759 359.6715,295.2095 359.3745,295.4434 359.0777,295.6776 358.7812,295.9121 358.4849,296.1469 358.1888,296.3819 357.893,296.6173 357.5974,296.8529 357.302,297.0889 357.0068,297.3251 356.7119,297.5616 356.4172,297.7984 356.1228,298.0355 355.8285,298.2728 355.5345,298.5105 355.2408,298.7484 354.9472,298.9866 354.6539,299.2252 354.3608,299.4639 354.068,299.703 353.7754,299.9424 353.483,300.182 353.1909,300.422 352.899,300.6622 352.6073,300.9027 352.3158,301.1435 352.0246,301.3846 351.7337,301.6259 351.4429,301.8675 351.1524,302.1095 350.8622,302.3517 350.5721,302.5941 350.2823,302.8369 349.9928,303.08 349.7034,303.3233 349.4144,303.5669 349.1255,303.8108 348.8369,304.055 348.5485,304.2994 348.2604,304.5442 347.9725,304.7892 347.6849,305.0345 347.3974,305.28 347.1103,305.5259 346.8233,305.772 346.5366,306.0184 346.2502,306.2651 345.9639,306.5121 345.678,306.7594 345.3922,307.0069 345.1067,307.2547 344.8215,307.5028 344.5365,307.7511 344.2517,307.9998 343.9672,308.2487 343.6829,308.4979 343.3988,308.7473 343.115,308.9971 342.8315,309.2471 342.5481,309.4974 342.2651,309.748 341.9822,309.9988 341.6997,310.2499 341.4173,310.5013 341.1352,310.753 340.8534,311.005 340.5718,311.2572 340.2904,311.5097 340.0093,311.7624 339.7284,312.0155 339.4478,312.2688 339.1674,312.5224 338.8873,312.7762 338.6074,313.0304 338.3278,313.2848 338.0484,313.5395 337.7693,313.7944 337.4904,314.0496 337.2118,314.3051 336.9334,314.5609 336.6552,314.8169 336.3773,315.0732 336.0997,315.3298 335.8223,315.5866 335.5452,315.8438 335.2683,316.1011 334.9916,316.3588 334.7152,316.6167 334.4391,316.8749 334.1632,317.1334 333.8876,317.3921 333.6122,317.6511 333.3371,317.9104 333.0622,318.1699 332.7875,318.4297 332.5132,318.6898 332.2391,318.9501 331.9652,319.2107 331.6916,319.4716 331.4182,319.7327 331.1451,319.9941 330.8723,320.2558 330.5997,320.5177 330.3273,320.7799 330.0552,321.0423 329.7834,321.3051 329.5118,321.5681 329.2405,321.8313 328.9694,322.0948 328.6986,322.3586 328.4281,322.6227 328.1578,322.887 327.8878,323.1515 327.618,323.4164 327.3485,323.6815 327.0792,323.9468 326.8102,324.2124 326.5415,324.4783 326.273,324.7445 326.0048,325.0109 325.7368,325.2775 325.4691,325.5445 325.2016,325.8116 324.9345,326.0791 324.6675,326.3468 324.4009,326.6148 324.1345,326.883 323.8683,327.1515 323.6024,327.4202 323.3368,327.6892 323.0715,327.9585 322.8064,328.228 322.5415,328.4978 322.277,328.7678 322.0127,329.0381 321.7486,329.3086 321.4848,329.5794 321.2213,329.8505 320.9581,330.1218 320.6951,330.3934 320.4323,330.6652 320.1699,330.9373 319.9077,331.2097 319.6458,331.4823 319.3841,331.7551 319.1227,332.0282 318.8616,332.3016 318.6007,332.5752 318.3401,332.8491 318.0798,333.1232 317.8197,333.3975 317.5599,333.6722 317.3004,333.9471 317.0411,334.2222 316.7821,334.4976 316.5234,334.7732 316.2649,335.0491 316.0067,335.3252 315.7488,335.6016 315.4911,335.8783 315.2338,336.1552 314.9766,336.4323 314.7198,336.7097 314.4632,336.9873 314.2069,337.2652 313.9509,337.5434 313.6951,337.8218 313.4396,338.1004 313.1844,338.3793 312.9295,338.6584 312.6748,338.9378 312.4204,339.2174 312.1662,339.4973 311.9124,339.7774 311.6588,340.0578 311.4055,340.3384 311.1524,340.6193 310.8997,340.9004 310.6472,341.1818 310.395,341.4634 310.143,341.7452 309.8913,342.0273 309.6399,342.3097 309.3888,342.5922 309.138,342.8751 308.8874,343.1581 308.6371,343.4415 308.3871,343.725 308.1373,344.0088 307.8879,344.2929 307.6387,344.5772 307.3898,344.8617 307.1411,345.1465 306.8928,345.4315 306.6447,345.7167 306.3969,346.0022 306.1494,346.288 305.9021,346.5739 305.6551,346.8602 305.4084,347.1466 305.162,347.4333 304.9159,347.7203 304.67,348.0074 304.4245,348.2949 304.1792,348.5825 303.9342,348.8704 303.6894,349.1585 303.445,349.4469 303.2008,349.7355 302.9569,350.0244 302.7133,350.3134 302.47,350.6028 302.2269,350.8923 301.9841,351.1821 301.7417,351.4722 301.4995,351.7624 301.2575,352.0529 301.0159,352.3437 300.7746,352.6346 300.5335,352.9258 300.2927,353.2173 300.0522,353.509 299.812,353.8009 299.572,354.093 299.3324,354.3854 299.093,354.678 298.8539,354.9708 298.6152,355.2639 298.3766,355.5572 298.1384,355.8508 297.9005,356.1445 297.6628,356.4385 297.4255,356.7328 297.1884,357.0272 296.9516,357.3219 296.7151,357.6168 296.4789,357.912 296.2429,358.2074 296.0073,358.503 295.7719,358.7988 295.5369,359.0949 295.3021,359.3912 295.0676,359.6877 294.8334,359.9845 294.5995,360.2815 294.3659,360.5787 294.1325,360.8761 293.8995,361.1738 293.6667,361.4717 293.4343,361.7698 293.2021,362.0682 292.9702,362.3667 292.7386,362.6655 292.5073,362.9646 292.2763,363.2638 292.0456,363.5633 291.8151,363.863 291.585,364.1629 291.3552,364.463 291.1256,364.7634 290.8963,365.064 290.6674,365.3648 290.4387,365.6659 290.2103,365.9671 289.9822,366.2686 289.7544,366.5703 289.5269,366.8722 289.2997,367.1744 289.0728,367.4767 288.8462,367.7793 288.6199,368.0821 288.3938,368.3852 288.1681,368.6884 287.9427,368.9919 287.7175,369.2956 287.4927,369.5995 287.2681,369.9036 287.0439,370.2079 286.8199,370.5125 286.5962,370.8173 286.3729,371.1223 286.1498,371.4275 285.927,371.7329 285.7045,372.0386 285.4824,372.3444 285.2605,372.6505 285.0389,372.9568 284.8176,373.2633 284.5966,373.5701 284.3759,373.877 284.1556,374.1842 283.9355,374.4915 283.7157,374.7991 283.4962,375.1069 283.277,375.4149 283.0581,375.7231 282.8395,376.0316 282.6212,376.3402 282.4032,376.6491 282.1856,376.9582 281.9682,377.2675 281.7511,377.577 281.5343,377.8867 281.4881,377.9528"/>
    <polyline points="234.0801,347.6802 221.8901,340.1702 221.4459,340.0981 221.0801,340.3602 199.5601,375.2402 199.2042,375.503 198.7701,375.4502 185.2601,367.8602 185.0299,367.5541 185.0901,367.1702 203.9501,336.6102 204.0184,336.1927 203.7701,335.8502 191.6001,328.3502 191.2264,328.2342 190.8452,328.3222 190.5601,328.5902 171.1201,360.1102 170.6501,360.2302 157.6401,352.9202 157.371,352.6572 157.2686,352.2952 157.3601,351.9302 157.5251,351.6362 157.6907,351.3418 157.8569,351.0467 158.0237,350.7512 158.1912,350.4551 158.3592,350.1585 158.5279,349.8613 158.6972,349.5637 158.867,349.2655 159.0375,348.9667 159.2087,348.6675 159.3804,348.3677 159.5527,348.0673 159.7257,347.7665 159.8992,347.4651 160.0734,347.1632 160.2482,346.8607 160.4236,346.5577 160.5996,346.2542 160.7762,345.9502 160.9534,345.6456 161.1313,345.3405 161.3097,345.0348 161.4888,344.7287 161.6685,344.422 161.8487,344.1148 162.0296,343.807 162.2112,343.4987 162.3933,343.1899 162.576,342.8805 162.7594,342.5706 162.9433,342.2602 163.1279,341.9493 163.3131,341.6378 163.4989,341.3258 163.6853,341.0133 163.8723,340.7002 164.06,340.3866 164.2482,340.0725 164.4371,339.7578 164.6265,339.4426 164.8166,339.1269 165.0073,338.8106 165.1986,338.4939 165.3905,338.1765 165.5831,337.8587 165.7762,337.5403 165.9699,337.2214 166.1643,336.902 166.3593,336.582 166.5549,336.2615 166.7511,335.9405 166.9479,335.6189 167.1453,335.2968 167.3434,334.9742 167.542,334.6511 167.7413,334.3274 167.9411,334.0032 168.1416,333.6784 168.3427,333.3531 168.5444,333.0273 168.7467,332.701 168.9497,332.3741 169.1532,332.0467 169.3574,331.7188 169.5621,331.3903 169.7675,331.0613 169.9735,330.7318 170.1801,330.4018 170.3873,330.0712 170.5952,329.7401 170.8036,329.4084 171.0127,329.0762 171.2223,328.7435 171.4326,328.4103 171.6435,328.0765 171.855,327.7422 172.0671,327.4074 172.2798,327.072 172.4932,326.7361 172.7071,326.3997 172.9217,326.0628 173.1368,325.7253 173.3526,325.3873 173.569,325.0487 173.786,324.7096 174.0036,324.37 174.2219,324.0299 174.4407,323.6892 174.6602,323.348 174.8802,323.0063 175.1009,322.664 175.3222,322.3212 175.5441,321.9779 175.7666,321.6341 175.9898,321.2897 176.2135,320.9448 176.4378,320.5993 176.6628,320.2533 176.8884,319.9068 177.1146,319.5598 177.3414,319.2122 177.5688,318.8641 177.7968,318.5155 178.0254,318.1663 178.2547,317.8166 178.4845,317.4664 178.715,317.1156 178.9461,316.7644 179.1778,316.4125 179.4101,316.0602 179.482,315.6496 179.2401,315.3102 167.0101,307.7702 166.531,307.6843 166.1301,307.9602 165.9343,308.2635 165.7385,308.5671 165.5427,308.871 165.347,309.1752 165.1513,309.4797 164.9556,309.7845 164.76,310.0895 164.5643,310.3949 164.3687,310.7005 164.1732,311.0065 163.9776,311.3127 163.7821,311.6192 163.5866,311.926 163.3911,312.2332 163.1956,312.5406 163.0002,312.8483 162.8048,313.1563 162.6094,313.4645 162.4141,313.7731 162.2188,314.082 162.0235,314.3911 161.8282,314.7006 161.633,315.0103 161.4377,315.3204 161.2425,315.6307 161.0474,315.9413 160.8522,316.2522 160.6571,316.5634 160.462,316.8749 160.267,317.1867 160.0719,317.4988 159.8769,317.8112 159.6819,318.1239 159.4869,318.4368 159.292,318.7501 159.0971,319.0636 158.9022,319.3775 158.7073,319.6916 158.5125,320.006 158.3177,320.3207 158.1229,320.6357 157.9282,320.951 157.7334,321.2666 157.5387,321.5825 157.344,321.8987 157.1494,322.2152 156.9547,322.5319 156.7601,322.849 156.5656,323.1663 156.371,323.484 156.1765,323.8019 155.982,324.1201 155.7875,324.4386 155.593,324.7574 155.3986,325.0765 155.2042,325.3959 155.0098,325.7156 154.8155,326.0356 154.6212,326.3559 154.4269,326.6764 154.2326,326.9973 154.0384,327.3184 153.8441,327.6399 153.6499,327.9616 153.4558,328.2836 153.2616,328.606 153.0675,328.9286 152.8734,329.2515 152.6794,329.5747 152.4853,329.8982 152.2913,330.2219 152.0973,330.546 151.9033,330.8704 151.7094,331.195 151.5155,331.52 151.3216,331.8452 151.1277,332.1708 150.9339,332.4966 150.7401,332.8227 150.5463,333.1491 150.3526,333.4758 150.1588,333.8028 149.9651,334.1301 149.7714,334.4577 149.5778,334.7856 149.3841,335.1137 149.1905,335.4422 148.997,335.7709 148.8034,336.1 148.6099,336.4293 148.4164,336.7589 148.2229,337.0889 148.0294,337.4191 147.836,337.7496 147.6426,338.0804 147.4492,338.4115 147.2559,338.7429 147.0626,339.0745 146.8693,339.4065 146.676,339.7388 146.4828,340.0713 146.2895,340.4042 146.0963,340.7373 145.9032,341.0707 145.71,341.4044 145.5169,341.7385 145.3238,342.0728 145.1308,342.4074 144.9377,342.7423 144.7447,343.0774 144.5517,343.4129 144.3587,343.7487 144.1658,344.0848 143.9729,344.4211 143.78,344.7578 143.5871,345.0947 143.3943,345.4319 143.2015,345.7695 143.0087,346.1073 142.816,346.4454 142.6232,346.7838 142.4305,347.1225 142.2378,347.4615 142.0452,347.8007 141.8525,348.1403 141.6599,348.4802 141.4674,348.8203 141.2748,349.1608 141.0823,349.5015 140.8898,349.8426 140.6973,350.1839 140.5048,350.5255 140.3124,350.8674 140.12,351.2096 139.9276,351.5521 139.7353,351.8949 139.543,352.238 139.3507,352.5813 139.1584,352.925 138.9662,353.269 138.7739,353.6132 138.5817,353.9578 138.3896,354.3026 138.1974,354.6477 138.0053,354.9931 137.8132,355.3388 137.6211,355.6849 137.4291,356.0312 137.2371,356.3777 137.0451,356.7246 136.8531,357.0718 136.6612,357.4193 136.4693,357.767 136.2774,358.1151 136.0855,358.4634 135.8937,358.8121 135.7019,359.161 135.5101,359.5102 135.4611,359.9544 135.7401,360.3102 167.1414,377.9528"/>
    <polyline points="215.8864,377.9528 216.0762,377.6269 216.2667,377.3001 216.4575,376.9734 216.6485,376.6469 216.8396,376.3206 217.031,375.9944 217.2226,375.6683 217.4144,375.3424 217.6064,375.0167 217.7986,374.6911 217.991,374.3656 218.1836,374.0403 218.3764,373.7151 218.5694,373.3901 218.7626,373.0652 218.956,372.7405 219.1496,372.4159 219.3434,372.0914 219.5375,371.7672 219.7317,371.443 219.9261,371.119 220.1208,370.7952 220.3156,370.4715 220.5106,370.1479 220.7059,369.8245 220.9013,369.5012 221.097,369.1781 221.2928,368.8551 221.4889,368.5323 221.6851,368.2096 221.8816,367.8871 222.0783,367.5647 222.2751,367.2425 222.4722,366.9204 222.6695,366.5984 222.867,366.2766 223.0646,365.955 223.2625,365.6335 223.4606,365.3121 223.6589,364.9909 223.8574,364.6699 224.0561,364.3489 224.255,364.0282 224.4541,363.7076 224.6534,363.3871 224.8529,363.0667 225.0526,362.7466 225.2525,362.4265 225.4527,362.1066 225.653,361.7869 225.8535,361.4673 226.0542,361.1478 226.2552,360.8285 226.4563,360.5094 226.6577,360.1904 226.8592,359.8715 227.0609,359.5528 227.2629,359.2342 227.465,358.9158 227.6674,358.5975 227.87,358.2794 228.0727,357.9614 228.2757,357.6436 228.4789,357.3259 228.6822,357.0084 228.8858,356.691 229.0896,356.3737 229.2936,356.0566 229.4978,355.7397 229.7021,355.4229 229.9067,355.1062 230.1115,354.7897 230.3165,354.4733 230.5217,354.1571 230.7271,353.841 230.9327,353.5251 231.1385,353.2093 231.3446,352.8937 231.5508,352.5782 231.7572,352.2628 231.9638,351.9476 232.1707,351.6326 232.3777,351.3177 232.5849,351.0029 232.7924,350.6883 233.0,350.3739 233.2078,350.0596 233.4159,349.7454 233.6241,349.4314 233.8326,349.1175 234.0412,348.8038 234.2501,348.4902 234.335,348.0495 234.0801,347.6802"/>
    <line x1="197.0579" x2="183.7736" y1="184.3736" y2="197.6579"/>
    <line x1="158.0159" x2="225.4881" y1="226.0881" y2="158.6159"/>
    <line x1="240.284" x2="145.8925" y1="146.4925" y2="240.884"/>
    <line x1="136.8533" x2="251.9957" y1="252.5957" y2="137.4534"/>
    <line x1="262.0372" x2="129.4844" y1="130.0844" y2="262.6372"/>
    <line x1="123.1246" x2="271.0695" y1="271.6695" y2="123.7246"/>
    <line x1="279.4436" x2="117.4232" y1="118.0232" y2="280.0436"/>
    <line x1="112.4759" x2="287.0633" y1="287.6633" y2="113.0759"/>
    <line x1="294.3049" x2="107.9069" y1="108.5069" y2="294.9049"/>
    <line x1="103.6378" x2="301.2465" y1="301.8465" y2="104.2378"/>
    <line x1="307.7365" x2="99.8204" y1="100.4204" y2="308.3365"/>
    <line x1="96.1026" x2="314.1268" y1="314.7268" y2="96.7026"/>
    <line x1="320.1032" x2="92.7987" y1="93.3987" y2="320.7032"/>
    <line x1="89.5384" x2="326.036" y1="326.636" y2="90.1384"/>
    <line x1="331.6539" x2="86.593" y1="87.193" y2="332.2539"/>
    <line x1="83.719" x2="337.2004" y1="337.8004" y2="84.319"/>
    <line x1="342.5642" x2="81.0277" y1="81.6277" y2="343.1642"/>
    <line x1="78.4847" x2="347.7797" y1="348.3797" y2="79.0847"/>
    <line x1="352.9619" x2="75.9751" y1="76.5751" y2="353.5619"/>
    <line x1="73.7191" x2="357.8904" y1="358.4904" y2="74.3191"/>
    <line x1="362.8189" x2="71.4631" y1="72.0631" y2="363.4189"/>
    <line x1="69.3355" x2="367.6191" y1="368.2191" y2="69.9355"/>
    <line x1="372.296" x2="67.3311" y1="67.9311" y2="372.896"/>
    <line x1="65.3267" x2="376.9729" y1="377.5729" y2="65.9267"/>
    <line x1="377.9528" x2="67.6195" y1="67.6195" y2="377.9528"/>
    <line x1="70.292" x2="377.9528" y1="377.9528" y2="70.292"/>
    <line x1="377.9528" x2="72.9645" y1="72.9645" y2="377.9528"/>
    <line x1="75.6371" x2="377.9528" y1="377.9528" y2="75.6371"/>
    <line x1="377.9528" x2="78.3096" y1="78.3096" y2="377.9528"/>
    <line x1="80.9821" x2="377.9528" y1="377.9528" y2="80.9821"/>
    <line x1="377.9528" x2="244.7335" y1="83.6546" y2="216.8738"/>
    <line x1="83.6546" x2="227.7217" y1="377.9528" y2="233.8856"/>
    <line x1="377.9528" x2="250.1916" y1="86.3272" y2="214.0882"/>
    <line x1="86.3272" x2="225.2064" y1="377.9528" y2="239.0734"/>
    <line x1="377.9528" x2="254.3152" y1="88.9997" y2="212.6372"/>
    <line x1="88.9997" x2="223.8478" y1="377.9528" y2="243.1046"/>
    <line x1="377.9528" x2="292.89" y1="91.6723" y2="176.735"/>
    <line x1="257.8454" x2="284.6865" y1="211.7795" y2="184.9385"/>
    <line x1="223.0522" x2="91.6723" y1="246.5727" y2="377.9528"/>
    <line x1="298.2923" x2="377.9528" y1="174.0053" y2="94.3448"/>
    <line x1="285.7833" x2="261.0618" y1="186.5142" y2="211.2356"/>
    <line x1="94.3448" x2="222.586" y1="377.9528" y2="249.7115"/>
    <line x1="377.9528" x2="299.3891" y1="97.0172" y2="175.581"/>
    <line x1="264.0377" x2="286.8801" y1="210.9323" y2="188.09"/>
    <line x1="222.3824" x2="167.1275" y1="252.5876" y2="307.8426"/>
    <line x1="97.0172" x2="164.7007" y1="377.9528" y2="310.2694"/>
    <line x1="377.9528" x2="300.4859" y1="99.6898" y2="177.1567"/>
    <line x1="265.1774" x2="287.977" y1="212.4651" y2="189.6657"/>
    <line x1="222.4261" x2="168.7808" y1="255.2165" y2="308.8618"/>
    <line x1="99.6898" x2="160.3586" y1="377.9528" y2="317.284"/>
    <line x1="377.9528" x2="301.5827" y1="102.3623" y2="178.7324"/>
    <line x1="265.41" x2="289.0738" y1="214.905" y2="191.2414"/>
    <line x1="222.5656" x2="170.434" y1="257.7494" y2="309.8811"/>
    <line x1="102.3624" x2="156.0166" y1="377.9528" y2="324.2986"/>
    <line x1="377.9528" x2="331.9632" y1="105.0348" y2="151.0244"/>
    <line x1="302.6795" x2="328.1991" y1="180.3081" y2="154.7886"/>
    <line x1="290.1706" x2="265.6427" y1="192.8171" y2="217.3449"/>
    <line x1="242.4837" x2="250.3677" y1="240.5039" y2="232.6199"/>
    <line x1="222.8949" x2="172.0873" y1="260.0927" y2="310.9004"/>
    <line x1="105.0349" x2="151.6745" y1="377.9528" y2="331.3132"/>
    <line x1="377.9528" x2="337.7774" y1="107.7074" y2="147.8828"/>
    <line x1="303.7763" x2="329.2187" y1="181.8839" y2="156.4415"/>
    <line x1="291.2675" x2="265.8754" y1="194.3928" y2="219.7847"/>
    <line x1="240.4948" x2="255.459" y1="245.1653" y2="230.2011"/>
    <line x1="223.3095" x2="173.7406" y1="262.3506" y2="311.9196"/>
    <line x1="107.7074" x2="147.9521" y1="377.9528" y2="337.7081"/>
    <line x1="377.9528" x2="342.8926" y1="110.38" y2="145.4402"/>
    <line x1="304.8732" x2="330.2383" y1="183.4596" y2="158.0944"/>
    <line x1="292.3643" x2="266.108" y1="195.9685" y2="222.2246"/>
    <line x1="239.7062" x2="259.2024" y1="248.6264" y2="229.1302"/>
    <line x1="223.8409" x2="175.3938" y1="264.4918" y2="312.9389"/>
    <line x1="110.3799" x2="144.3996" y1="377.9528" y2="343.9331"/>
    <line x1="377.9528" x2="343.9121" y1="113.0525" y2="147.0932"/>
    <line x1="305.97" x2="331.2579" y1="185.0353" y2="159.7473"/>
    <line x1="293.4611" x2="266.3407" y1="197.5442" y2="224.6645"/>
    <line x1="239.452" x2="262.4816" y1="251.5531" y2="228.5235"/>
    <line x1="224.4625" x2="177.0471" y1="266.5426" y2="313.9582"/>
    <line x1="113.0524" x2="140.8471" y1="377.9528" y2="350.1581"/>
    <line x1="377.9528" x2="344.9316" y1="115.7249" y2="148.7461"/>
    <line x1="307.0668" x2="332.2776" y1="186.611" y2="161.4002"/>
    <line x1="294.5579" x2="266.5733" y1="199.1199" y2="227.1044"/>
    <line x1="239.5154" x2="265.6254" y1="254.1623" y2="228.0523"/>
    <line x1="225.1714" x2="178.7004" y1="268.5063" y2="314.9774"/>
    <line x1="115.725" x2="137.2946" y1="377.9528" y2="356.3832"/>
    <line x1="377.9528" x2="345.9512" y1="118.3975" y2="150.3991"/>
    <line x1="308.1636" x2="333.2972" y1="188.1867" y2="163.0531"/>
    <line x1="295.6548" x2="239.9319" y1="200.6956" y2="256.4183"/>
    <line x1="177.8579" x2="225.9576" y1="318.4924" y2="270.3926"/>
    <line x1="135.9322" x2="118.3975" y1="360.4181" y2="377.9528"/>
    <line x1="346.9707" x2="377.9528" y1="152.0521" y2="121.07"/>
    <line x1="334.3168" x2="309.2604" y1="164.7061" y2="189.7625"/>
    <line x1="240.4504" x2="296.7516" y1="258.5723" y2="202.2713"/>
    <line x1="226.8275" x2="173.144" y1="272.1952" y2="325.8788"/>
    <line x1="121.07" x2="137.6433" y1="377.9528" y2="361.3795"/>
    <line x1="377.9528" x2="347.9903" y1="123.7426" y2="153.7051"/>
    <line x1="310.3572" x2="335.3364" y1="191.3382" y2="166.359"/>
    <line x1="297.8484" x2="241.1678" y1="203.847" y2="260.5275"/>
    <line x1="168.4302" x2="227.7506" y1="333.2652" y2="273.9447"/>
    <line x1="139.3545" x2="123.7426" y1="362.3409" y2="377.9528"/>
    <line x1="349.0098" x2="377.9528" y1="155.3581" y2="126.4151"/>
    <line x1="336.356" x2="311.454" y1="168.0119" y2="192.9139"/>
    <line x1="241.9975" x2="298.9453" y1="262.3703" y2="205.4227"/>
    <line x1="228.7707" x2="164.4148" y1="275.5971" y2="339.9531"/>
    <line x1="126.4151" x2="141.0656" y1="377.9528" y2="363.3023"/>
    <line x1="377.9528" x2="350.0293" y1="129.0876" y2="157.0111"/>
    <line x1="312.5508" x2="337.3756" y1="194.4896" y2="169.6648"/>
    <line x1="300.0421" x2="242.9432" y1="206.9984" y2="264.0972"/>
    <line x1="160.5846" x2="229.8119" y1="346.4559" y2="277.2284"/>
    <line x1="142.7768" x2="129.0877" y1="364.2637" y2="377.9528"/>
    <line x1="351.0489" x2="377.9528" y1="158.6641" y2="131.7602"/>
    <line x1="338.3952" x2="313.6476" y1="171.3177" y2="196.0654"/>
    <line x1="244.0046" x2="301.1389" y1="265.7082" y2="208.5741"/>
    <line x1="230.976" x2="157.3047" y1="278.7369" y2="352.4083"/>
    <line x1="131.7602" x2="144.4879" y1="377.9528" y2="365.2251"/>
    <line x1="377.9528" x2="352.0684" y1="134.4327" y2="160.3171"/>
    <line x1="314.7444" x2="339.4149" y1="197.6411" y2="172.9706"/>
    <line x1="302.2357" x2="245.1482" y1="210.1498" y2="267.2372"/>
    <line x1="158.8087" x2="232.1401" y1="353.5768" y2="280.2454"/>
    <line x1="146.199" x2="134.4327" y1="366.1865" y2="377.9528"/>
    <line x1="353.088" x2="377.9528" y1="161.9701" y2="137.1053"/>
    <line x1="340.4345" x2="317.2792" y1="174.6236" y2="197.7789"/>
    <line x1="246.4036" x2="303.3326" y1="268.6543" y2="211.7255"/>
    <line x1="233.4275" x2="160.5198" y1="281.6306" y2="354.5382"/>
    <line x1="137.1053" x2="147.9102" y1="377.9528" y2="367.1478"/>
    <line x1="377.9528" x2="354.1075" y1="139.7778" y2="163.6231"/>
    <line x1="325.0385" x2="341.4541" y1="192.6921" y2="176.2765"/>
    <line x1="304.4294" x2="247.7298" y1="213.3012" y2="270.0007"/>
    <line x1="162.2309" x2="234.7328" y1="355.4997" y2="282.9978"/>
    <line x1="149.6213" x2="139.7778" y1="368.1092" y2="377.9528"/>
    <line x1="355.127" x2="377.9528" y1="165.2761" y2="142.4503"/>
    <line x1="342.4737" x2="332.8042" y1="177.9294" y2="187.5989"/>
    <line x1="249.1656" x2="305.5262" y1="271.2373" y2="214.8769"/>
    <line x1="236.1161" x2="191.8802" y1="284.287" y2="328.5228"/>
    <line x1="163.942" x2="188.544" y1="356.4611" y2="331.8591"/>
    <line x1="151.3325" x2="142.4503" y1="369.0706" y2="377.9528"/>
    <line x1="356.1466" x2="377.9528" y1="166.9291" y2="145.1229"/>
    <line x1="343.4933" x2="340.5798" y1="179.5823" y2="182.4958"/>
    <line x1="250.6707" x2="306.623" y1="272.4048" y2="216.4526"/>
    <line x1="237.563" x2="193.5338" y1="285.5126" y2="329.5419"/>
    <line x1="165.6531" x2="184.2432" y1="357.4225" y2="338.8324"/>
    <line x1="153.0436" x2="145.1229" y1="370.032" y2="377.9528"/>
    <line x1="357.1661" x2="377.9528" y1="168.582" y2="147.7954"/>
    <line x1="307.7199" x2="252.293" y1="218.0283" y2="273.4551"/>
    <line x1="195.1873" x2="239.0383" y1="330.5609" y2="286.7099"/>
    <line x1="179.9424" x2="167.3642" y1="345.8058" y2="358.3839"/>
    <line x1="147.7954" x2="154.7547" y1="377.9528" y2="370.9934"/>
    <line x1="377.9528" x2="358.1856" y1="150.4678" y2="170.235"/>
    <line x1="253.9844" x2="308.8167" y1="274.4362" y2="219.604"/>
    <line x1="240.6301" x2="196.8408" y1="287.7906" y2="331.5799"/>
    <line x1="169.0753" x2="175.6415" y1="359.3454" y2="352.7791"/>
    <line x1="156.4659" x2="150.4679" y1="371.9548" y2="377.9528"/>
    <line x1="359.2052" x2="377.9528" y1="171.888" y2="153.1404"/>
    <line x1="309.9135" x2="255.8203" y1="221.1797" y2="275.2728"/>
    <line x1="198.4943" x2="242.2219" y1="332.5989" y2="288.8713"/>
    <line x1="171.3407" x2="170.936" y1="359.7525" y2="360.1572"/>
    <line x1="153.1404" x2="158.177" y1="377.9528" y2="372.9162"/>
    <line x1="377.9528" x2="360.2247" y1="155.8129" y2="173.541"/>
    <line x1="257.7183" x2="311.0104" y1="276.0473" y2="222.7554"/>
    <line x1="243.9671" x2="200.1478" y1="289.7987" y2="333.6179"/>
    <line x1="155.813" x2="159.8882" y1="377.9528" y2="373.8776"/>
    <line x1="377.9528" x2="361.2443" y1="158.4855" y2="175.194"/>
    <line x1="259.8282" x2="312.1072" y1="276.6099" y2="224.3311"/>
    <line x1="245.7447" x2="201.8013" y1="290.6936" y2="334.6369"/>
    <line x1="158.4855" x2="161.5993" y1="377.9528" y2="374.839"/>
    <line x1="377.9528" x2="362.2638" y1="161.158" y2="176.847"/>
    <line x1="325.6518" x2="329.6428" y1="213.459" y2="209.468"/>
    <line x1="313.204" x2="262.023" y1="225.9068" y2="277.0877"/>
    <line x1="203.4549" x2="247.5223" y1="335.6559" y2="291.5885"/>
    <line x1="163.3105" x2="161.158" y1="375.8003" y2="377.9528"/>
    <line x1="363.2833" x2="377.9528" y1="178.5" y2="163.8305"/>
    <line x1="337.4473" x2="326.7486" y1="204.336" y2="215.0347"/>
    <line x1="291.9232" x2="314.3008" y1="249.8601" y2="227.4825"/>
    <line x1="288.8595" x2="264.4793" y1="252.9239" y2="277.304"/>
    <line x1="201.9786" x2="249.463" y1="339.8047" y2="292.3203"/>
    <line x1="165.0216" x2="163.8305" y1="376.7617" y2="377.9528"/>
    <line x1="364.3029" x2="377.9528" y1="180.153" y2="166.5031"/>
    <line x1="345.184" x2="327.8454" y1="199.2719" y2="216.6105"/>
    <line x1="294.5958" x2="315.3977" y1="249.8601" y2="229.0582"/>
    <line x1="288.5955" x2="267.2156" y1="255.8603" y2="277.2401"/>
    <line x1="197.6706" x2="251.4812" y1="346.7853" y2="292.9746"/>
    <line x1="166.7327" x2="166.503" y1="377.7231" y2="377.9528"/>
    <line x1="365.3224" x2="377.9528" y1="181.806" y2="169.1756"/>
    <line x1="352.6248" x2="328.9421" y1="194.5036" y2="218.1862"/>
    <line x1="297.2683" x2="316.4945" y1="249.8601" y2="230.6339"/>
    <line x1="287.9916" x2="270.3374" y1="259.1368" y2="276.7909"/>
    <line x1="193.3626" x2="253.4994" y1="353.7658" y2="293.6289"/>
    <line x1="377.9528" x2="366.3419" y1="171.8481" y2="183.459"/>
    <line x1="330.0389" x2="353.7528" y1="219.762" y2="196.0481"/>
    <line x1="317.5913" x2="299.9408" y1="232.2096" y2="249.8601"/>
    <line x1="274.2818" x2="286.6271" y1="275.519" y2="263.1738"/>
    <line x1="255.7386" x2="189.0545" y1="294.0623" y2="360.7464"/>
    <line x1="367.3615" x2="377.9528" y1="185.112" y2="174.5207"/>
    <line x1="354.7725" x2="331.1357" y1="197.7009" y2="221.3378"/>
    <line x1="302.6133" x2="318.6882" y1="249.8601" y2="233.7853"/>
    <line x1="258.0362" x2="185.0504" y1="294.4373" y2="367.423"/>
    <line x1="368.381" x2="377.9528" y1="186.765" y2="177.1932"/>
    <line x1="355.7923" x2="332.2325" y1="199.3537" y2="222.9135"/>
    <line x1="304.8368" x2="319.785" y1="250.3092" y2="235.361"/>
    <line x1="260.4014" x2="186.5571" y1="294.7446" y2="368.5889"/>
    <line x1="369.4006" x2="377.9528" y1="188.4179" y2="179.8657"/>
    <line x1="356.812" x2="333.3292" y1="201.0065" y2="224.4893"/>
    <line x1="304.8888" x2="320.8818" y1="252.9297" y2="236.9367"/>
    <line x1="263.0435" x2="188.2683" y1="294.775" y2="369.5502"/>
    <line x1="370.4201" x2="377.9528" y1="190.0709" y2="182.5382"/>
    <line x1="357.8318" x2="334.426" y1="202.6593" y2="226.065"/>
    <line x1="304.8654" x2="321.9786" y1="255.6257" y2="238.5124"/>
    <line x1="265.6856" x2="189.9795" y1="294.8054" y2="370.5116"/>
    <line x1="371.4396" x2="377.9528" y1="191.7239" y2="185.2108"/>
    <line x1="358.8515" x2="335.5228" y1="204.312" y2="227.6408"/>
    <line x1="304.5012" x2="323.0755" y1="258.6624" y2="240.0881"/>
    <line x1="268.7524" x2="222.5728" y1="294.4112" y2="340.5908"/>
    <line x1="191.6906" x2="218.3043" y1="371.4729" y2="344.8593"/>
    <line x1="377.9528" x2="372.4592" y1="187.8833" y2="193.3769"/>
    <line x1="336.6196" x2="359.8713" y1="229.2165" y2="205.9648"/>
    <line x1="324.1723" x2="303.9842" y1="241.6638" y2="261.8519"/>
    <line x1="224.2265" x2="271.8584" y1="341.6096" y2="293.9776"/>
    <line x1="213.9994" x2="193.4018" y1="351.8366" y2="372.4343"/>
    <line x1="373.4787" x2="377.9528" y1="195.0299" y2="190.5559"/>
    <line x1="360.891" x2="337.7163" y1="207.6176" y2="230.7923"/>
    <line x1="303.073" x2="325.2691" y1="265.4356" y2="243.2395"/>
    <line x1="275.6413" x2="225.8802" y1="292.8673" y2="342.6284"/>
    <line x1="195.113" x2="209.6946" y1="373.3956" y2="358.814"/>
    <line x1="374.4982" x2="377.9528" y1="196.6829" y2="193.2284"/>
    <line x1="361.9108" x2="338.8131" y1="209.2704" y2="232.3681"/>
    <line x1="301.467" x2="326.366" y1="269.7141" y2="244.8152"/>
    <line x1="279.9882" x2="227.5339" y1="291.1931" y2="343.6472"/>
    <line x1="196.8242" x2="205.3897" y1="374.357" y2="365.7914"/>
    <line x1="375.5178" x2="377.9528" y1="198.3359" y2="195.901"/>
    <line x1="362.9305" x2="339.9099" y1="210.9232" y2="233.9438"/>
    <line x1="298.4482" x2="327.4628" y1="275.4055" y2="246.3909"/>
    <line x1="285.964" x2="229.1876" y1="287.8897" y2="344.6661"/>
    <line x1="198.5354" x2="201.0849" y1="375.3183" y2="372.7688"/>
    <line x1="376.5373" x2="377.9528" y1="199.9889" y2="198.5735"/>
    <line x1="363.9503" x2="341.0066" y1="212.576" y2="235.5196"/>
    <line x1="230.8413" x2="328.5596" y1="345.6849" y2="247.9666"/>
    <line x1="377.5569" x2="377.9528" y1="201.6419" y2="201.2461"/>
    <line x1="364.97" x2="342.1034" y1="214.2287" y2="237.0953"/>
    <line x1="232.4951" x2="331.9339" y1="346.7037" y2="247.2648"/>
    <line x1="365.9898" x2="234.1254" y1="215.8815" y2="347.7459"/>
    <line x1="367.0095" x2="230.927" y1="217.5343" y2="353.6168"/>
    <line x1="368.0292" x2="226.0527" y1="219.1871" y2="361.1636"/>
    <line x1="369.049" x2="221.8278" y1="220.8399" y2="368.061"/>
    <line x1="373.5375" x2="217.7575" y1="219.0239" y2="374.8039"/>
    <line x1="217.2812" x2="377.9528" y1="377.9528" y2="217.2813"/>
    <line x1="219.9537" x2="377.9528" y1="377.9528" y2="219.9538"/>
    <line x1="222.6263" x2="377.9528" y1="377.9528" y2="222.6262"/>
    <line x1="225.2988" x2="377.9528" y1="377.9528" y2="225.2988"/>
    <line x1="377.9528" x2="227.9713" y1="227.9713" y2="377.9528"/>
    <line x1="230.6438" x2="377.9528" y1="377.9528" y2="230.6438"/>
    <line x1="377.9528" x2="233.3163" y1="233.3164" y2="377.9528"/>
    <line x1="377.9528" x2="235.989" y1="235.9889" y2="377.9528"/>
    <line x1="238.6615" x2="377.9528" y1="377.9528" y2="238.6615"/>
    <line x1="377.9528" x2="241.334" y1="241.334" y2="377.9528"/>
    <line x1="377.9528" x2="244.0065" y1="244.0066" y2="377.9528"/>
    <line x1="377.9528" x2="246.6791" y1="246.679" y2="377.9528"/>
    <line x1="377.9528" x2="249.3516" y1="249.3515" y2="377.9528"/>
    <line x1="252.0241" x2="377.9528" y1="377.9528" y2="252.0241"/>
    <line x1="377.9528" x2="254.6966" y1="254.6966" y2="377.9528"/>
    <line x1="377.9528" x2="257.3692" y1="257.3692" y2="377.9528"/>
    <line x1="377.9528" x2="260.0417" y1="260.0417" y2="377.9528"/>
    <line x1="377.9528" x2="262.7143" y1="262.7143" y2="377.9528"/>
    <line x1="265.3868" x2="377.9528" y1="377.9528" y2="265.3867"/>
    <line x1="377.9528" x2="268.0593" y1="268.0593" y2="377.9528"/>
    <line x1="270.7319" x2="377.9528" y1="377.9528" y2="270.7318"/>
    <line x1="332.5822" x2="377.9528" y1="318.7749" y2="273.4043"/>
    <line x1="318.1649" x2="273.4043" y1="333.1922" y2="377.9528"/>
    <line x1="355.1321" x2="377.9528" y1="298.8976" y2="276.0769"/>
    <line x1="298.2876" x2="276.0769" y1="355.7421" y2="377.9528"/>
    <line x1="377.9528" x2="367.5724" y1="278.7494" y2="289.1298"/>
    <line x1="278.7494" x2="288.5198" y1="377.9528" y2="368.1824"/>
    <line x1="377.9528" x2="376.8236" y1="281.4219" y2="282.5511"/>
    <line x1="281.4219" x2="281.9411" y1="377.9528" y2="377.4336"/>
  </g>
  <g fill="none" id="layer2" inkscape:groupmode="layer" inkscape:label="2" stroke="#007649" stroke-width="1.0" style="display:inline">
    <polyline points="300.0207,377.9528 300.1212,377.817 300.3463,377.5133 300.5717,377.2099 300.7974,376.9068 301.0234,376.6038 301.2497,376.3011 301.4764,375.9986 301.7033,375.6964 301.9306,375.3944 302.1581,375.0926 302.386,374.791 302.6141,374.4897 302.8426,374.1886 303.0714,373.8877 303.3004,373.5871 303.5298,373.2867 303.7595,372.9865 303.9895,372.6866 304.2198,372.3869 304.4504,372.0874 304.6813,371.7882 304.9125,371.4892 305.144,371.1904 305.3758,370.8919 305.6079,370.5936 305.8403,370.2955 306.073,369.9977 306.306,369.7001 306.5394,369.4027 306.773,369.1056 307.0069,368.8087 307.2411,368.5121 307.4756,368.2157 307.7105,367.9195 307.9456,367.6236 308.181,367.3279 308.4167,367.0324 308.6528,366.7372 308.8891,366.4422 309.1257,366.1475 309.3626,365.853 309.5998,365.5588 309.8373,365.2647 310.0751,364.971 310.3133,364.6774 310.5517,364.3841 310.7904,364.0911 311.0294,363.7983 311.2687,363.5057 311.5083,363.2134 311.7481,362.9213 311.9883,362.6295 312.2288,362.3379 312.4696,362.0465 312.7107,361.7554 312.952,361.4646 313.1937,361.174 313.4356,360.8836 313.6779,360.5935 313.9204,360.3036 314.1633,360.014 314.4064,359.7246 314.6498,359.4354 314.8935,359.1465 315.1375,358.8579 315.3818,358.5695 315.6264,358.2813 315.8713,357.9934 316.1165,357.7058 316.362,357.4184 316.6077,357.1312 316.8538,356.8443 317.1001,356.5577 317.3467,356.2713 317.5937,355.9851 317.8409,355.6992 318.0884,355.4135 318.3362,355.1281 318.5842,354.843 318.8326,354.5581 319.0813,354.2734 319.3302,353.989 319.5794,353.7049 319.829,353.421 320.0788,353.1373 320.3289,352.8539 320.5793,352.5708 320.8299,352.2879 321.0809,352.0053 321.3321,351.7229 321.5837,351.4408 321.8355,351.1589 322.0876,350.8773 322.3399,350.596 322.5926,350.3149 322.8456,350.0341 323.0988,349.7535 323.3523,349.4731 323.6061,349.1931 323.8602,348.9133 324.1146,348.6337 324.3693,348.3544 324.6242,348.0754 324.8794,347.7966 325.1349,347.5181 325.3907,347.2398 325.6468,346.9618 325.9031,346.6841 326.1598,346.4066 326.4167,346.1294 326.6739,345.8524 326.9314,345.5757 327.1891,345.2993 327.4472,345.0231 327.7055,344.7472 327.9641,344.4715 328.2229,344.1961 328.4821,343.921 328.7415,343.6461 329.0012,343.3715 329.2612,343.0972 329.5215,342.8231 329.782,342.5493 330.0428,342.2757 330.3039,342.0024 330.5653,341.7294 330.827,341.4567 331.0889,341.1842 331.3511,340.912 331.6136,340.64 331.8763,340.3683 332.1394,340.0969 332.4027,339.8257 332.6662,339.5548 332.9301,339.2842 333.1942,339.0139 333.4586,338.7438 333.7233,338.4739 333.9883,338.2044 334.2535,337.9351 334.519,337.6661 334.7847,337.3973 335.0508,337.1289 335.3171,336.8607 335.5837,336.5927 335.8505,336.3251 336.1177,336.0577 336.3851,335.7905 336.6527,335.5237 336.9207,335.2571 337.1889,334.9908 337.4573,334.7247 337.7261,334.459 337.9951,334.1935 338.2644,333.9283 338.5339,333.6633 338.8038,333.3986 339.0739,333.1342 339.3442,332.8701 339.6148,332.6062 339.8857,332.3427 340.1569,332.0794 340.4283,331.8163 340.7,331.5536 340.972,331.2911 341.2442,331.0289 341.5167,330.767 341.7894,330.5053 342.0624,330.2439 342.3357,329.9828 342.6093,329.722 342.8831,329.4615 343.1572,329.2012 343.4315,328.9412 343.7061,328.6815 343.981,328.4221 344.2561,328.1629 344.5315,327.9041 344.8072,327.6455 345.0831,327.3872 345.3593,327.1291 345.6357,326.8714 345.9124,326.6139 346.1894,326.3567 346.4666,326.0998 346.7441,325.8431 347.0218,325.5868 347.2998,325.3307 347.5781,325.0749 347.8566,324.8194 348.1354,324.5642 348.4144,324.3093 348.6937,324.0546 348.9733,323.8002 349.2531,323.5461 349.5331,323.2923 349.8135,323.0388 350.0941,322.7856 350.3749,322.5326 350.656,322.2799 350.9373,322.0276 351.2189,321.7755 351.5008,321.5237 351.7829,321.2721 352.0653,321.0209 352.3479,320.7699 352.6308,320.5193 352.9139,320.2689 353.1973,320.0188 353.481,319.769 353.7649,319.5194 354.049,319.2702 354.3334,319.0213 354.6181,318.7726 354.903,318.5242 355.1881,318.2762 355.4735,318.0284 355.7592,317.7809 356.0451,317.5337 356.3313,317.2867 356.6177,317.0401 356.9043,316.7938 357.1912,316.5477 357.4784,316.302 357.7658,316.0565 358.0534,315.8113 358.3413,315.5664 358.6295,315.3218 358.9179,315.0775 359.2065,314.8335 359.4954,314.5898 359.7846,314.3464 360.074,314.1033 360.3636,313.8604 360.6535,313.6179 360.9436,313.3756 361.234,313.1337 361.5246,312.892 361.8154,312.6507 362.1065,312.4096 362.3979,312.1688 362.6895,311.9283 362.9813,311.6881 363.2734,311.4483 363.5657,311.2087 363.8583,310.9694 364.1511,310.7304 364.4441,310.4917 364.7374,310.2533 365.031,310.0151 365.3247,309.7773 365.6188,309.5398 365.913,309.3026 366.2075,309.0657 366.5022,308.8291 366.7972,308.5928 367.0924,308.3567 367.3879,308.121 367.6836,307.8856 367.9795,307.6505 368.2757,307.4156 368.5721,307.1811 368.8687,306.9469 369.1656,306.713 369.4627,306.4794 369.7601,306.246 370.0577,306.013 370.3555,305.7803 370.6536,305.5479 370.9519,305.3158 371.2504,305.084 371.5492,304.8525 371.8482,304.6213 372.1474,304.3904 372.4469,304.1598 372.7466,303.9295 373.0465,303.6995 373.3467,303.4698 373.6471,303.2404 373.9477,303.0114 374.2486,302.7826 374.5497,302.5541 374.851,302.326 375.1526,302.0981 375.4544,301.8706 375.7564,301.6433 376.0586,301.4164 376.3611,301.1897 376.6638,300.9634 376.9668,300.7374 377.2699,300.5117 377.5733,300.2863 377.877,300.0612 377.9528,300.0051"/>
    <line x1="349.6944" x2="323.2134" y1="323.1534" y2="349.6344"/>
    <line x1="308.6488" x2="366.9315" y1="366.8715" y2="308.5888"/>
    <line x1="377.9528" x2="300.2401" y1="300.2401" y2="377.9528"/>
    <line x1="302.9126" x2="377.9528" y1="377.9528" y2="302.9126"/>
    <line x1="377.9528" x2="305.5851" y1="305.5851" y2="377.9528"/>
    <line x1="308.2577" x2="377.9528" y1="377.9528" y2="308.2577"/>
    <line x1="377.9528" x2="310.9302" y1="310.9302" y2="377.9528"/>
    <line x1="313.6028" x2="377.9528" y1="377.9528" y2="313.6028"/>
    <line x1="377.9528" x2="316.2752" y1="316.2752" y2="377.9528"/>
    <line x1="318.9478" x2="377.9528" y1="377.9528" y2="318.9478"/>
    <line x1="377.9528" x2="321.6203" y1="321.6203" y2="377.9528"/>
    <line x1="324.2929" x2="377.9528" y1="377.9528" y2="324.2929"/>
    <line x1="377.9528" x2="326.9654" y1="326.9654" y2="377.9528"/>
    <line x1="329.6379" x2="377.9528" y1="377.9528" y2="329.6379"/>
    <line x1="377.9528" x2="332.3104" y1="332.3104" y2="377.9528"/>
    <line x1="334.9829" x2="377.9528" y1="377.9528" y2="334.9829"/>
    <line x1="377.9528" x2="337.6555" y1="337.6555" y2="377.9528"/>
    <line x1="340.328" x2="377.9528" y1="377.9528" y2="340.328"/>
    <line x1="377.9528" x2="343.0005" y1="343.0005" y2="377.9528"/>
    <line x1="345.6731" x2="377.9528" y1="377.9528" y2="345.6731"/>
    <line x1="377.9528" x2="348.3456" y1="348.3456" y2="377.9528"/>
    <line x1="351.0182" x2="377.9528" y1="377.9528" y2="351.0182"/>
    <line x1="377.9528" x2="353.6907" y1="353.6907" y2="377.9528"/>
    <line x1="356.3632" x2="377.9528" y1="377.9528" y2="356.3632"/>
    <line x1="377.9528" x2="359.0357" y1="359.0357" y2="377.9528"/>
    <line x1="361.7082" x2="377.9528" y1="377.9528" y2="361.7082"/>
    <line x1="377.9528" x2="364.3807" y1="364.3807" y2="377.9528"/>
    <line x1="367.0533" x2="377.9528" y1="377.9528" y2="367.0533"/>
    <line x1="377.9528" x2="369.7258" y1="369.7258" y2="377.9528"/>
    <line x1="372.3984" x2="377.9528" y1="377.9528" y2="372.3984"/>
    <line x1="377.9528" x2="375.071" y1="375.071" y2="377.9528"/>
    <line x1="377.7435" x2="377.9528" y1="377.9528" y2="377.7435"/>
  </g>
</svg>
