<?xml version="1.0" encoding="utf-8" ?>
<svg xmlns="http://www.w3.org/2000/svg" xmlns:cc="http://creativecommons.org/ns" xmlns:dc="http://purl.org/dc/elements/1.1/" xmlns:ev="http://www.w3.org/2001/xml-events" xmlns:inkscape="http://www.inkscape.org/namespaces/inkscape" xmlns:rdf="http://www.w3.org/1999/02/22-rdf-syntax-ns" xmlns:sodipodi="http://sodipodi.sourceforge.net/DTD/sodipodi-0.dtd" xmlns:xlink="http://www.w3.org/1999/xlink" baseProfile="tiny" height="33.62854167cm" version="1.2" viewBox="0 0 951.0 1271.0" width="25.161875cm">
  <metadata>
    <rdf:RDF>
      <cc:Work>
        <dc:format>image/svg+xml</dc:format>
        <dc:source/>
        <dc:date>2025-07-10T13:00:51.146065</dc:date>
      </cc:Work>
    </rdf:RDF>
  </metadata>
  <defs/>
  <g fill="none" id="layer1" inkscape:groupmode="layer" inkscape:label="1" stroke="#0000ff" style="display:inline">
    <line x1="22.2843" x2="0.0" y1="0.0" y2="22.2843"/>
    <line x1="50.5685" x2="0.0" y1="0.0" y2="50.5685"/>
    <line x1="78.8528" x2="0.0" y1="0.0" y2="78.8528"/>
    <line x1="107.1371" x2="0.0" y1="0.0" y2="107.1371"/>
    <line x1="135.4214" x2="0.0" y1="0.0" y2="135.4214"/>
    <line x1="163.7056" x2="0.0" y1="0.0" y2="163.7056"/>
    <line x1="191.9899" x2="0.0" y1="0.0" y2="191.9899"/>
    <line x1="220.2742" x2="0.0" y1="0.0" y2="220.2742"/>
    <line x1="248.5584" x2="0.0" y1="0.0" y2="248.5584"/>
    <line x1="276.8427" x2="0.0" y1="0.0" y2="276.8427"/>
    <line x1="305.127" x2="0.0" y1="0.0" y2="305.127"/>
    <line x1="333.4113" x2="0.0" y1="0.0" y2="333.4113"/>
    <line x1="361.6955" x2="0.0" y1="0.0" y2="361.6955"/>
    <line x1="389.9798" x2="0.0" y1="0.0" y2="389.9798"/>
    <line x1="418.2641" x2="0.0" y1="0.0" y2="418.2641"/>
    <line x1="446.5483" x2="0.0" y1="0.0" y2="446.5483"/>
    <line x1="474.8326" x2="0.0" y1="0.0" y2="474.8326"/>
    <line x1="503.1169" x2="0.0" y1="0.0" y2="503.1169"/>
    <line x1="229.2463" x2="0.0" y1="302.1548" y2="531.4012"/>
    <line x1="245.7829" x2="0.0" y1="313.9025" y2="559.6854"/>
    <line x1="253.0977" x2="0.0" y1="334.872" y2="587.9697"/>
    <line x1="301.2526" x2="0.0" y1="315.0014" y2="616.254"/>
    <line x1="309.9947" x2="0.0" y1="334.5436" y2="644.5382"/>
    <line x1="322.4476" x2="0.0" y1="350.3749" y2="672.8225"/>
    <line x1="339.7043" x2="0.0" y1="361.4025" y2="701.1068"/>
    <line x1="385.1005" x2="0.0" y1="344.2905" y2="729.3911"/>
    <line x1="417.0938" x2="0.0" y1="340.5815" y2="757.6753"/>
    <line x1="456.1843" x2="0.0" y1="329.7753" y2="785.9596"/>
    <line x1="493.5977" x2="0.0" y1="320.6461" y2="814.2439"/>
    <line x1="529.5341" x2="0.0" y1="312.9941" y2="842.5281"/>
    <line x1="567.7157" x2="0.0" y1="303.0967" y2="870.8124"/>
    <line x1="604.7585" x2="0.0" y1="294.3381" y2="899.0967"/>
    <line x1="644.6759" x2="0.0" y1="282.7051" y2="927.381"/>
    <line x1="686.5737" x2="0.0" y1="269.0915" y2="955.6652"/>
    <line x1="718.0753" x2="0.0" y1="265.8741" y2="983.9495"/>
    <line x1="3.489" x2="0.0" y1="1008.7448" y2="1012.2338"/>
    <line x1="0.6047" x2="0.0" y1="1039.9134" y2="1040.518"/>
    <line x1="7.577" x2="0.0" y1="1202.6467" y2="1210.2237"/>
    <line x1="62.6631" x2="0.0" y1="1175.8449" y2="1238.5079"/>
    <line x1="231.7402" x2="0.0" y1="1035.052" y2="1266.7922"/>
    <line x1="19.1613" x2="19.0124" y1="993.0724" y2="993.2214"/>
    <line x1="227.0765" x2="24.0765" y1="1068.0" y2="1271.0"/>
    <line x1="47.467" x2="47.0152" y1="964.7668" y2="965.2186"/>
    <line x1="565.0386" x2="50.3968" y1="447.1952" y2="961.837"/>
    <line x1="244.0567" x2="52.3607" y1="1079.3041" y2="1271.0"/>
    <line x1="59.3726" x2="59.3562" y1="981.1454" y2="981.1619"/>
    <line x1="568.9977" x2="64.8242" y1="471.5203" y2="975.6939"/>
    <line x1="582.3342" x2="77.279" y1="486.4681" y2="991.5233"/>
    <line x1="251.7641" x2="80.645" y1="1099.8809" y2="1271.0"/>
    <line x1="595.0966" x2="88.0882" y1="501.99" y2="1008.9983"/>
    <line x1="608.7699" x2="100.5089" y1="516.6009" y2="1024.862"/>
    <line x1="286.8801" x2="108.9293" y1="1093.0492" y2="1271.0"/>
    <line x1="625.1054" x2="110.5418" y1="585.1183" y2="1099.6819"/>
    <line x1="111.6349" x2="111.3866" y1="1042.0202" y2="1042.2685"/>
    <line x1="117.3097" x2="112.6716" y1="1121.1982" y2="1125.8363"/>
    <line x1="613.4495" x2="116.2911" y1="540.2057" y2="1037.364"/>
    <line x1="116.7565" x2="116.4229" y1="1065.1829" y2="1065.5165"/>
    <line x1="121.0084" x2="120.4995" y1="1117.4996" y2="1118.0085"/>
    <line x1="637.2431" x2="121.5019" y1="601.2648" y2="1117.006"/>
    <line x1="612.8432" x2="125.5414" y1="569.0962" y2="1056.398"/>
    <line x1="331.7485" x2="137.2136" y1="1076.4651" y2="1271.0"/>
    <line x1="951.0" x2="165.4978" y1="485.4978" y2="1271.0"/>
    <line x1="458.4168" x2="193.7821" y1="1006.3653" y2="1271.0"/>
    <line x1="951.0" x2="222.0664" y1="542.0664" y2="1271.0"/>
    <line x1="231.569" x2="230.5541" y1="299.8322" y2="300.847"/>
    <line x1="234.5825" x2="234.3546" y1="296.8186" y2="297.0465"/>
    <line x1="234.8622" x2="234.5185" y1="1031.93" y2="1032.2738"/>
    <line x1="235.9723" x2="234.8993" y1="1059.1042" y2="1060.1772"/>
    <line x1="238.9121" x2="237.9911" y1="1056.1644" y2="1057.0853"/>
    <line x1="238.635" x2="238.1341" y1="292.7661" y2="293.2671"/>
    <line x1="649.8914" x2="239.7845" y1="616.9008" y2="1027.0077"/>
    <line x1="240.8892" x2="240.1621" y1="290.512" y2="291.239"/>
    <line x1="246.27" x2="240.7491" y1="1048.8064" y2="1054.3274"/>
    <line x1="245.0895" x2="242.0878" y1="286.3116" y2="289.3133"/>
    <line x1="246.2148" x2="246.2024" y1="285.1863" y2="285.1988"/>
    <line x1="247.1263" x2="246.8171" y1="312.5591" y2="312.8684"/>
    <line x1="249.8059" x2="249.7523" y1="1045.2706" y2="1045.3241"/>
    <line x1="778.9387" x2="250.3506" y1="742.4119" y2="1271.0"/>
    <line x1="668.2853" x2="250.8406" y1="626.7911" y2="1044.2359"/>
    <line x1="293.8939" x2="253.8351" y1="294.0758" y2="334.1346"/>
    <line x1="255.0015" x2="254.8103" y1="304.6839" y2="304.8751"/>
    <line x1="255.9309" x2="255.1761" y1="1095.7141" y2="1096.469"/>
    <line x1="257.0017" x2="256.3847" y1="302.6838" y2="303.3007"/>
    <line x1="266.8697" x2="258.3412" y1="292.8157" y2="301.3443"/>
    <line x1="270.9399" x2="270.5628" y1="288.7455" y2="289.1226"/>
    <line x1="273.142" x2="272.531" y1="286.5434" y2="287.1544"/>
    <line x1="275.252" x2="274.5607" y1="284.4334" y2="285.1248"/>
    <line x1="276.8624" x2="276.2951" y1="282.823" y2="283.3904"/>
    <line x1="283.9254" x2="278.2988" y1="275.7601" y2="281.3866"/>
    <line x1="555.1487" x2="278.6349" y1="994.4862" y2="1271.0"/>
    <line x1="685.8085" x2="280.977" y1="637.5522" y2="1042.3837"/>
    <line x1="301.9934" x2="282.4859" y1="229.4078" y2="248.9152"/>
    <line x1="285.7752" x2="284.123" y1="273.9102" y2="275.5624"/>
    <line x1="286.8698" x2="286.2458" y1="272.8156" y2="273.4396"/>
    <line x1="289.1442" x2="288.2664" y1="270.5413" y2="271.419"/>
    <line x1="291.2567" x2="290.3105" y1="268.4287" y2="269.3749"/>
    <line x1="304.6955" x2="291.4291" y1="254.9899" y2="268.2563"/>
    <line x1="296.0444" x2="295.9747" y1="291.9253" y2="291.995"/>
    <line x1="298.0684" x2="297.7409" y1="289.9013" y2="290.2288"/>
    <line x1="310.19" x2="299.2421" y1="277.7797" y2="288.7276"/>
    <line x1="303.0648" x2="302.6183" y1="313.1892" y2="313.6356"/>
    <line x1="305.2313" x2="304.5916" y1="311.0227" y2="311.6623"/>
    <line x1="307.023" x2="306.4697" y1="309.2309" y2="309.7842"/>
    <line x1="531.4012" x2="306.8421" y1="0.0" y2="224.5591"/>
    <line x1="555.2611" x2="306.9192" y1="1022.6581" y2="1271.0"/>
    <line x1="308.9945" x2="308.3329" y1="307.2594" y2="307.921"/>
    <line x1="311.0122" x2="310.3748" y1="305.2418" y2="305.8792"/>
    <line x1="312.2723" x2="311.0728" y1="332.266" y2="333.4655"/>
    <line x1="311.9977" x2="311.8495" y1="275.972" y2="276.1202"/>
    <line x1="314.2799" x2="313.0328" y1="330.2584" y2="331.5055"/>
    <line x1="707.969" x2="313.6644" y1="643.6761" y2="1037.9806"/>
    <line x1="315.9975" x2="314.9729" y1="328.5407" y2="329.5653"/>
    <line x1="317.9582" x2="317.2289" y1="326.58" y2="327.3094"/>
    <line x1="318.5495" x2="317.243" y1="241.1359" y2="242.4425"/>
    <line x1="330.4279" x2="318.8152" y1="229.2575" y2="240.8703"/>
    <line x1="319.9549" x2="319.076" y1="324.5834" y2="325.4622"/>
    <line x1="320.708" x2="319.9972" y1="295.546" y2="296.2567"/>
    <line x1="321.8606" x2="321.1458" y1="322.6776" y2="323.3924"/>
    <line x1="324.5357" x2="321.6052" y1="291.7182" y2="294.6487"/>
    <line x1="323.9067" x2="323.3523" y1="320.6316" y2="321.1859"/>
    <line x1="324.2985" x2="324.0278" y1="348.524" y2="348.7947"/>
    <line x1="326.7779" x2="326.0967" y1="346.0446" y2="346.7258"/>
    <line x1="326.7598" x2="326.145" y1="289.4942" y2="290.109"/>
    <line x1="328.5498" x2="328.0748" y1="344.2727" y2="344.7477"/>
    <line x1="330.4642" x2="329.8406" y1="342.3584" y2="342.9819"/>
    <line x1="564.3734" x2="335.2035" y1="1041.83" y2="1271.0"/>
    <line x1="951.0" x2="336.8048" y1="428.9293" y2="1043.1245"/>
    <line x1="339.1249" x2="338.3774" y1="305.4133" y2="306.1609"/>
    <line x1="341.3578" x2="340.3479" y1="303.1804" y2="304.1903"/>
    <line x1="341.7014" x2="341.1712" y1="359.4054" y2="359.9356"/>
    <line x1="345.284" x2="342.2629" y1="299.2543" y2="302.2753"/>
    <line x1="343.6377" x2="343.3604" y1="357.4691" y2="357.7464"/>
    <line x1="345.9433" x2="345.2435" y1="355.1635" y2="355.8633"/>
    <line x1="347.0032" x2="346.232" y1="297.535" y2="298.3062"/>
    <line x1="347.9862" x2="347.0407" y1="353.1206" y2="354.0661"/>
    <line x1="559.6854" x2="348.0809" y1="0.0" y2="211.6046"/>
    <line x1="349.4931" x2="348.7922" y1="295.0452" y2="295.746"/>
    <line x1="352.0745" x2="349.2977" y1="349.0323" y2="351.8091"/>
    <line x1="351.3107" x2="350.5083" y1="293.2275" y2="294.0299"/>
    <line x1="352.9944" x2="352.572" y1="291.5438" y2="291.9662"/>
    <line x1="354.2298" x2="352.6484" y1="346.8769" y2="348.4584"/>
    <line x1="357.0594" x2="352.8951" y1="259.1946" y2="263.3589"/>
    <line x1="356.3197" x2="355.1048" y1="344.7871" y2="346.0019"/>
    <line x1="951.0" x2="357.5137" y1="457.2136" y2="1050.6999"/>
    <line x1="358.3002" x2="357.55" y1="342.8065" y2="343.5568"/>
    <line x1="360.2897" x2="359.6221" y1="340.8171" y2="341.4847"/>
    <line x1="362.3016" x2="361.5077" y1="338.8052" y2="339.5991"/>
    <line x1="363.4245" x2="362.0989" y1="309.398" y2="310.7236"/>
    <line x1="584.7326" x2="363.4877" y1="1049.7551" y2="1271.0"/>
    <line x1="364.2705" x2="363.6089" y1="336.8363" y2="337.4979"/>
    <line x1="373.4287" x2="364.3359" y1="299.3938" y2="308.4866"/>
    <line x1="369.9798" x2="369.9292" y1="246.2742" y2="246.3247"/>
    <line x1="375.5924" x2="375.102" y1="297.2301" y2="297.7205"/>
    <line x1="381.295" x2="380.883" y1="263.2432" y2="263.6553"/>
    <line x1="587.9697" x2="382.795" y1="0.0" y2="205.1747"/>
    <line x1="393.2504" x2="385.5981" y1="307.8563" y2="315.5087"/>
    <line x1="387.9155" x2="386.7337" y1="341.4755" y2="342.6574"/>
    <line x1="389.7218" x2="388.6977" y1="339.6693" y2="340.6934"/>
    <line x1="392.0222" x2="391.2121" y1="337.3689" y2="338.179"/>
    <line x1="613.0789" x2="391.772" y1="1049.6931" y2="1271.0"/>
    <line x1="394.1533" x2="393.4346" y1="335.2378" y2="335.9564"/>
    <line x1="616.254" x2="417.1754" y1="0.0" y2="199.0785"/>
    <line x1="635.2464" x2="420.0563" y1="1055.8098" y2="1271.0"/>
    <line x1="430.7658" x2="428.1918" y1="326.9095" y2="329.4835"/>
    <line x1="444.6657" x2="442.2518" y1="228.1568" y2="230.5707"/>
    <line x1="644.5382" x2="447.1799" y1="0.0" y2="197.3583"/>
    <line x1="653.8974" x2="448.3405" y1="1065.4432" y2="1271.0"/>
    <line x1="454.6454" x2="453.6468" y1="218.1771" y2="219.1757"/>
    <line x1="463.7875" x2="463.4419" y1="1000.9946" y2="1001.3402"/>
    <line x1="468.3145" x2="466.9446" y1="996.4676" y2="997.8375"/>
    <line x1="951.0" x2="468.583" y1="513.7821" y2="996.1991"/>
    <line x1="672.8225" x2="472.2331" y1="0.0" y2="200.5894"/>
    <line x1="473.7699" x2="472.2785" y1="227.3369" y2="228.8282"/>
    <line x1="476.714" x2="475.5044" y1="224.3928" y2="225.6024"/>
    <line x1="670.1471" x2="476.6248" y1="1077.4777" y2="1271.0"/>
    <line x1="701.1068" x2="492.3266" y1="0.0" y2="208.7801"/>
    <line x1="497.0969" x2="496.7956" y1="232.2941" y2="232.5955"/>
    <line x1="685.9167" x2="504.9091" y1="1089.9924" y2="1271.0"/>
    <line x1="729.3911" x2="512.9287" y1="0.0" y2="216.4624"/>
    <line x1="757.6753" x2="528.71" y1="0.0" y2="228.9654"/>
    <line x1="686.7168" x2="533.1934" y1="1117.4766" y2="1271.0"/>
    <line x1="785.9596" x2="544.7259" y1="0.0" y2="241.2337"/>
    <line x1="558.7644" x2="557.053" y1="1019.1548" y2="1020.8662"/>
    <line x1="564.1092" x2="560.2144" y1="1013.81" y2="1017.7048"/>
    <line x1="698.2316" x2="561.4776" y1="1134.246" y2="1271.0"/>
    <line x1="794.8894" x2="562.7075" y1="754.7456" y2="986.9274"/>
    <line x1="814.2439" x2="563.1067" y1="0.0" y2="251.1372"/>
    <line x1="565.2961" x2="565.0441" y1="1012.6231" y2="1012.8751"/>
    <line x1="567.4971" x2="565.608" y1="1038.7063" y2="1040.5955"/>
    <line x1="574.5199" x2="568.6882" y1="1031.6836" y2="1037.5153"/>
    <line x1="742.5932" x2="571.0222" y1="269.6406" y2="441.2116"/>
    <line x1="573.0526" x2="572.0407" y1="1004.8666" y2="1005.8784"/>
    <line x1="578.7635" x2="575.6419" y1="1027.4399" y2="1030.5615"/>
    <line x1="578.8122" x2="576.1445" y1="461.7058" y2="464.3735"/>
    <line x1="842.5281" x2="578.4526" y1="0.0" y2="264.0755"/>
    <line x1="581.9117" x2="580.1707" y1="1024.2918" y2="1026.0328"/>
    <line x1="584.2375" x2="583.4264" y1="484.5648" y2="485.3759"/>
    <line x1="585.893" x2="585.2138" y1="1020.3104" y2="1020.9897"/>
    <line x1="590.1498" x2="585.7551" y1="1044.3379" y2="1048.7326"/>
    <line x1="712.073" x2="589.7619" y1="1148.6889" y2="1271.0"/>
    <line x1="813.3626" x2="592.1572" y1="764.5565" y2="985.762"/>
    <line x1="596.0153" x2="593.6546" y1="1038.4724" y2="1040.8332"/>
    <line x1="870.8124" x2="595.4541" y1="0.0" y2="275.3583"/>
    <line x1="596.4397" x2="595.5616" y1="500.6468" y2="501.525"/>
    <line x1="760.7289" x2="596.4714" y1="279.7891" y2="444.0467"/>
    <line x1="597.4493" x2="597.4248" y1="1037.0384" y2="1037.0629"/>
    <line x1="598.1493" x2="597.9683" y1="498.9372" y2="499.1183"/>
    <line x1="607.757" x2="605.7905" y1="291.3396" y2="293.3062"/>
    <line x1="611.9356" x2="610.8572" y1="513.4353" y2="514.5136"/>
    <line x1="614.961" x2="613.5" y1="1047.811" y2="1049.272"/>
    <line x1="829.4982" x2="616.7077" y1="776.7053" y2="989.4957"/>
    <line x1="760.4246" x2="618.0462" y1="1128.6215" y2="1271.0"/>
    <line x1="618.8704" x2="618.8681" y1="1043.9016" y2="1043.9039"/>
    <line x1="627.5916" x2="627.3689" y1="582.6321" y2="582.8548"/>
    <line x1="899.0967" x2="629.5008" y1="0.0" y2="269.5959"/>
    <line x1="633.2677" x2="630.3323" y1="548.6717" y2="551.6071"/>
    <line x1="642.2653" x2="634.8179" y1="539.6741" y2="547.1215"/>
    <line x1="673.5647" x2="634.9294" y1="423.5219" y2="462.1572"/>
    <line x1="637.4313" x2="637.1267" y1="1053.625" y2="1053.9296"/>
    <line x1="689.3829" x2="637.5207" y1="435.988" y2="487.8502"/>
    <line x1="844.291" x2="640.2525" y1="790.1968" y2="994.2352"/>
    <line x1="655.6281" x2="642.8351" y1="413.1742" y2="425.9672"/>
    <line x1="645.319" x2="644.9734" y1="536.6204" y2="536.966"/>
    <line x1="646.5821" x2="645.6505" y1="280.7988" y2="281.7304"/>
    <line x1="648.407" x2="646.2919" y1="561.8166" y2="563.9318"/>
    <line x1="779.7383" x2="646.3304" y1="1137.5921" y2="1271.0"/>
    <line x1="676.4862" x2="653.8091" y1="533.7375" y2="556.4146"/>
    <line x1="701.6584" x2="655.1657" y1="451.9968" y2="498.4894"/>
    <line x1="863.7052" x2="663.2646" y1="799.0668" y2="999.5074"/>
    <line x1="776.0222" x2="664.6838" y1="292.7801" y2="404.1185"/>
    <line x1="927.381" x2="665.2139" y1="0.0" y2="262.1671"/>
    <line x1="681.9484" x2="666.0446" y1="556.5595" y2="572.4633"/>
    <line x1="798.0819" x2="674.6147" y1="1147.5328" y2="1271.0"/>
    <line x1="951.0" x2="678.691" y1="230.9394" y2="503.2484"/>
    <line x1="784.6393" x2="681.3332" y1="312.4473" y2="415.7534"/>
    <line x1="683.294" x2="683.0099" y1="555.2139" y2="555.498"/>
    <line x1="705.1555" x2="684.8644" y1="561.6367" y2="581.9278"/>
    <line x1="688.4142" x2="686.7768" y1="634.9465" y2="636.5839"/>
    <line x1="881.6746" x2="686.794" y1="809.3817" y2="1004.2622"/>
    <line x1="689.244" x2="688.4379" y1="1114.9493" y2="1115.7555"/>
    <line x1="703.4931" x2="688.5855" y1="535.0149" y2="549.9224"/>
    <line x1="696.8686" x2="696.5861" y1="1107.3248" y2="1107.6073"/>
    <line x1="786.3559" x2="696.7313" y1="339.015" y2="428.6395"/>
    <line x1="951.0" x2="699.3858" y1="4.6652" y2="256.2795"/>
    <line x1="703.4676" x2="700.1939" y1="1100.7257" y2="1103.9995"/>
    <line x1="812.8853" x2="702.899" y1="1161.0137" y2="1271.0"/>
    <line x1="712.5079" x2="704.7077" y1="526.0" y2="533.8003"/>
    <line x1="707.2129" x2="706.6911" y1="1125.2647" y2="1125.7865"/>
    <line x1="708.3461" x2="707.4997" y1="558.4461" y2="559.2925"/>
    <line x1="951.0" x2="707.9127" y1="344.0765" y2="587.1638"/>
    <line x1="720.8985" x2="709.5516" y1="1111.5791" y2="1122.926"/>
    <line x1="899.8608" x2="710.7222" y1="819.4798" y2="1008.6184"/>
    <line x1="951.0" x2="712.5957" y1="315.7922" y2="554.1966"/>
    <line x1="951.0" x2="712.6602" y1="202.6551" y2="440.9949"/>
    <line x1="951.0" x2="714.6392" y1="372.3607" y2="608.7216"/>
    <line x1="951.0" x2="718.7486" y1="259.2237" y2="491.4751"/>
    <line x1="951.0" x2="721.762" y1="287.5079" y2="516.7459"/>
    <line x1="740.2146" x2="722.3149" y1="1120.5473" y2="1138.447"/>
    <line x1="726.4532" x2="724.6574" y1="1106.0244" y2="1107.8203"/>
    <line x1="951.0" x2="724.6592" y1="400.645" y2="626.9858"/>
    <line x1="951.0" x2="729.2748" y1="32.9495" y2="254.6747"/>
    <line x1="827.6987" x2="731.1833" y1="1174.4846" y2="1271.0"/>
    <line x1="917.5127" x2="735.4559" y1="830.1122" y2="1012.1689"/>
    <line x1="741.8776" x2="741.5576" y1="1118.8843" y2="1119.2043"/>
    <line x1="744.8019" x2="743.234" y1="1115.96" y2="1117.5279"/>
    <line x1="951.0" x2="750.8814" y1="61.2338" y2="261.3524"/>
    <line x1="844.817" x2="759.4675" y1="1185.6505" y2="1271.0"/>
    <line x1="763.4315" x2="762.3268" y1="277.0865" y2="278.1913"/>
    <line x1="936.9163" x2="763.4693" y1="838.9928" y2="1012.4398"/>
    <line x1="951.0" x2="767.2281" y1="89.518" y2="273.2899"/>
    <line x1="951.0" x2="779.2317" y1="117.8023" y2="289.5707"/>
    <line x1="951.0" x2="787.4444" y1="146.0866" y2="309.6422"/>
    <line x1="903.0613" x2="787.7518" y1="1155.6905" y2="1271.0"/>
    <line x1="951.0" x2="788.0235" y1="174.3708" y2="337.3474"/>
    <line x1="951.0" x2="790.8195" y1="853.1934" y2="1013.3739"/>
    <line x1="951.0" x2="801.8594" y1="570.3506" y2="719.4912"/>
    <line x1="914.9847" x2="816.0361" y1="1172.0514" y2="1271.0"/>
    <line x1="951.0" x2="817.2796" y1="881.4776" y2="1015.198"/>
    <line x1="951.0" x2="827.7447" y1="598.6349" y2="721.8902"/>
    <line x1="850.1974" x2="843.5726" y1="1123.7016" y2="1130.3263"/>
    <line x1="926.8066" x2="844.3203" y1="1188.5137" y2="1271.0"/>
    <line x1="844.5714" x2="844.4705" y1="1157.6118" y2="1157.7127"/>
    <line x1="846.6604" x2="845.2611" y1="787.8273" y2="789.2266"/>
    <line x1="951.0" x2="847.3292" y1="909.7619" y2="1013.4327"/>
    <line x1="951.0" x2="850.2737" y1="626.9192" y2="727.6455"/>
    <line x1="855.6057" x2="854.8677" y1="1174.8619" y2="1175.5998"/>
    <line x1="870.1345" x2="855.0661" y1="1132.0487" y2="1147.1172"/>
    <line x1="889.1957" x2="856.9959" y1="1141.2718" y2="1173.4716"/>
    <line x1="951.0" x2="870.699" y1="655.2035" y2="735.5044"/>
    <line x1="891.5059" x2="872.6046" y1="1252.0987" y2="1271.0"/>
    <line x1="951.0" x2="879.2218" y1="938.0462" y2="1009.8244"/>
    <line x1="900.581" x2="885.0855" y1="1045.0337" y2="1060.5292"/>
    <line x1="951.0" x2="890.1888" y1="683.4877" y2="744.299"/>
    <line x1="938.4071" x2="894.0312" y1="1205.1975" y2="1249.5734"/>
    <line x1="948.5903" x2="900.8889" y1="1223.2986" y2="1271.0"/>
    <line x1="951.0" x2="904.905" y1="1022.899" y2="1068.994"/>
    <line x1="951.0" x2="909.1111" y1="711.772" y2="753.6609"/>
    <line x1="951.0" x2="912.0503" y1="966.3304" y2="1005.2802"/>
    <line x1="919.1165" x2="917.3547" y1="1111.351" y2="1113.1129"/>
    <line x1="919.8143" x2="918.9102" y1="827.8105" y2="828.7146"/>
    <line x1="923.0609" x2="922.2182" y1="1107.4067" y2="1108.2493"/>
    <line x1="925.6987" x2="925.1004" y1="1076.4846" y2="1077.0828"/>
    <line x1="927.0021" x2="925.9042" y1="1131.7497" y2="1132.8476"/>
    <line x1="951.0" x2="926.9999" y1="740.0563" y2="764.0563"/>
    <line x1="941.5451" x2="927.6576" y1="1117.2067" y2="1131.0942"/>
    <line x1="928.9362" x2="928.894" y1="1158.0999" y2="1158.1421"/>
    <line x1="951.0" x2="929.1732" y1="1249.1732" y2="1271.0"/>
    <line x1="930.1551" x2="929.1952" y1="1072.0282" y2="1072.9881"/>
    <line x1="933.2553" x2="931.8642" y1="1068.9279" y2="1070.3191"/>
    <line x1="951.0" x2="933.1526" y1="1136.0361" y2="1153.8835"/>
    <line x1="936.8643" x2="934.0157" y1="1065.319" y2="1068.1676"/>
    <line x1="951.0" x2="939.1843" y1="1164.3203" y2="1176.136"/>
    <line x1="946.0203" x2="939.7279" y1="1056.163" y2="1062.4554"/>
    <line x1="951.0" x2="944.6693" y1="768.3405" y2="774.6712"/>
    <line x1="951.0" x2="949.3184" y1="1051.1833" y2="1052.8649"/>
    <line x1="951.0" x2="949.4905" y1="1192.6046" y2="1194.1142"/>
    <line x1="950.9688" x2="950.9657" y1="1079.4987" y2="1079.5018"/>
    <line x1="537.4031" x2="0.0" y1="319.2672" y2="856.6703"/>
    <line x1="576.9268" x2="0.0" y1="308.0278" y2="884.9545"/>
    <line x1="615.3348" x2="0.0" y1="297.904" y2="913.2388"/>
    <line x1="323.8238" x2="0.0" y1="617.6993" y2="941.5231"/>
    <line x1="85.8336" x2="14.9616" y1="742.5524" y2="813.4244"/>
    <line x1="382.9499" x2="26.8958" y1="586.8575" y2="942.9116"/>
    <line x1="354.6081" x2="50.6559" y1="643.4835" y2="947.4357"/>
    <line x1="67.0219" x2="65.943" y1="733.0798" y2="734.1587"/>
    <line x1="356.6775" x2="69.1485" y1="669.6984" y2="957.2274"/>
    <line x1="78.646" x2="69.2303" y1="721.4557" y2="730.8714"/>
    <line x1="403.8375" x2="74.4961" y1="650.8226" y2="980.164"/>
    <line x1="80.8474" x2="80.2682" y1="719.2543" y2="719.8335"/>
    <line x1="434.42" x2="85.6476" y1="648.5244" y2="997.2968"/>
    <line x1="89.5826" x2="86.8295" y1="738.8034" y2="741.5565"/>
    <line x1="91.8395" x2="88.7212" y1="708.2622" y2="711.3805"/>
    <line x1="93.1604" x2="92.7116" y1="706.9414" y2="707.3901"/>
    <line x1="95.3613" x2="95.2978" y1="704.7404" y2="704.8039"/>
    <line x1="500.0427" x2="96.6937" y1="328.3433" y2="731.6923"/>
    <line x1="545.7713" x2="99.6657" y1="565.4574" y2="1011.563"/>
    <line x1="105.9146" x2="100.709" y1="694.1871" y2="699.3928"/>
    <line x1="108.6501" x2="106.0476" y1="1144.0" y2="1146.6025"/>
    <line x1="109.2347" x2="108.0116" y1="690.8671" y2="692.0901"/>
    <line x1="110.9647" x2="110.3481" y1="1141.6854" y2="1142.302"/>
    <line x1="185.6773" x2="113.9114" y1="1066.9727" y2="1138.7386"/>
    <line x1="548.7079" x2="114.2157" y1="590.8051" y2="1025.2972"/>
    <line x1="310.15" x2="117.7665" y1="489.9517" y2="682.3353"/>
    <line x1="120.5851" x2="119.1492" y1="651.2324" y2="652.6683"/>
    <line x1="423.6512" x2="123.0231" y1="348.1662" y2="648.7943"/>
    <line x1="558.5979" x2="124.8882" y1="609.1993" y2="1042.909"/>
    <line x1="214.7702" x2="127.5959" y1="1009.5956" y2="1096.7699"/>
    <line x1="198.6659" x2="129.7258" y1="997.4157" y2="1066.3557"/>
    <line x1="148.2847" x2="139.2793" y1="1132.6497" y2="1141.655"/>
    <line x1="143.2834" x2="140.9259" y1="600.2498" y2="602.6073"/>
    <line x1="145.6416" x2="144.8919" y1="597.8916" y2="598.6413"/>
    <line x1="150.3636" x2="146.2825" y1="593.1696" y2="597.2507"/>
    <line x1="395.1335" x2="151.1937" y1="348.3997" y2="592.3395"/>
    <line x1="155.8724" x2="154.2354" y1="1266.4833" y2="1268.1203"/>
    <line x1="166.0686" x2="164.3724" y1="1256.2871" y2="1257.9833"/>
    <line x1="172.0675" x2="168.6818" y1="514.8971" y2="518.2828"/>
    <line x1="177.0575" x2="173.0009" y1="538.1915" y2="542.2481"/>
    <line x1="180.7235" x2="179.64" y1="1269.9165" y2="1271.0"/>
    <line x1="186.9671" x2="185.1557" y1="528.2818" y2="530.0933"/>
    <line x1="190.7998" x2="187.1139" y1="1259.8402" y2="1263.5261"/>
    <line x1="315.291" x2="200.7075" y1="880.7906" y2="995.374"/>
    <line x1="222.5565" x2="207.9971" y1="1030.0935" y2="1044.6529"/>
    <line x1="213.4242" x2="213.1769" y1="1265.5" y2="1265.7473"/>
    <line x1="341.3688" x2="217.9196" y1="882.997" y2="1006.4462"/>
    <line x1="223.5891" x2="222.8591" y1="491.6598" y2="492.3898"/>
    <line x1="228.4724" x2="227.2017" y1="486.7765" y2="488.0472"/>
    <line x1="274.883" x2="228.9986" y1="440.3659" y2="486.2504"/>
    <line x1="316.4918" x2="235.1835" y1="936.1583" y2="1017.4666"/>
    <line x1="248.5302" x2="246.1382" y1="1258.6784" y2="1261.0703"/>
    <line x1="250.4278" x2="249.8333" y1="1256.7807" y2="1257.3752"/>
    <line x1="329.9291" x2="250.2649" y1="951.0052" y2="1030.6695"/>
    <line x1="264.3635" x2="261.1036" y1="1242.845" y2="1246.1049"/>
    <line x1="270.0324" x2="269.9703" y1="1237.1761" y2="1237.2382"/>
    <line x1="275.8333" x2="273.5254" y1="1259.6594" y2="1261.9673"/>
    <line x1="409.3518" x2="276.069" y1="899.8669" y2="1033.1496"/>
    <line x1="278.9644" x2="276.3728" y1="436.2845" y2="438.8761"/>
    <line x1="279.1825" x2="279.0277" y1="436.0664" y2="436.2213"/>
    <line x1="281.025" x2="280.6071" y1="1226.1835" y2="1226.6014"/>
    <line x1="284.8333" x2="283.844" y1="1222.3752" y2="1223.3646"/>
    <line x1="288.1398" x2="284.6844" y1="1247.353" y2="1250.8084"/>
    <line x1="292.9057" x2="292.7771" y1="1270.8714" y2="1271.0"/>
    <line x1="297.3863" x2="295.0729" y1="1266.3907" y2="1268.7041"/>
    <line x1="300.7658" x2="297.6562" y1="1234.727" y2="1237.8366"/>
    <line x1="301.0684" x2="299.5" y1="1262.7087" y2="1264.2771"/>
    <line x1="309.7507" x2="302.5111" y1="1254.0263" y2="1261.2659"/>
    <line x1="419.9191" x2="302.7359" y1="917.5837" y2="1034.767"/>
    <line x1="305.8239" x2="304.7912" y1="1229.6689" y2="1230.7016"/>
    <line x1="363.1719" x2="310.6075" y1="436.9298" y2="489.4942"/>
    <line x1="313.5796" x2="313.1036" y1="1221.9132" y2="1222.3892"/>
    <line x1="372.6227" x2="316.6908" y1="823.4588" y2="879.3908"/>
    <line x1="323.9178" x2="317.2421" y1="1239.8593" y2="1246.535"/>
    <line x1="323.9933" x2="318.5843" y1="1211.4995" y2="1216.9085"/>
    <line x1="323.3945" x2="319.4201" y1="929.2556" y2="933.2299"/>
    <line x1="321.4811" x2="321.1223" y1="1270.5802" y2="1270.939"/>
    <line x1="328.2924" x2="322.4593" y1="1263.769" y2="1269.6021"/>
    <line x1="463.0688" x2="324.3024" y1="789.5813" y2="928.3477"/>
    <line x1="643.841" x2="324.7929" y1="297.6821" y2="616.7302"/>
    <line x1="327.2197" x2="325.2238" y1="1236.5574" y2="1238.5533"/>
    <line x1="327.2073" x2="325.4997" y1="1208.2854" y2="1209.993"/>
    <line x1="446.3958" x2="326.1918" y1="919.3913" y2="1039.5953"/>
    <line x1="330.2366" x2="329.8601" y1="1205.2562" y2="1205.6327"/>
    <line x1="330.7507" x2="330.0725" y1="1176.4578" y2="1177.136"/>
    <line x1="330.7332" x2="330.5076" y1="950.2011" y2="950.4267"/>
    <line x1="333.9969" x2="332.4928" y1="1201.4959" y2="1203.0"/>
    <line x1="622.3004" x2="332.9785" y1="658.6339" y2="947.9559"/>
    <line x1="337.9904" x2="334.1596" y1="1254.0709" y2="1257.9018"/>
    <line x1="335.6419" x2="335.2855" y1="1171.5666" y2="1171.9231"/>
    <line x1="336.4582" x2="336.0471" y1="1199.0345" y2="1199.4457"/>
    <line x1="345.6507" x2="339.2591" y1="1246.4106" y2="1252.8023"/>
    <line x1="342.0847" x2="340.9921" y1="1221.6924" y2="1222.785"/>
    <line x1="346.0063" x2="342.1539" y1="878.3595" y2="882.2119"/>
    <line x1="346.9929" x2="342.4997" y1="1188.4998" y2="1192.9931"/>
    <line x1="343.3863" x2="342.7489" y1="1220.3907" y2="1221.0282"/>
    <line x1="348.1213" x2="345.6714" y1="1215.6558" y2="1218.1057"/>
    <line x1="348.2924" x2="346.995" y1="1243.769" y2="1245.0663"/>
    <line x1="383.8513" x2="347.0794" y1="840.5145" y2="877.2864"/>
    <line x1="427.0155" x2="348.2594" y1="967.056" y2="1045.8121"/>
    <line x1="383.9269" x2="349.3456" y1="1236.4187" y2="1271.0"/>
    <line x1="349.6787" x2="349.4136" y1="1242.3826" y2="1242.6478"/>
    <line x1="354.0661" x2="351.2246" y1="1237.9953" y2="1240.8367"/>
    <line x1="353.5536" x2="352.3587" y1="1210.2235" y2="1211.4184"/>
    <line x1="354.7757" x2="354.6801" y1="1237.2856" y2="1237.3812"/>
    <line x1="377.5999" x2="355.4502" y1="620.4918" y2="642.6414"/>
    <line x1="356.8683" x2="355.9431" y1="1206.9087" y2="1207.8339"/>
    <line x1="548.2344" x2="357.6473" y1="478.1415" y2="668.7286"/>
    <line x1="360.2122" x2="359.3922" y1="1231.8492" y2="1232.6691"/>
    <line x1="360.6945" x2="360.0" y1="1203.0826" y2="1203.7771"/>
    <line x1="365.0724" x2="362.7604" y1="1226.9889" y2="1229.3009"/>
    <line x1="394.7477" x2="363.7481" y1="405.3541" y2="436.3536"/>
    <line x1="365.9622" x2="364.4921" y1="1197.8148" y2="1199.285"/>
    <line x1="528.3828" x2="367.4545" y1="893.9729" y2="1054.9012"/>
    <line x1="368.8209" x2="368.7421" y1="1194.9562" y2="1195.035"/>
    <line x1="375.5272" x2="374.0068" y1="820.5543" y2="822.0747"/>
    <line x1="374.6578" x2="374.4139" y1="1189.1192" y2="1189.3631"/>
    <line x1="410.2865" x2="377.0269" y1="785.795" y2="819.0546"/>
    <line x1="411.3418" x2="377.6299" y1="1237.2881" y2="1271.0"/>
    <line x1="391.34" x2="378.6109" y1="606.7516" y2="619.4807"/>
    <line x1="468.2441" x2="383.8767" y1="501.5633" y2="585.9306"/>
    <line x1="387.7764" x2="385.2573" y1="836.5894" y2="839.1085"/>
    <line x1="578.9329" x2="388.5428" y1="645.4329" y2="835.823"/>
    <line x1="516.3908" x2="392.9076" y1="481.7008" y2="605.184"/>
    <line x1="397.5118" x2="396.1301" y1="402.5899" y2="403.9716"/>
    <line x1="461.8659" x2="399.0352" y1="338.2358" y2="401.0666"/>
    <line x1="403.5534" x2="400.5895" y1="1160.2236" y2="1163.1875"/>
    <line x1="430.4908" x2="404.6232" y1="624.1694" y2="650.037"/>
    <line x1="407.4162" x2="405.4921" y1="1156.3608" y2="1158.285"/>
    <line x1="561.4141" x2="405.9141" y1="1115.5" y2="1271.0"/>
    <line x1="408.8206" x2="408.7974" y1="1183.2407" y2="1183.264"/>
    <line x1="411.6093" x2="410.8714" y1="1152.1677" y2="1152.9057"/>
    <line x1="414.3137" x2="411.4373" y1="781.7679" y2="784.6442"/>
    <line x1="415.1815" x2="412.2746" y1="894.0372" y2="896.9441"/>
    <line x1="418.155" x2="412.4122" y1="1230.4748" y2="1236.2177"/>
    <line x1="413.4045" x2="413.0912" y1="1150.3726" y2="1150.6858"/>
    <line x1="417.2858" x2="413.4106" y1="1174.7755" y2="1178.6507"/>
    <line x1="572.7079" x2="414.8785" y1="623.3736" y2="781.203"/>
    <line x1="661.1778" x2="415.465" y1="648.0408" y2="893.7536"/>
    <line x1="416.41" x2="415.7238" y1="1147.3671" y2="1148.0532"/>
    <line x1="419.9128" x2="418.4749" y1="1228.7171" y2="1230.1549"/>
    <line x1="421.1252" x2="418.5184" y1="1170.9361" y2="1173.5429"/>
    <line x1="472.3355" x2="420.5349" y1="865.1674" y2="916.968"/>
    <line x1="451.9811" x2="423.2431" y1="1140.0802" y2="1168.8182"/>
    <line x1="426.2114" x2="426.1205" y1="1222.4185" y2="1222.5094"/>
    <line x1="428.6914" x2="428.5826" y1="1219.9385" y2="1220.0472"/>
    <line x1="605.4315" x2="429.6355" y1="788.6399" y2="964.4359"/>
    <line x1="532.9961" x2="431.5059" y1="521.6641" y2="623.1542"/>
    <line x1="586.8999" x2="434.1984" y1="1118.2985" y2="1271.0"/>
    <line x1="540.9437" x2="435.574" y1="542.0007" y2="647.3705"/>
    <line x1="437.0" x2="436.2675" y1="1183.3456" y2="1184.0781"/>
    <line x1="440.7205" x2="440.3395" y1="1123.0566" y2="1123.4375"/>
    <line x1="496.6641" x2="441.6031" y1="1123.6815" y2="1178.7425"/>
    <line x1="704.7872" x2="447.35" y1="661.0" y2="918.4371"/>
    <line x1="456.6788" x2="454.9413" y1="1135.3825" y2="1137.12"/>
    <line x1="461.2406" x2="461.1851" y1="1130.8208" y2="1130.8762"/>
    <line x1="610.2403" x2="462.4827" y1="1123.2424" y2="1271.0"/>
    <line x1="538.5653" x2="463.4792" y1="1110.0646" y2="1185.1507"/>
    <line x1="598.9887" x2="464.6755" y1="653.6614" y2="787.9745"/>
    <line x1="465.6507" x2="465.0053" y1="1126.4106" y2="1127.056"/>
    <line x1="709.611" x2="466.3496" y1="769.3132" y2="1012.5746"/>
    <line x1="471.1895" x2="468.6374" y1="1120.8718" y2="1123.4239"/>
    <line x1="666.8716" x2="469.6855" y1="302.9358" y2="500.1219"/>
    <line x1="534.6652" x2="473.6506" y1="802.8377" y2="863.8523"/>
    <line x1="473.9248" x2="473.8344" y1="241.3241" y2="241.4146"/>
    <line x1="478.6771" x2="474.3842" y1="1113.3842" y2="1117.6771"/>
    <line x1="681.8743" x2="485.3725" y1="768.7657" y2="965.2675"/>
    <line x1="635.2996" x2="497.7617" y1="1126.4673" y2="1264.0053"/>
    <line x1="508.3522" x2="498.0337" y1="1111.9934" y2="1122.3119"/>
    <line x1="518.2985" x2="506.242" y1="988.91" y2="1000.9665"/>
    <line x1="536.0458" x2="517.7557" y1="462.0458" y2="480.336"/>
    <line x1="641.6366" x2="519.6347" y1="865.5719" y2="987.5738"/>
    <line x1="654.896" x2="530.4485" y1="1135.1552" y2="1259.6027"/>
    <line x1="534.8593" x2="530.4653" y1="887.4964" y2="891.8904"/>
    <line x1="681.9281" x2="536.2668" y1="655.5748" y2="801.2361"/>
    <line x1="545.6025" x2="544.4936" y1="537.3419" y2="538.4508"/>
    <line x1="550.0" x2="547.9096" y1="561.2287" y2="563.3191"/>
    <line x1="554.6546" x2="549.3244" y1="528.2899" y2="533.62"/>
    <line x1="551.9173" x2="549.609" y1="474.4586" y2="476.7669"/>
    <line x1="551.6347" x2="550.2678" y1="587.8782" y2="589.2452"/>
    <line x1="560.8648" x2="559.5979" y1="606.9324" y2="608.1993"/>
    <line x1="669.5642" x2="563.907" y1="1148.7713" y2="1254.4285"/>
    <line x1="686.5458" x2="565.6261" y1="311.5458" y2="432.4655"/>
    <line x1="570.1767" x2="569.7822" y1="541.052" y2="541.4465"/>
    <line x1="682.6198" x2="575.6198" y1="1164.0" y2="1271.0"/>
    <line x1="674.5248" x2="579.1715" y1="747.8309" y2="843.1842"/>
    <line x1="579.8195" x2="579.4553" y1="644.5463" y2="644.9105"/>
    <line x1="594.6942" x2="589.6908" y1="431.6817" y2="436.6851"/>
    <line x1="778.0828" x2="599.6492" y1="785.6943" y2="964.1279"/>
    <line x1="705.3504" x2="601.3617" y1="321.0255" y2="425.0142"/>
    <line x1="697.4011" x2="603.904" y1="1177.503" y2="1271.0"/>
    <line x1="793.6368" x2="605.6907" y1="798.4245" y2="986.3706"/>
    <line x1="680.0767" x2="606.4101" y1="713.9947" y2="787.6613"/>
    <line x1="664.7213" x2="615.0792" y1="870.7715" y2="920.4136"/>
    <line x1="624.6556" x2="623.5992" y1="656.2787" y2="657.3352"/>
    <line x1="811.8074" x2="629.9945" y1="808.5382" y2="990.3511"/>
    <line x1="713.4647" x2="632.1883" y1="1189.7236" y2="1271.0"/>
    <line x1="636.9418" x2="633.1792" y1="417.7184" y2="421.481"/>
    <line x1="645.0285" x2="637.3638" y1="466.2002" y2="473.8649"/>
    <line x1="648.4645" x2="642.7062" y1="547.617" y2="553.3754"/>
    <line x1="644.5263" x2="644.3171" y1="862.6823" y2="862.8914"/>
    <line x1="653.8359" x2="645.429" y1="485.6771" y2="494.084"/>
    <line x1="649.2638" x2="647.5239" y1="857.9448" y2="859.6846"/>
    <line x1="830.8519" x2="652.6572" y1="817.7779" y2="995.9727"/>
    <line x1="656.1364" x2="656.0721" y1="851.0721" y2="851.1364"/>
    <line x1="719.3103" x2="656.3886" y1="335.3499" y2="398.2715"/>
    <line x1="727.2923" x2="657.9126" y1="779.9162" y2="849.2959"/>
    <line x1="663.0" x2="658.013" y1="476.513" y2="481.5"/>
    <line x1="659.6733" x2="659.1835" y1="1130.3779" y2="1130.8677"/>
    <line x1="735.723" x2="660.4726" y1="1195.7496" y2="1271.0"/>
    <line x1="757.9451" x2="665.6185" y1="777.5477" y2="869.8743"/>
    <line x1="701.2143" x2="668.4039" y1="466.583" y2="499.3933"/>
    <line x1="729.6202" x2="673.1598" y1="353.3243" y2="409.7846"/>
    <line x1="676.3565" x2="675.6621" y1="745.9992" y2="746.6936"/>
    <line x1="846.9428" x2="675.9435" y1="829.9714" y2="1000.9706"/>
    <line x1="680.4883" x2="680.0487" y1="741.8674" y2="742.307"/>
    <line x1="681.5183" x2="680.6357" y1="571.1318" y2="572.0143"/>
    <line x1="683.9239" x2="681.7709" y1="710.1475" y2="712.3006"/>
    <line x1="683.9163" x2="683.3" y1="766.7237" y2="767.34"/>
    <line x1="684.5904" x2="684.2408" y1="737.7653" y2="738.1149"/>
    <line x1="689.0294" x2="686.4917" y1="733.3263" y2="735.864"/>
    <line x1="749.9057" x2="688.7569" y1="1209.8512" y2="1271.0"/>
    <line x1="760.9221" x2="689.664" y1="350.3066" y2="421.5647"/>
    <line x1="691.8637" x2="690.1321" y1="758.7763" y2="760.5078"/>
    <line x1="693.4077" x2="690.7744" y1="728.948" y2="731.5813"/>
    <line x1="718.4108" x2="694.0214" y1="703.9449" y2="728.3343"/>
    <line x1="733.1969" x2="694.1703" y1="717.4431" y2="756.4697"/>
    <line x1="701.078" x2="695.5751" y1="692.9934" y2="698.4964"/>
    <line x1="862.6667" x2="700.139" y1="842.5317" y2="1005.0594"/>
    <line x1="706.9353" x2="701.5706" y1="687.1361" y2="692.5008"/>
    <line x1="706.7483" x2="706.6454" y1="432.7647" y2="432.8676"/>
    <line x1="707.688" x2="707.3759" y1="318.688" y2="319.0"/>
    <line x1="752.6234" x2="707.5794" y1="641.448" y2="686.4921"/>
    <line x1="727.6831" x2="707.7647" y1="411.8299" y2="431.7483"/>
    <line x1="711.3725" x2="710.8225" y1="767.5517" y2="768.1017"/>
    <line x1="714.9874" x2="714.5151" y1="763.9369" y2="764.4091"/>
    <line x1="764.6879" x2="717.0411" y1="1223.3533" y2="1271.0"/>
    <line x1="732.3146" x2="717.802" y1="435.4827" y2="449.9953"/>
    <line x1="724.9961" x2="720.8982" y1="697.3596" y2="701.4575"/>
    <line x1="721.7341" x2="721.5718" y1="332.9261" y2="333.0884"/>
    <line x1="723.4737" x2="723.0795" y1="755.4506" y2="755.8448"/>
    <line x1="881.7413" x2="724.2041" y1="851.7413" y2="1009.2785"/>
    <line x1="726.1634" x2="724.5404" y1="328.4968" y2="330.1197"/>
    <line x1="735.7015" x2="726.6205" y1="630.0856" y2="639.1666"/>
    <line x1="758.5195" x2="727.804" y1="663.8362" y2="694.5517"/>
    <line x1="734.4832" x2="727.8154" y1="772.7254" y2="779.3931"/>
    <line x1="729.8301" x2="729.4336" y1="324.8301" y2="325.2266"/>
    <line x1="732.375" x2="730.5679" y1="350.5694" y2="352.3765"/>
    <line x1="735.3301" x2="731.8867" y1="319.3301" y2="322.7734"/>
    <line x1="748.7195" x2="734.314" y1="701.9204" y2="716.326"/>
    <line x1="739.1251" x2="735.5324" y1="768.0834" y2="771.6761"/>
    <line x1="737.5432" x2="737.3679" y1="345.4012" y2="345.5766"/>
    <line x1="788.0858" x2="739.0914" y1="690.8385" y2="739.8328"/>
    <line x1="785.221" x2="745.3254" y1="1231.1044" y2="1271.0"/>
    <line x1="902.767" x2="751.1389" y1="859.0" y2="1010.6281"/>
    <line x1="754.1362" x2="752.864" y1="696.5038" y2="697.776"/>
    <line x1="763.9252" x2="753.5928" y1="630.1462" y2="640.4787"/>
    <line x1="770.9687" x2="758.2595" y1="679.6712" y2="692.3805"/>
    <line x1="759.0994" x2="758.768" y1="776.3934" y2="776.7247"/>
    <line x1="781.6975" x2="762.5265" y1="640.6582" y2="659.8292"/>
    <line x1="766.7679" x2="765.6774" y1="627.3036" y2="628.394"/>
    <line x1="776.1671" x2="772.8995" y1="674.4728" y2="677.7405"/>
    <line x1="807.3234" x2="773.6097" y1="1237.2863" y2="1271.0"/>
    <line x1="920.3589" x2="777.7511" y1="869.6923" y2="1012.3001"/>
    <line x1="779.7377" x2="779.2377" y1="670.9023" y2="671.4023"/>
    <line x1="785.417" x2="781.6295" y1="665.223" y2="669.0105"/>
    <line x1="786.936" x2="786.2432" y1="663.704" y2="664.3968"/>
    <line x1="803.5696" x2="786.9783" y1="703.6389" y2="720.2302"/>
    <line x1="801.7613" x2="789.3657" y1="677.1629" y2="689.5586"/>
    <line x1="791.6315" x2="790.492" y1="659.0085" y2="660.148"/>
    <line x1="795.438" x2="793.6543" y1="655.2019" y2="656.9857"/>
    <line x1="796.9337" x2="796.1508" y1="653.7062" y2="654.4892"/>
    <line x1="824.2625" x2="801.8939" y1="1248.6315" y2="1271.0"/>
    <line x1="937.8339" x2="805.284" y1="880.5016" y2="1013.0515"/>
    <line x1="823.8832" x2="816.1249" y1="711.6096" y2="719.3678"/>
    <line x1="828.1813" x2="826.4381" y1="707.3115" y2="709.0547"/>
    <line x1="849.2384" x2="830.1782" y1="1251.9398" y2="1271.0"/>
    <line x1="951.0" x2="832.9814" y1="895.6198" y2="1013.6384"/>
    <line x1="844.6639" x2="840.0011" y1="1199.9458" y2="1204.6086"/>
    <line x1="853.6815" x2="852.1889" y1="1219.2124" y2="1220.7051"/>
    <line x1="860.9476" x2="858.4625" y1="1268.5149" y2="1271.0"/>
    <line x1="864.2659" x2="863.2868" y1="840.9325" y2="841.9116"/>
    <line x1="951.0" x2="867.957" y1="923.904" y2="1006.947"/>
    <line x1="891.547" x2="889.9269" y1="1153.0627" y2="1154.6828"/>
    <line x1="908.9643" x2="891.9491" y1="1220.4981" y2="1237.5134"/>
    <line x1="923.0873" x2="899.5887" y1="1234.6595" y2="1258.1581"/>
    <line x1="951.0" x2="899.8115" y1="952.1883" y2="1003.3768"/>
    <line x1="938.037" x2="915.031" y1="1247.9941" y2="1271.0"/>
    <line x1="951.0" x2="943.3153" y1="1263.3153" y2="1271.0"/>
    <line x1="951.0" x2="944.636" y1="980.4726" y2="986.8365"/>
    <line x1="951.0" x2="946.3077" y1="1178.4625" y2="1183.1548"/>
    <line x1="16.0" x2="15.4032" y1="833.5992" y2="834.196"/>
    <line x1="21.0122" x2="16.2865" y1="842.7292" y2="847.4549"/>
    <line x1="18.3601" x2="17.5992" y1="831.2391" y2="832.0"/>
    <line x1="17.8367" x2="17.7228" y1="902.4732" y2="902.5871"/>
    <line x1="21.8762" x2="21.5814" y1="898.4337" y2="898.7284"/>
    <line x1="23.3047" x2="23.1818" y1="925.2894" y2="925.4124"/>
    <line x1="24.2695" x2="24.1303" y1="853.6139" y2="853.7532"/>
    <line x1="25.8978" x2="24.9313" y1="866.1278" y2="867.0943"/>
    <line x1="25.1491" x2="25.0362" y1="923.4451" y2="923.558"/>
    <line x1="28.1355" x2="28.0528" y1="920.4586" y2="920.5414"/>
    <line x1="30.1833" x2="29.4451" y1="861.8424" y2="862.5805"/>
    <line x1="29.9494" x2="29.8968" y1="819.6498" y2="819.7024"/>
    <line x1="31.5533" x2="30.1414" y1="902.8987" y2="904.3107"/>
    <line x1="31.0748" x2="30.9393" y1="917.5194" y2="917.6548"/>
    <line x1="31.6593" x2="31.6517" y1="860.3664" y2="860.3739"/>
    <line x1="31.8761" x2="31.6556" y1="817.7231" y2="817.9436"/>
    <line x1="33.1672" x2="32.9266" y1="873.0006" y2="873.2411"/>
    <line x1="35.5942" x2="33.5707" y1="913.0" y2="915.0234"/>
    <line x1="37.8875" x2="33.8056" y1="896.5646" y2="900.6464"/>
    <line x1="39.2334" x2="37.1506" y1="909.3608" y2="911.4435"/>
    <line x1="38.4548" x2="38.0249" y1="853.5708" y2="854.0007"/>
    <line x1="44.9464" x2="39.1" y1="790.5106" y2="796.3571"/>
    <line x1="40.6351" x2="40.4865" y1="808.9641" y2="809.1127"/>
    <line x1="40.7181" x2="40.6906" y1="907.8761" y2="907.9036"/>
    <line x1="43.7748" x2="42.2292" y1="890.6772" y2="892.2228"/>
    <line x1="44.5301" x2="44.12" y1="833.3534" y2="833.7635"/>
    <line x1="44.5775" x2="44.4726" y1="875.7324" y2="875.8373"/>
    <line x1="44.8014" x2="44.7308" y1="875.5085" y2="875.5791"/>
    <line x1="45.8254" x2="45.4923" y1="902.7688" y2="903.1018"/>
    <line x1="46.5026" x2="46.2583" y1="887.9494" y2="888.1937"/>
    <line x1="48.6938" x2="46.9524" y1="885.7582" y2="887.4996"/>
    <line x1="48.2307" x2="47.8328" y1="843.7949" y2="844.1928"/>
    <line x1="50.4809" x2="47.9571" y1="784.9762" y2="787.5"/>
    <line x1="48.9758" x2="48.4879" y1="899.6183" y2="900.1062"/>
    <line x1="53.4117" x2="50.1115" y1="909.3246" y2="912.6248"/>
    <line x1="50.7915" x2="50.2743" y1="869.5184" y2="870.0356"/>
    <line x1="50.7677" x2="50.5191" y1="827.1158" y2="827.3644"/>
    <line x1="53.2828" x2="51.1894" y1="796.3164" y2="798.4098"/>
    <line x1="53.5777" x2="51.6193" y1="895.0165" y2="896.9749"/>
    <line x1="53.8443" x2="51.8818" y1="809.897" y2="811.8595"/>
    <line x1="54.0772" x2="53.1227" y1="852.0906" y2="853.045"/>
    <line x1="54.1126" x2="54.0904" y1="795.4866" y2="795.5088"/>
    <line x1="55.5792" x2="54.5" y1="864.7307" y2="865.8099"/>
    <line x1="59.1966" x2="54.5959" y1="832.829" y2="837.4298"/>
    <line x1="55.1127" x2="54.6044" y1="794.4865" y2="794.9948"/>
    <line x1="58.8193" x2="55.2099" y1="875.6327" y2="879.2421"/>
    <line x1="105.4595" x2="55.2122" y1="843.1347" y2="893.3819"/>
    <line x1="238.1051" x2="55.7324" y1="682.2048" y2="864.5775"/>
    <line x1="64.8705" x2="56.0" y1="897.8658" y2="906.7363"/>
    <line x1="57.1406" x2="56.0641" y1="806.6007" y2="807.6773"/>
    <line x1="57.6749" x2="57.17" y1="791.9243" y2="792.4292"/>
    <line x1="251.8629" x2="60.6068" y1="682.5891" y2="873.8452"/>
    <line x1="69.4464" x2="61.4613" y1="780.1528" y2="788.1379"/>
    <line x1="70.2132" x2="61.5" y1="807.6703" y2="816.3835"/>
    <line x1="61.625" x2="61.5011" y1="773.8321" y2="773.956"/>
    <line x1="267.2436" x2="62.0939" y1="638.9242" y2="844.0738"/>
    <line x1="62.8149" x2="62.724" y1="758.5" y2="758.5909"/>
    <line x1="65.6472" x2="63.5" y1="769.8098" y2="771.9571"/>
    <line x1="84.9572" x2="64.0046" y1="807.0684" y2="828.021"/>
    <line x1="70.3388" x2="65.2532" y1="793.4026" y2="798.4881"/>
    <line x1="76.3349" x2="69.1959" y1="886.4013" y2="893.5404"/>
    <line x1="70.1124" x2="70.0904" y1="779.4868" y2="779.5088"/>
    <line x1="116.1598" x2="70.5188" y1="733.4394" y2="779.0804"/>
    <line x1="71.9091" x2="71.1996" y1="791.8322" y2="792.5418"/>
    <line x1="75.5934" x2="71.9221" y1="802.2901" y2="805.9613"/>
    <line x1="140.9501" x2="74.4742" y1="722.7912" y2="789.2671"/>
    <line x1="76.4846" x2="76.1906" y1="758.9725" y2="759.2665"/>
    <line x1="94.2272" x2="76.6316" y1="783.6563" y2="801.2519"/>
    <line x1="86.987" x2="77.451" y1="875.7493" y2="885.2853"/>
    <line x1="84.7995" x2="77.743" y1="750.6575" y2="757.7141"/>
    <line x1="82.1037" x2="81.4988" y1="894.7748" y2="895.3796"/>
    <line x1="84.5785" x2="83.9875" y1="892.2999" y2="892.8909"/>
    <line x1="88.126" x2="85.6742" y1="747.3311" y2="749.7829"/>
    <line x1="259.3184" x2="87.9089" y1="632.7072" y2="804.1167"/>
    <line x1="90.0474" x2="89.2871" y1="886.831" y2="887.5914"/>
    <line x1="91.113" x2="90.525" y1="744.3441" y2="744.932"/>
    <line x1="301.769" x2="93.6655" y1="675.1095" y2="883.2129"/>
    <line x1="239.4209" x2="94.1958" y1="723.3154" y2="868.5405"/>
    <line x1="303.5904" x2="94.3822" y1="687.4302" y2="896.6383"/>
    <line x1="96.4055" x2="96.1026" y1="739.0516" y2="739.3545"/>
    <line x1="259.77" x2="96.5678" y1="618.1135" y2="781.3157"/>
    <line x1="98.7654" x2="98.3532" y1="736.6917" y2="737.1039"/>
    <line x1="104.0293" x2="103.4348" y1="731.4278" y2="732.0223"/>
    <line x1="110.1756" x2="106.1245" y1="725.2815" y2="729.3326"/>
    <line x1="310.3793" x2="106.4349" y1="694.7834" y2="898.7278"/>
    <line x1="110.5124" x2="109.676" y1="838.0818" y2="838.9181"/>
    <line x1="258.1736" x2="110.8791" y1="690.4205" y2="837.715"/>
    <line x1="163.5997" x2="112.9968" y1="671.8573" y2="722.4602"/>
    <line x1="184.4171" x2="117.7322" y1="665.1822" y2="731.8671"/>
    <line x1="252.2892" x2="117.8739" y1="767.0157" y2="901.4309"/>
    <line x1="330.9956" x2="128.4974" y1="702.4514" y2="904.9496"/>
    <line x1="131.6274" x2="130.811" y1="689.6876" y2="690.5039"/>
    <line x1="189.0" x2="132.4739" y1="632.315" y2="688.841"/>
    <line x1="148.6104" x2="134.3752" y1="658.5624" y2="672.7976"/>
    <line x1="144.9342" x2="135.3931" y1="648.0965" y2="657.6375"/>
    <line x1="143.6958" x2="136.3536" y1="635.1928" y2="642.535"/>
    <line x1="329.4739" x2="136.6481" y1="718.1152" y2="910.941"/>
    <line x1="254.9676" x2="142.6803" y1="608.7737" y2="721.061"/>
    <line x1="155.0196" x2="143.3716" y1="609.7267" y2="621.3747"/>
    <line x1="328.3319" x2="145.2312" y1="733.3993" y2="916.5"/>
    <line x1="231.2646" x2="147.1515" y1="561.766" y2="645.8792"/>
    <line x1="268.1043" x2="147.6507" y1="510.7842" y2="631.2379"/>
    <line x1="254.1381" x2="150.0297" y1="553.0347" y2="657.1431"/>
    <line x1="331.4219" x2="156.2902" y1="744.4515" y2="919.5831"/>
    <line x1="199.1714" x2="156.4652" y1="565.5749" y2="608.2812"/>
    <line x1="158.5091" x2="158.3258" y1="592.0951" y2="592.2785"/>
    <line x1="165.2038" x2="163.5699" y1="924.8117" y2="926.4456"/>
    <line x1="268.3125" x2="165.107" y1="567.1446" y2="670.35"/>
    <line x1="310.0432" x2="165.812" y1="779.9723" y2="924.2036"/>
    <line x1="166.4734" x2="166.0067" y1="584.1308" y2="584.5975"/>
    <line x1="181.1193" x2="167.8333" y1="569.485" y2="582.7709"/>
    <line x1="173.1973" x2="172.9324" y1="930.9604" y2="931.2253"/>
    <line x1="268.5753" x2="173.4875" y1="835.5824" y2="930.6702"/>
    <line x1="190.1917" x2="181.4849" y1="560.4125" y2="569.1193"/>
    <line x1="267.5972" x2="186.1404" y1="850.7026" y2="932.1594"/>
    <line x1="265.1932" x2="186.3647" y1="584.406" y2="663.2345"/>
    <line x1="190.2152" x2="189.7558" y1="942.2267" y2="942.6862"/>
    <line x1="246.4921" x2="191.3163" y1="574.8228" y2="629.9987"/>
    <line x1="218.9126" x2="191.5028" y1="531.6916" y2="559.1015"/>
    <line x1="196.1033" x2="193.8257" y1="936.3386" y2="938.6162"/>
    <line x1="208.4645" x2="197.9375" y1="923.9774" y2="934.5044"/>
    <line x1="258.3583" x2="201.0877" y1="506.3881" y2="563.6587"/>
    <line x1="255.5858" x2="201.5674" y1="890.9983" y2="945.0167"/>
    <line x1="206.3485" x2="206.3238" y1="530.1136" y2="530.1383"/>
    <line x1="233.8029" x2="209.7441" y1="502.6592" y2="526.718"/>
    <line x1="264.6723" x2="211.2398" y1="896.0539" y2="949.4864"/>
    <line x1="268.1734" x2="212.192" y1="864.2685" y2="920.2499"/>
    <line x1="220.0" x2="218.0377" y1="954.8683" y2="956.8306"/>
    <line x1="257.7532" x2="219.9014" y1="492.8511" y2="530.7029"/>
    <line x1="275.6202" x2="221.5377" y1="899.2481" y2="953.3306"/>
    <line x1="289.3723" x2="224.7888" y1="899.6382" y2="964.2216"/>
    <line x1="253.275" x2="233.3681" y1="539.7556" y2="559.6625"/>
    <line x1="248.4923" x2="235.2923" y1="487.9698" y2="501.1698"/>
    <line x1="294.1261" x2="237.4299" y1="909.0265" y2="965.7227"/>
    <line x1="255.3129" x2="240.7165" y1="664.997" y2="679.5934"/>
    <line x1="252.3476" x2="240.7831" y1="710.3886" y2="721.9532"/>
    <line x1="257.1693" x2="248.1805" y1="564.1456" y2="573.1344"/>
    <line x1="260.6798" x2="249.6067" y1="475.7823" y2="486.8555"/>
    <line x1="289.9691" x2="251.5692" y1="927.3256" y2="965.7256"/>
    <line x1="265.556" x2="252.6261" y1="668.896" y2="681.826"/>
    <line x1="253.4833" x2="253.4393" y1="709.253" y2="709.297"/>
    <line x1="266.5972" x2="253.7096" y1="752.7076" y2="765.5953"/>
    <line x1="261.4154" x2="254.1679" y1="531.6153" y2="538.8628"/>
    <line x1="263.4711" x2="254.2564" y1="699.2652" y2="708.4799"/>
    <line x1="275.5176" x2="256.1585" y1="644.7923" y2="664.1514"/>
    <line x1="259.3419" x2="257.3036" y1="604.3995" y2="606.4377"/>
    <line x1="297.1316" x2="257.3209" y1="934.3052" y2="974.116"/>
    <line x1="292.6913" x2="257.3602" y1="853.8928" y2="889.2238"/>
    <line x1="269.0064" x2="258.0008" y1="538.1664" y2="549.172"/>
    <line x1="270.3814" x2="259.0829" y1="480.2228" y2="491.5213"/>
    <line x1="260.0845" x2="259.3237" y1="504.6619" y2="505.4227"/>
    <line x1="262.3167" x2="259.759" y1="558.9983" y2="561.5559"/>
    <line x1="269.7039" x2="260.0694" y1="594.0374" y2="603.672"/>
    <line x1="275.4917" x2="260.0735" y1="970.0873" y2="985.5055"/>
    <line x1="261.4672" x2="261.0167" y1="687.127" y2="687.5774"/>
    <line x1="335.5054" x2="261.3024" y1="556.5202" y2="630.7232"/>
    <line x1="261.606" x2="261.5431" y1="503.1404" y2="503.2033"/>
    <line x1="316.4688" x2="261.7142" y1="561.4146" y2="616.1692"/>
    <line x1="267.5775" x2="261.9159" y1="468.8846" y2="474.5463"/>
    <line x1="262.6621" x2="262.0292" y1="530.3685" y2="531.0015"/>
    <line x1="269.4595" x2="262.9446" y1="551.8554" y2="558.3703"/>
    <line x1="263.0489" x2="262.991" y1="501.6975" y2="501.7554"/>
    <line x1="318.0735" x2="263.4006" y1="630.5207" y2="685.1935"/>
    <line x1="271.0508" x2="263.5174" y1="493.6956" y2="501.229"/>
    <line x1="266.8122" x2="263.677" y1="526.2184" y2="529.3537"/>
    <line x1="282.3898" x2="263.7556" y1="977.3313" y2="995.9656"/>
    <line x1="267.8722" x2="266.1885" y1="1005.9911" y2="1007.6747"/>
    <line x1="271.1108" x2="266.3184" y1="691.6255" y2="696.4179"/>
    <line x1="272.4433" x2="266.7235" y1="888.2829" y2="894.0027"/>
    <line x1="317.8526" x2="266.7409" y1="616.5994" y2="667.7112"/>
    <line x1="274.8795" x2="267.3824" y1="574.7197" y2="582.2168"/>
    <line x1="320.3003" x2="267.6795" y1="699.0045" y2="751.6253"/>
    <line x1="274.7247" x2="267.6964" y1="843.5751" y2="850.6034"/>
    <line x1="280.1845" x2="268.4691" y1="852.2574" y2="863.9728"/>
    <line x1="279.0871" x2="268.754" y1="513.9436" y2="524.2766"/>
    <line x1="281.0057" x2="269.2301" y1="625.162" y2="636.9376"/>
    <line x1="279.6058" x2="269.2521" y1="994.2575" y2="1004.6112"/>
    <line x1="269.879" x2="269.332" y1="509.0095" y2="509.5565"/>
    <line x1="270.1269" x2="269.5724" y1="537.0459" y2="537.6004"/>
    <line x1="298.4519" x2="269.5961" y1="805.7058" y2="834.5615"/>
    <line x1="272.1947" x2="270.0312" y1="563.2624" y2="565.4259"/>
    <line x1="277.5561" x2="270.7784" y1="1010.4493" y2="1017.227"/>
    <line x1="275.6166" x2="270.8265" y1="474.9876" y2="479.7777"/>
    <line x1="273.4277" x2="271.5953" y1="533.7451" y2="535.5775"/>
    <line x1="272.7831" x2="271.9278" y1="590.9582" y2="591.8135"/>
    <line x1="275.2888" x2="272.1213" y1="687.4475" y2="690.615"/>
    <line x1="275.3924" x2="272.4165" y1="461.0697" y2="464.0457"/>
    <line x1="276.3239" x2="273.6022" y1="530.8489" y2="533.5706"/>
    <line x1="290.7768" x2="273.6508" y1="869.9494" y2="887.0754"/>
    <line x1="303.6" x2="273.6581" y1="517.715" y2="547.6568"/>
    <line x1="275.6028" x2="274.0196" y1="1026.5448" y2="1028.128"/>
    <line x1="278.7844" x2="274.4366" y1="556.6727" y2="561.0205"/>
    <line x1="317.0466" x2="274.5387" y1="546.6948" y2="589.2027"/>
    <line x1="297.2863" x2="275.5874" y1="821.0135" y2="842.7124"/>
    <line x1="276.2324" x2="276.1883" y1="488.514" y2="488.5581"/>
    <line x1="299.1753" x2="276.3453" y1="550.4239" y2="573.2539"/>
    <line x1="279.5186" x2="276.7455" y1="527.6542" y2="530.4273"/>
    <line x1="297.3849" x2="276.8594" y1="665.3513" y2="685.8769"/>
    <line x1="287.2323" x2="276.9668" y1="958.3467" y2="968.6122"/>
    <line x1="294.6191" x2="277.2453" y1="625.6908" y2="643.0646"/>
    <line x1="289.163" x2="277.8444" y1="885.7053" y2="897.0239"/>
    <line x1="278.4233" x2="278.2415" y1="472.181" y2="472.3628"/>
    <line x1="278.5654" x2="278.4194" y1="486.181" y2="486.327"/>
    <line x1="294.5246" x2="280.3211" y1="540.9325" y2="555.136"/>
    <line x1="282.3375" x2="280.8943" y1="482.4089" y2="483.8521"/>
    <line x1="294.519" x2="281.6793" y1="837.9229" y2="850.7626"/>
    <line x1="282.7347" x2="282.4258" y1="524.4381" y2="524.747"/>
    <line x1="282.8149" x2="282.6423" y1="453.6472" y2="453.8198"/>
    <line x1="340.1929" x2="282.788" y1="565.9749" y2="623.3798"/>
    <line x1="283.7726" x2="282.8993" y1="495.116" y2="495.9892"/>
    <line x1="286.0303" x2="283.5019" y1="973.6909" y2="976.2192"/>
    <line x1="284.4566" x2="284.4123" y1="452.0055" y2="452.0498"/>
    <line x1="286.9825" x2="285.4846" y1="986.8808" y2="988.3787"/>
    <line x1="288.2381" x2="285.4978" y1="490.6504" y2="493.3907"/>
    <line x1="286.0279" x2="285.8424" y1="1001.9775" y2="1002.1631"/>
    <line x1="287.2011" x2="286.3125" y1="519.9717" y2="520.8603"/>
    <line x1="286.9061" x2="286.5591" y1="477.8403" y2="478.1873"/>
    <line x1="287.2811" x2="287.1329" y1="449.181" y2="449.3292"/>
    <line x1="287.3647" x2="287.1635" y1="463.2396" y2="463.4408"/>
    <line x1="293.4233" x2="288.3568" y1="966.2979" y2="971.3643"/>
    <line x1="306.674" x2="289.0875" y1="938.905" y2="956.4915"/>
    <line x1="290.3363" x2="289.1939" y1="1011.8112" y2="1012.9536"/>
    <line x1="290.4489" x2="290.0353" y1="502.5817" y2="502.9953"/>
    <line x1="290.3142" x2="290.2014" y1="516.8586" y2="516.9714"/>
    <line x1="297.2015" x2="291.527" y1="920.0932" y2="925.7678"/>
    <line x1="292.9796" x2="291.7416" y1="980.8837" y2="982.1217"/>
    <line x1="293.5953" x2="291.8081" y1="499.4353" y2="501.2226"/>
    <line x1="300.9349" x2="292.6955" y1="506.2379" y2="514.4773"/>
    <line x1="294.3527" x2="292.9441" y1="484.5358" y2="485.9444"/>
    <line x1="293.8849" x2="293.5919" y1="470.8614" y2="471.1545"/>
    <line x1="294.8719" x2="294.0739" y1="993.1335" y2="993.9315"/>
    <line x1="294.6625" x2="294.653" y1="498.3681" y2="498.3777"/>
    <line x1="296.0188" x2="294.9855" y1="907.1338" y2="908.1671"/>
    <line x1="295.5951" x2="295.5337" y1="483.2934" y2="483.3549"/>
    <line x1="297.0834" x2="296.0011" y1="538.3737" y2="539.456"/>
    <line x1="296.7833" x2="296.1385" y1="453.8209" y2="454.4657"/>
    <line x1="342.6565" x2="296.3452" y1="577.6534" y2="623.9647"/>
    <line x1="298.7222" x2="296.5356" y1="494.3084" y2="496.4951"/>
    <line x1="298.1917" x2="296.8504" y1="975.6716" y2="977.0128"/>
    <line x1="298.0658" x2="297.0388" y1="480.8227" y2="481.8497"/>
    <line x1="300.41" x2="297.0603" y1="959.3111" y2="962.6609"/>
    <line x1="298.169" x2="298.0932" y1="919.1258" y2="919.2015"/>
    <line x1="299.6015" x2="298.4643" y1="451.0028" y2="452.14"/>
    <line x1="306.128" x2="298.6129" y1="656.6082" y2="664.1234"/>
    <line x1="305.2417" x2="298.7439" y1="530.2153" y2="536.7132"/>
    <line x1="300.0379" x2="298.82" y1="832.404" y2="833.6219"/>
    <line x1="302.3745" x2="299.1843" y1="985.6309" y2="988.8211"/>
    <line x1="305.3241" x2="299.2943" y1="431.138" y2="437.1678"/>
    <line x1="302.3389" x2="299.4222" y1="815.9609" y2="818.8776"/>
    <line x1="299.9388" x2="299.4665" y1="973.9245" y2="974.3968"/>
    <line x1="303.8086" x2="300.2687" y1="927.6283" y2="931.1682"/>
    <line x1="301.7312" x2="300.3374" y1="915.5636" y2="916.9573"/>
    <line x1="328.3602" x2="300.4236" y1="775.7975" y2="803.734"/>
    <line x1="303.0281" x2="300.8317" y1="970.8352" y2="973.0315"/>
    <line x1="301.1792" x2="300.842" y1="548.42" y2="548.7572"/>
    <line x1="300.9848" x2="300.9229" y1="449.6194" y2="449.6813"/>
    <line x1="303.348" x2="301.0503" y1="829.0939" y2="831.3916"/>
    <line x1="302.2522" x2="301.3921" y1="490.7784" y2="491.6386"/>
    <line x1="312.097" x2="301.5451" y1="947.6242" y2="958.176"/>
    <line x1="301.9503" x2="301.7861" y1="844.6337" y2="844.7979"/>
    <line x1="302.3745" x2="302.307" y1="462.3719" y2="462.4394"/>
    <line x1="302.7853" x2="302.5878" y1="504.3875" y2="504.585"/>
    <line x1="303.4835" x2="302.6249" y1="913.8113" y2="914.6699"/>
    <line x1="307.2342" x2="302.9711" y1="669.6442" y2="673.9073"/>
    <line x1="304.1141" x2="303.7398" y1="983.8913" y2="984.2656"/>
    <line x1="305.3613" x2="304.5109" y1="968.502" y2="969.3524"/>
    <line x1="305.4113" x2="304.8011" y1="544.1879" y2="544.7981"/>
    <line x1="306.0434" x2="305.3192" y1="840.5407" y2="841.2649"/>
    <line x1="309.6221" x2="305.5604" y1="511.6928" y2="515.7545"/>
    <line x1="311.0515" x2="305.6525" y1="496.1213" y2="501.5203"/>
    <line x1="315.4431" x2="306.1749" y1="520.0139" y2="529.2821"/>
    <line x1="307.8026" x2="306.3485" y1="428.6595" y2="430.1136"/>
    <line x1="307.3556" x2="306.4406" y1="825.0863" y2="826.0014"/>
    <line x1="309.2299" x2="306.5895" y1="653.5064" y2="656.1468"/>
    <line x1="310.7594" x2="307.0625" y1="807.5404" y2="811.2373"/>
    <line x1="317.5212" x2="307.0843" y1="956.342" y2="966.779"/>
    <line x1="309.506" x2="307.4793" y1="681.5145" y2="683.5412"/>
    <line x1="307.6676" x2="307.639" y1="937.9114" y2="937.94"/>
    <line x1="310.8165" x2="308.2625" y1="468.0721" y2="470.6261"/>
    <line x1="311.5686" x2="308.6591" y1="424.8935" y2="427.803"/>
    <line x1="313.7317" x2="308.6859" y1="535.8675" y2="540.9133"/>
    <line x1="309.6056" x2="309.0315" y1="667.2728" y2="667.8469"/>
    <line x1="313.0863" x2="309.9447" y1="819.3556" y2="822.4972"/>
    <line x1="310.6729" x2="310.5503" y1="1005.6167" y2="1005.7393"/>
    <line x1="311.5766" x2="310.6964" y1="976.4288" y2="977.3091"/>
    <line x1="316.458" x2="310.7796" y1="504.8569" y2="510.5354"/>
    <line x1="311.1872" x2="310.9447" y1="439.417" y2="439.6596"/>
    <line x1="312.3552" x2="310.9731" y1="650.3811" y2="651.7632"/>
    <line x1="316.013" x2="311.4884" y1="830.5711" y2="835.0956"/>
    <line x1="313.4812" x2="311.5142" y1="847.245" y2="849.212"/>
    <line x1="313.2092" x2="311.8364" y1="691.9535" y2="693.3263"/>
    <line x1="317.764" x2="311.8893" y1="475.2667" y2="481.1413"/>
    <line x1="324.1616" x2="312.0284" y1="765.8539" y2="777.9871"/>
    <line x1="313.6405" x2="312.0702" y1="465.248" y2="466.8183"/>
    <line x1="315.4916" x2="312.1183" y1="802.8082" y2="806.1815"/>
    <line x1="312.3456" x2="312.3068" y1="678.675" y2="678.7137"/>
    <line x1="326.4199" x2="312.4627" y1="961.5855" y2="975.5427"/>
    <line x1="319.6238" x2="312.622" y1="657.2546" y2="664.2564"/>
    <line x1="313.1721" x2="312.787" y1="904.1227" y2="904.5078"/>
    <line x1="331.7916" x2="312.8697" y1="432.9548" y2="451.8767"/>
    <line x1="321.1631" x2="313.1283" y1="641.5732" y2="649.608"/>
    <line x1="314.3592" x2="313.4542" y1="690.8035" y2="691.7085"/>
    <line x1="315.0775" x2="313.5791" y1="421.3846" y2="422.8831"/>
    <line x1="313.6881" x2="313.6163" y1="917.7488" y2="917.8205"/>
    <line x1="318.4491" x2="314.44" y1="672.5714" y2="676.5806"/>
    <line x1="333.3635" x2="315.2235" y1="417.2408" y2="435.3808"/>
    <line x1="319.7849" x2="315.4563" y1="529.8143" y2="534.1429"/>
    <line x1="318.9349" x2="315.8014" y1="813.507" y2="816.6405"/>
    <line x1="324.6597" x2="316.6679" y1="411.8024" y2="419.7942"/>
    <line x1="317.4858" x2="317.061" y1="913.9511" y2="914.3759"/>
    <line x1="361.6019" x2="317.1371" y1="756.6978" y2="801.1627"/>
    <line x1="325.2384" x2="317.2443" y1="510.2187" y2="518.2127"/>
    <line x1="317.3996" x2="317.315" y1="998.8901" y2="998.9747"/>
    <line x1="318.6238" x2="317.5835" y1="827.9603" y2="829.0006"/>
    <line x1="318.1606" x2="317.7953" y1="559.7229" y2="560.0882"/>
    <line x1="331.9436" x2="318.4735" y1="545.9399" y2="559.41"/>
    <line x1="319.9293" x2="318.4743" y1="501.3856" y2="502.8407"/>
    <line x1="320.494" x2="319.3863" y1="995.7957" y2="996.9034"/>
    <line x1="320.667" x2="319.6916" y1="910.7699" y2="911.7453"/>
    <line x1="320.1309" x2="319.7938" y1="458.7576" y2="459.0948"/>
    <line x1="326.8499" x2="319.894" y1="975.2976" y2="982.2536"/>
    <line x1="322.8303" x2="319.9034" y1="540.9111" y2="543.8379"/>
    <line x1="324.2828" x2="319.9338" y1="482.89" y2="487.239"/>
    <line x1="321.6572" x2="320.1836" y1="626.937" y2="628.4105"/>
    <line x1="320.7624" x2="320.4152" y1="1009.6695" y2="1010.0166"/>
    <line x1="346.2685" x2="320.6921" y1="786.1734" y2="811.7498"/>
    <line x1="322.9864" x2="321.0527" y1="837.7398" y2="839.6735"/>
    <line x1="331.0425" x2="321.1663" y1="518.5567" y2="528.4329"/>
    <line x1="324.7645" x2="321.3538" y1="892.5302" y2="895.9409"/>
    <line x1="322.1028" x2="322.0694" y1="881.0497" y2="881.0832"/>
    <line x1="325.4245" x2="322.0744" y1="679.7382" y2="683.0883"/>
    <line x1="354.7697" x2="322.0776" y1="791.8143" y2="824.5065"/>
    <line x1="324.9934" x2="322.8154" y1="637.7429" y2="639.9209"/>
    <line x1="345.1395" x2="323.0111" y1="589.3125" y2="611.4409"/>
    <line x1="324.3093" x2="323.6553" y1="907.1275" y2="907.7815"/>
    <line x1="337.774" x2="323.7128" y1="483.541" y2="497.6021"/>
    <line x1="325.2923" x2="324.3652" y1="1005.1395" y2="1006.0666"/>
    <line x1="324.7" x2="324.6278" y1="623.8942" y2="623.9663"/>
    <line x1="332.4887" x2="324.6808" y1="983.801" y2="991.6089"/>
    <line x1="327.679" x2="325.2067" y1="833.0472" y2="835.5195"/>
    <line x1="357.1975" x2="325.3216" y1="506.5439" y2="538.4197"/>
    <line x1="328.7635" x2="325.3529" y1="648.1149" y2="651.5255"/>
    <line x1="325.7929" x2="325.6612" y1="877.3597" y2="877.4913"/>
    <line x1="329.3796" x2="325.7158" y1="407.0825" y2="410.7463"/>
    <line x1="328.1751" x2="325.8883" y1="662.8454" y2="665.1322"/>
    <line x1="330.7878" x2="325.9515" y1="1013.7862" y2="1018.6225"/>
    <line x1="326.7212" x2="326.3776" y1="1031.9949" y2="1032.3385"/>
    <line x1="331.8344" x2="327.7625" y1="913.7446" y2="917.8165"/>
    <line x1="329.0807" x2="328.3457" y1="760.9348" y2="761.6698"/>
    <line x1="333.6382" x2="329.0876" y1="968.5094" y2="973.0599"/>
    <line x1="329.5044" x2="329.1447" y1="901.9324" y2="902.2922"/>
    <line x1="339.4992" x2="329.1814" y1="1019.2169" y2="1029.5347"/>
    <line x1="345.5625" x2="329.3697" y1="489.8946" y2="506.0874"/>
    <line x1="330.5968" x2="329.4008" y1="476.576" y2="477.772"/>
    <line x1="333.9899" x2="329.413" y1="727.7413" y2="732.3183"/>
    <line x1="346.9612" x2="329.5586" y1="601.633" y2="619.0356"/>
    <line x1="336.2026" x2="329.5885" y1="994.2292" y2="1000.8433"/>
    <line x1="329.9268" x2="329.7157" y1="463.1039" y2="463.3149"/>
    <line x1="331.924" x2="329.7604" y1="446.9645" y2="449.1281"/>
    <line x1="330.2498" x2="330.1355" y1="830.4764" y2="830.5907"/>
    <line x1="332.2315" x2="330.2127" y1="715.3576" y2="717.3764"/>
    <line x1="338.2195" x2="330.3071" y1="836.6488" y2="844.5613"/>
    <line x1="333.2913" x2="330.686" y1="473.8815" y2="476.4867"/>
    <line x1="331.0107" x2="330.7586" y1="773.147" y2="773.3991"/>
    <line x1="333.6536" x2="330.8775" y1="883.6411" y2="886.4173"/>
    <line x1="332.5356" x2="331.1538" y1="644.3429" y2="645.7246"/>
    <line x1="349.5376" x2="331.6012" y1="740.4779" y2="758.4143"/>
    <line x1="336.4451" x2="331.9848" y1="767.7125" y2="772.1728"/>
    <line x1="339.7398" x2="332.3683" y1="453.2909" y2="460.6624"/>
    <line x1="337.4201" x2="332.5298" y1="823.3061" y2="828.1963"/>
    <line x1="333.2671" x2="332.5606" y1="516.3321" y2="517.0387"/>
    <line x1="336.6853" x2="333.1039" y1="654.3352" y2="657.9167"/>
    <line x1="333.8868" x2="333.3959" y1="741.9866" y2="742.4775"/>
    <line x1="336.3974" x2="333.5809" y1="428.349" y2="431.1655"/>
    <line x1="333.8937" x2="333.6493" y1="444.9949" y2="445.2392"/>
    <line x1="338.5051" x2="334.0239" y1="892.9318" y2="897.413"/>
    <line x1="365.8918" x2="334.1245" y1="511.9917" y2="543.759"/>
    <line x1="344.067" x2="334.3616" y1="1000.5069" y2="1010.2124"/>
    <line x1="335.0574" x2="334.3923" y1="981.2323" y2="981.8974"/>
    <line x1="339.9388" x2="334.5235" y1="622.7975" y2="628.2128"/>
    <line x1="334.7989" x2="334.544" y1="642.0795" y2="642.3344"/>
    <line x1="348.3873" x2="334.6847" y1="727.486" y2="741.1886"/>
    <line x1="339.0756" x2="335.2758" y1="1033.7827" y2="1037.5824"/>
    <line x1="336.1043" x2="335.4574" y1="909.4747" y2="910.1216"/>
    <line x1="337.8216" x2="335.6409" y1="441.067" y2="443.2476"/>
    <line x1="336.8522" x2="335.7875" y1="668.3105" y2="669.3752"/>
    <line x1="336.1794" x2="335.9892" y1="980.1103" y2="980.3005"/>
    <line x1="342.744" x2="336.0359" y1="464.4288" y2="471.1369"/>
    <line x1="344.5591" x2="336.7662" y1="717.1722" y2="724.9651"/>
    <line x1="340.8291" x2="336.8934" y1="551.1965" y2="555.1322"/>
    <line x1="339.3195" x2="336.9537" y1="976.9702" y2="979.336"/>
    <line x1="356.2725" x2="336.9908" y1="747.8851" y2="767.1668"/>
    <line x1="337.9179" x2="337.3468" y1="992.5139" y2="993.085"/>
    <line x1="359.7378" x2="337.7322" y1="489.8614" y2="511.8671"/>
    <line x1="338.3508" x2="337.7477" y1="850.6596" y2="851.2628"/>
    <line x1="351.115" x2="338.0039" y1="809.6112" y2="822.7223"/>
    <line x1="340.1396" x2="338.0386" y1="905.4394" y2="907.5404"/>
    <line x1="339.0639" x2="338.3458" y1="920.6573" y2="921.3753"/>
    <line x1="338.4582" x2="338.3908" y1="426.2881" y2="426.3556"/>
    <line x1="338.5847" x2="338.4303" y1="666.578" y2="666.7324"/>
    <line x1="357.7534" x2="338.4491" y1="817.115" y2="836.4193"/>
    <line x1="342.8947" x2="339.2886" y1="478.4203" y2="482.0264"/>
    <line x1="340.1525" x2="339.383" y1="636.7259" y2="637.4955"/>
    <line x1="341.1863" x2="339.7494" y1="423.5601" y2="424.997"/>
    <line x1="340.3195" x2="339.8617" y1="438.569" y2="439.0268"/>
    <line x1="344.3105" x2="339.8631" y1="1014.4056" y2="1018.853"/>
    <line x1="340.5727" x2="339.893" y1="989.8591" y2="990.5388"/>
    <line x1="341.0288" x2="340.0522" y1="862.1238" y2="863.1004"/>
    <line x1="348.1007" x2="340.5109" y1="911.6204" y2="919.2102"/>
    <line x1="342.0345" x2="340.5519" y1="846.976" y2="848.4586"/>
    <line x1="340.8072" x2="340.5609" y1="890.6297" y2="890.876"/>
    <line x1="341.029" x2="340.7738" y1="932.8343" y2="933.0894"/>
    <line x1="341.8625" x2="340.7919" y1="635.0159" y2="636.0865"/>
    <line x1="341.7521" x2="341.6463" y1="649.2684" y2="649.3743"/>
    <line x1="344.9709" x2="341.7138" y1="1027.8873" y2="1031.1444"/>
    <line x1="345.3" x2="341.8029" y1="985.1318" y2="988.6289"/>
    <line x1="351.9669" x2="342.1081" y1="540.0587" y2="549.9175"/>
    <line x1="344.1041" x2="342.1895" y1="618.6322" y2="620.5468"/>
    <line x1="362.3819" x2="342.5454" y1="543.7858" y2="563.6224"/>
    <line x1="344.3547" x2="342.6227" y1="632.5238" y2="634.2557"/>
    <line x1="343.5392" x2="343.0" y1="902.0398" y2="902.579"/>
    <line x1="343.7837" x2="343.1516" y1="449.2469" y2="449.8791"/>
    <line x1="344.2878" x2="343.3386" y1="858.8648" y2="859.8139"/>
    <line x1="348.4023" x2="343.7748" y1="897.1767" y2="901.8042"/>
    <line x1="355.8326" x2="343.829" y1="833.1778" y2="845.1815"/>
    <line x1="347.1799" x2="344.437" y1="643.8407" y2="646.5836"/>
    <line x1="349.3633" x2="344.7227" y1="924.5" y2="929.1406"/>
    <line x1="352.8308" x2="344.8592" y1="567.4791" y2="575.4506"/>
    <line x1="345.4397" x2="345.143" y1="1041.5607" y2="1041.8573"/>
    <line x1="347.3714" x2="345.8297" y1="997.2025" y2="998.7443"/>
    <line x1="346.461" x2="346.1563" y1="983.9708" y2="984.2756"/>
    <line x1="357.5682" x2="346.243" y1="845.5844" y2="856.9096"/>
    <line x1="350.6775" x2="346.591" y1="612.0588" y2="616.1453"/>
    <line x1="350.6466" x2="346.7864" y1="1036.3537" y2="1040.2139"/>
    <line x1="347.1835" x2="346.8642" y1="629.6949" y2="630.0142"/>
    <line x1="355.585" x2="347.0366" y1="578.8671" y2="587.4154"/>
    <line x1="348.5721" x2="347.198" y1="1010.144" y2="1011.5181"/>
    <line x1="349.3716" x2="347.7365" y1="655.7911" y2="657.4262"/>
    <line x1="349.7567" x2="348.0026" y1="598.8374" y2="600.5915"/>
    <line x1="354.9906" x2="348.0156" y1="777.4513" y2="784.4263"/>
    <line x1="348.8261" x2="348.6669" y1="868.4686" y2="868.6279"/>
    <line x1="350.9629" x2="348.7498" y1="993.611" y2="995.8242"/>
    <line x1="351.9623" x2="349.2783" y1="1020.8959" y2="1023.58"/>
    <line x1="354.4172" x2="349.3927" y1="721.4561" y2="726.4807"/>
    <line x1="350.6218" x2="349.5743" y1="866.673" y2="867.7204"/>
    <line x1="355.6574" x2="349.7244" y1="621.221" y2="627.154"/>
    <line x1="356.2254" x2="349.8114" y1="733.7902" y2="740.2041"/>
    <line x1="350.2536" x2="350.0454" y1="683.1934" y2="683.4016"/>
    <line x1="351.0288" x2="350.607" y1="1007.6873" y2="1008.1091"/>
    <line x1="352.5633" x2="350.824" y1="907.1578" y2="908.8971"/>
    <line x1="351.8323" x2="351.4015" y1="667.4726" y2="667.9033"/>
    <line x1="357.0193" x2="351.6988" y1="803.7069" y2="809.0274"/>
    <line x1="356.5526" x2="352.3639" y1="592.0416" y2="596.2302"/>
    <line x1="352.699" x2="352.3849" y1="1034.3013" y2="1034.6154"/>
    <line x1="364.0847" x2="353.0646" y1="853.21" y2="864.2302"/>
    <line x1="356.3934" x2="354.3969" y1="634.6272" y2="636.6237"/>
    <line x1="354.726" x2="354.4045" y1="678.721" y2="679.0425"/>
    <line x1="355.2371" x2="354.4897" y1="692.352" y2="693.0994"/>
    <line x1="356.0045" x2="355.5555" y1="1002.7116" y2="1003.1606"/>
    <line x1="358.5039" x2="355.9507" y1="561.806" y2="564.3592"/>
    <line x1="356.0323" x2="355.952" y1="606.704" y2="606.7843"/>
    <line x1="358.7985" x2="356.1078" y1="717.0749" y2="719.7656"/>
    <line x1="356.276" x2="356.2262" y1="535.7496" y2="535.7994"/>
    <line x1="359.9935" x2="356.4161" y1="532.0322" y2="535.6095"/>
    <line x1="358.1795" x2="356.5528" y1="703.5517" y2="705.1785"/>
    <line x1="360.8649" x2="356.6063" y1="870.572" y2="874.8306"/>
    <line x1="359.5664" x2="356.9122" y1="631.4542" y2="634.1084"/>
    <line x1="357.8591" x2="357.4959" y1="732.1564" y2="732.5196"/>
    <line x1="363.7751" x2="357.8725" y1="570.6769" y2="576.5795"/>
    <line x1="359.2936" x2="357.9345" y1="829.7168" y2="831.0759"/>
    <line x1="358.7204" x2="357.9602" y1="787.8637" y2="788.6238"/>
    <line x1="359.5405" x2="357.9877" y1="617.3379" y2="618.8907"/>
    <line x1="359.2927" x2="358.2909" y1="773.1493" y2="774.151"/>
    <line x1="359.9028" x2="358.9885" y1="588.6914" y2="589.6057"/>
    <line x1="363.5558" x2="359.4789" y1="740.6019" y2="744.6787"/>
    <line x1="361.2626" x2="359.6834" y1="841.89" y2="843.4692"/>
    <line x1="365.7564" x2="360.2676" y1="554.5535" y2="560.0422"/>
    <line x1="369.6831" x2="360.3878" y1="593.0532" y2="602.3485"/>
    <line x1="361.5871" x2="360.6042" y1="813.2812" y2="814.2641"/>
    <line x1="360.7608" x2="360.6108" y1="403.9856" y2="404.1356"/>
    <line x1="362.4724" x2="360.6505" y1="826.5381" y2="828.36"/>
    <line x1="361.3391" x2="361.245" y1="785.245" y2="785.3391"/>
    <line x1="362.908" x2="361.6595" y1="529.1176" y2="530.3662"/>
    <line x1="363.4137" x2="361.6979" y1="754.886" y2="756.6019"/>
    <line x1="367.3769" x2="361.767" y1="581.2173" y2="586.8272"/>
    <line x1="362.8442" x2="361.9605" y1="416.0443" y2="416.9281"/>
    <line x1="364.8458" x2="362.2182" y1="682.7433" y2="685.3709"/>
    <line x1="363.6349" x2="362.2602" y1="881.9441" y2="883.3188"/>
    <line x1="363.7153" x2="362.4959" y1="613.1631" y2="614.3826"/>
    <line x1="362.9926" x2="362.5138" y1="430.0381" y2="430.5168"/>
    <line x1="380.0801" x2="363.074" y1="964.4939" y2="981.5"/>
    <line x1="363.0897" x2="363.0841" y1="783.4944" y2="783.5"/>
    <line x1="363.5185" x2="363.1053" y1="825.4919" y2="825.9051"/>
    <line x1="364.8196" x2="363.4907" y1="781.7645" y2="783.0933"/>
    <line x1="363.9857" x2="363.765" y1="740.172" y2="740.3927"/>
    <line x1="367.4457" x2="363.8627" y1="538.7221" y2="542.305"/>
    <line x1="364.0397" x2="363.9174" y1="754.2601" y2="754.3824"/>
    <line x1="364.6337" x2="364.5401" y1="810.2346" y2="810.3282"/>
    <line x1="369.0669" x2="364.581" y1="522.9587" y2="527.4446"/>
    <line x1="371.4817" x2="364.6874" y1="562.9703" y2="569.7647"/>
    <line x1="365.2993" x2="364.9207" y1="880.2797" y2="880.6583"/>
    <line x1="373.5504" x2="364.9455" y1="758.8915" y2="767.4964"/>
    <line x1="368.9069" x2="365.1777" y1="622.1136" y2="625.8428"/>
    <line x1="365.3429" x2="365.2165" y1="908.5203" y2="908.6468"/>
    <line x1="367.4789" x2="365.2225" y1="609.3996" y2="611.6559"/>
    <line x1="365.6701" x2="365.6459" y1="738.4875" y2="738.5118"/>
    <line x1="367.0448" x2="365.7581" y1="963.387" y2="964.6738"/>
    <line x1="366.2752" x2="365.8219" y1="893.4459" y2="893.8992"/>
    <line x1="368.5691" x2="366.6423" y1="693.1622" y2="695.089"/>
    <line x1="367.9574" x2="366.6785" y1="905.9059" y2="907.1848"/>
    <line x1="368.9252" x2="366.7816" y1="735.2324" y2="737.3761"/>
    <line x1="367.6763" x2="367.108" y1="877.9027" y2="878.471"/>
    <line x1="367.3282" x2="367.3042" y1="835.8244" y2="835.8484"/>
    <line x1="371.9698" x2="368.0427" y1="604.9086" y2="608.8357"/>
    <line x1="372.0581" x2="368.1457" y1="534.1096" y2="538.0221"/>
    <line x1="369.1835" x2="368.2194" y1="551.1264" y2="552.0905"/>
    <line x1="370.3633" x2="368.2321" y1="945.9264" y2="948.0576"/>
    <line x1="368.7416" x2="368.3085" y1="509.1418" y2="509.5749"/>
    <line x1="369.1055" x2="368.4057" y1="579.4886" y2="580.1884"/>
    <line x1="369.8948" x2="368.5171" y1="705.9786" y2="707.3563"/>
    <line x1="369.02" x2="368.5366" y1="650.2849" y2="650.7682"/>
    <line x1="370.4153" x2="368.6407" y1="747.8845" y2="749.659"/>
    <line x1="369.6018" x2="369.0731" y1="875.9772" y2="876.5059"/>
    <line x1="369.619" x2="369.0921" y1="635.5437" y2="636.0706"/>
    <line x1="369.3632" x2="369.219" y1="862.0737" y2="862.2178"/>
    <line x1="373.0525" x2="369.488" y1="575.5416" y2="579.1062"/>
    <line x1="370.7777" x2="369.9502" y1="549.5322" y2="550.3597"/>
    <line x1="373.3585" x2="370.2204" y1="900.5048" y2="903.6429"/>
    <line x1="374.5937" x2="370.6983" y1="588.1426" y2="592.038"/>
    <line x1="370.7725" x2="370.7686" y1="422.2582" y2="422.262"/>
    <line x1="371.2957" x2="370.8236" y1="789.4305" y2="789.9026"/>
    <line x1="374.697" x2="370.9153" y1="432.4758" y2="436.2575"/>
    <line x1="373.5053" x2="370.9691" y1="518.5203" y2="521.0566"/>
    <line x1="371.4897" x2="371.2343" y1="859.9472" y2="860.2026"/>
    <line x1="371.6546" x2="371.5937" y1="718.361" y2="718.4218"/>
    <line x1="374.2321" x2="372.0745" y1="744.0677" y2="746.2253"/>
    <line x1="373.0371" x2="372.1661" y1="632.1256" y2="632.9966"/>
    <line x1="373.997" x2="372.2038" y1="617.0235" y2="618.8168"/>
    <line x1="373.0574" x2="372.2347" y1="943.2323" y2="944.055"/>
    <line x1="373.6781" x2="372.3858" y1="688.0532" y2="689.3454"/>
    <line x1="373.1503" x2="372.4489" y1="405.7382" y2="406.4396"/>
    <line x1="375.9233" x2="372.5786" y1="445.3916" y2="448.7363"/>
    <line x1="373.3628" x2="373.0229" y1="914.6426" y2="914.9825"/>
    <line x1="374.8967" x2="373.3538" y1="531.2711" y2="532.814"/>
    <line x1="375.2064" x2="373.5802" y1="842.0883" y2="843.7145"/>
    <line x1="373.6429" x2="373.595" y1="603.2355" y2="603.2834"/>
    <line x1="374.1329" x2="373.5969" y1="786.5933" y2="787.1293"/>
    <line x1="374.7463" x2="373.7318" y1="899.1169" y2="900.1314"/>
    <line x1="374.1662" x2="373.7965" y1="772.4179" y2="772.7876"/>
    <line x1="373.8355" x2="373.7975" y1="956.5963" y2="956.6343"/>
    <line x1="374.1235" x2="373.8745" y1="418.9072" y2="419.1562"/>
    <line x1="376.8537" x2="374.1131" y1="882.8675" y2="885.6081"/>
    <line x1="376.3905" x2="374.1621" y1="939.8991" y2="942.1276"/>
    <line x1="376.8557" x2="375.0776" y1="769.7284" y2="771.5065"/>
    <line x1="375.3325" x2="375.2218" y1="926.815" y2="926.9258"/>
    <line x1="375.5824" x2="375.2854" y1="728.5752" y2="728.8722"/>
    <line x1="376.2162" x2="375.3992" y1="954.2156" y2="955.0326"/>
    <line x1="377.5371" x2="375.6305" y1="783.1891" y2="785.0957"/>
    <line x1="376.1245" x2="375.9668" y1="869.4545" y2="869.6122"/>
    <line x1="376.9709" x2="376.1189" y1="416.0598" y2="416.9118"/>
    <line x1="376.8549" x2="376.2893" y1="854.5819" y2="855.1475"/>
    <line x1="377.1531" x2="376.362" y1="430.0197" y2="430.8108"/>
    <line x1="376.5482" x2="376.3891" y1="628.6145" y2="628.7736"/>
    <line x1="376.6563" x2="376.4234" y1="472.9429" y2="473.1758"/>
    <line x1="378.4472" x2="376.4825" y1="640.8577" y2="642.8223"/>
    <line x1="377.2459" x2="376.7109" y1="458.2111" y2="458.7461"/>
    <line x1="378.6748" x2="377.0862" y1="569.9194" y2="571.508"/>
    <line x1="377.6488" x2="377.1536" y1="599.2296" y2="599.7248"/>
    <line x1="380.3336" x2="377.1565" y1="950.0982" y2="953.2753"/>
    <line x1="379.8023" x2="377.4272" y1="526.3655" y2="528.7406"/>
    <line x1="377.8375" x2="377.4935" y1="542.4724" y2="542.8164"/>
    <line x1="382.4749" x2="377.702" y1="764.1091" y2="768.8821"/>
    <line x1="384.2475" x2="378.467" y1="932.0422" y2="937.8227"/>
    <line x1="382.2532" x2="378.5272" y1="538.0567" y2="541.7827"/>
    <line x1="379.3586" x2="378.7634" y1="922.789" y2="923.3841"/>
    <line x1="381.9364" x2="378.7802" y1="849.5004" y2="852.6566"/>
    <line x1="388.2791" x2="378.8584" y1="447.178" y2="456.5987"/>
    <line x1="380.0333" x2="378.9573" y1="610.9873" y2="612.0632"/>
    <line x1="379.1239" x2="379.0105" y1="795.7444" y2="795.8579"/>
    <line x1="379.1142" x2="379.0328" y1="725.0435" y2="725.1248"/>
    <line x1="380.8889" x2="379.2673" y1="907.1165" y2="908.7381"/>
    <line x1="381.1421" x2="379.6336" y1="482.5993" y2="484.1077"/>
    <line x1="380.2208" x2="379.679" y1="412.8099" y2="413.3517"/>
    <line x1="383.4102" x2="380.0611" y1="635.8946" y2="639.2437"/>
    <line x1="382.1359" x2="380.0642" y1="425.0369" y2="427.1086"/>
    <line x1="394.859" x2="380.3958" y1="454.7403" y2="469.2034"/>
    <line x1="380.8203" x2="380.4139" y1="511.2053" y2="511.6117"/>
    <line x1="380.6778" x2="380.5963" y1="780.0484" y2="780.1299"/>
    <line x1="381.1776" x2="380.6682" y1="892.6857" y2="893.1951"/>
    <line x1="381.1834" x2="380.919" y1="793.6849" y2="793.9493"/>
    <line x1="383.2752" x2="380.9257" y1="947.1566" y2="949.5061"/>
    <line x1="384.4041" x2="381.4833" y1="649.0429" y2="651.9637"/>
    <line x1="382.2578" x2="381.5131" y1="410.7728" y2="411.5175"/>
    <line x1="382.0186" x2="381.6447" y1="750.4234" y2="750.7972"/>
    <line x1="381.7929" x2="381.7831" y1="665.7962" y2="665.806"/>
    <line x1="385.0662" x2="382.1085" y1="436.2488" y2="439.2064"/>
    <line x1="382.2595" x2="382.1513" y1="778.4666" y2="778.5749"/>
    <line x1="382.5017" x2="382.2048" y1="863.0773" y2="863.3742"/>
    <line x1="385.0299" x2="382.7984" y1="959.5441" y2="961.7755"/>
    <line x1="383.8345" x2="382.9981" y1="791.0338" y2="791.8702"/>
    <line x1="394.7167" x2="383.4675" y1="907.4308" y2="918.68"/>
    <line x1="403.4685" x2="383.7098" y1="460.2728" y2="480.0315"/>
    <line x1="384.4872" x2="384.2425" y1="846.9496" y2="847.1944"/>
    <line x1="384.86" x2="384.429" y1="422.3128" y2="422.7438"/>
    <line x1="384.8773" x2="384.4352" y1="705.1383" y2="705.5803"/>
    <line x1="384.6943" x2="384.5296" y1="776.0319" y2="776.1966"/>
    <line x1="384.9365" x2="384.6265" y1="945.4953" y2="945.8053"/>
    <line x1="385.1834" x2="384.7284" y1="535.1265" y2="535.5815"/>
    <line x1="386.1614" x2="384.9334" y1="887.7019" y2="888.9299"/>
    <line x1="386.0852" x2="385.3272" y1="576.6511" y2="577.4091"/>
    <line x1="387.1158" x2="385.4938" y1="858.4632" y2="860.0852"/>
    <line x1="387.2303" x2="385.5257" y1="957.3436" y2="959.0482"/>
    <line x1="386.9839" x2="385.5453" y1="490.8996" y2="492.3382"/>
    <line x1="386.8134" x2="385.7016" y1="872.9078" y2="874.0195"/>
    <line x1="385.9324" x2="385.8502" y1="633.3725" y2="633.4546"/>
    <line x1="389.7024" x2="385.8677" y1="898.303" y2="902.1377"/>
    <line x1="387.2048" x2="386.213" y1="547.2472" y2="548.239"/>
    <line x1="389.0926" x2="386.3551" y1="927.1971" y2="929.9345"/>
    <line x1="387.4387" x2="386.4273" y1="518.7291" y2="519.7405"/>
    <line x1="387.3033" x2="386.4768" y1="646.1437" y2="646.9702"/>
    <line x1="389.3623" x2="386.5967" y1="941.0695" y2="943.8351"/>
    <line x1="388.5685" x2="387.0922" y1="984.2897" y2="985.766"/>
    <line x1="387.1667" x2="387.1361" y1="787.7017" y2="787.7322"/>
    <line x1="387.5757" x2="387.4442" y1="419.5971" y2="419.7286"/>
    <line x1="388.9825" x2="388.3499" y1="573.7538" y2="574.3864"/>
    <line x1="389.5459" x2="388.4014" y1="530.764" y2="531.9085"/>
    <line x1="393.6491" x2="388.9195" y1="950.9249" y2="955.6544"/>
    <line x1="390.5497" x2="389.0553" y1="501.4759" y2="502.9703"/>
    <line x1="389.925" x2="389.0631" y1="629.3799" y2="630.2417"/>
    <line x1="389.5652" x2="389.2927" y1="884.2981" y2="884.5705"/>
    <line x1="389.8952" x2="389.3907" y1="586.9832" y2="587.4878"/>
    <line x1="392.3972" x2="389.6168" y1="443.0598" y2="445.8403"/>
    <line x1="398.8868" x2="389.6551" y1="478.9966" y2="488.2284"/>
    <line x1="390.1639" x2="389.9756" y1="629.141" y2="629.3292"/>
    <line x1="391.301" x2="390.0102" y1="797.7095" y2="799.0002"/>
    <line x1="390.2003" x2="390.0305" y1="940.2315" y2="940.4013"/>
    <line x1="390.6195" x2="390.3236" y1="699.3961" y2="699.6919"/>
    <line x1="390.5589" x2="390.4239" y1="642.888" y2="643.023"/>
    <line x1="392.023" x2="390.6876" y1="429.2919" y2="430.6274"/>
    <line x1="392.7627" x2="390.7175" y1="923.527" y2="925.5722"/>
    <line x1="391.2254" x2="390.7219" y1="557.3688" y2="557.8723"/>
    <line x1="392.0007" x2="391.8664" y1="500.0249" y2="500.1593"/>
    <line x1="392.9472" x2="392.9027" y1="852.6318" y2="852.6763"/>
    <line x1="404.4153" x2="393.6144" y1="911.8744" y2="922.6753"/>
    <line x1="393.8759" x2="393.8756" y1="639.5711" y2="639.5714"/>
    <line x1="394.3908" x2="394.1939" y1="695.6247" y2="695.8216"/>
    <line x1="394.8006" x2="394.3107" y1="539.6514" y2="540.1413"/>
    <line x1="397.7957" x2="395.4128" y1="890.2097" y2="892.5926"/>
    <line x1="397.3001" x2="396.0734" y1="720.9997" y2="722.2264"/>
    <line x1="398.3718" x2="396.1693" y1="493.6538" y2="495.8564"/>
    <line x1="397.0177" x2="396.2408" y1="905.1298" y2="905.9067"/>
    <line x1="397.5717" x2="396.7885" y1="423.7432" y2="424.5264"/>
    <line x1="398.9239" x2="396.8856" y1="705.2337" y2="707.2721"/>
    <line x1="397.8588" x2="397.497" y1="734.5831" y2="734.945"/>
    <line x1="397.8296" x2="397.7436" y1="423.4853" y2="423.5713"/>
    <line x1="398.3539" x2="398.1309" y1="422.961" y2="423.184"/>
    <line x1="398.483" x2="398.3992" y1="451.1162" y2="451.2"/>
    <line x1="398.6929" x2="398.5342" y1="564.0434" y2="564.2021"/>
    <line x1="400.1429" x2="398.7264" y1="576.7355" y2="578.152"/>
    <line x1="399.6693" x2="399.5688" y1="478.2142" y2="478.3147"/>
    <line x1="403.3203" x2="400.195" y1="686.6952" y2="689.8205"/>
    <line x1="405.7626" x2="401.2525" y1="472.1208" y2="476.631"/>
    <line x1="407.062" x2="402.11" y1="697.0957" y2="702.0477"/>
    <line x1="402.865" x2="402.5078" y1="588.1556" y2="588.5127"/>
    <line x1="402.9152" x2="402.7404" y1="715.3845" y2="715.5594"/>
    <line x1="405.4543" x2="405.026" y1="585.5662" y2="585.9945"/>
    <line x1="407.697" x2="406.8684" y1="597.4657" y2="598.2943"/>
    <line x1="407.9583" x2="406.9991" y1="682.0572" y2="683.0165"/>
    <line x1="410.5378" x2="410.0338" y1="849.1834" y2="849.6874"/>
    <line x1="411.3175" x2="411.1691" y1="622.1295" y2="622.2779"/>
    <line x1="413.1591" x2="413.075" y1="620.2879" y2="620.372"/>
    <line x1="414.1129" x2="413.1321" y1="647.6183" y2="648.5991"/>
    <line x1="414.7008" x2="413.9435" y1="618.7462" y2="619.5034"/>
    <line x1="416.2767" x2="415.0818" y1="631.3124" y2="632.5074"/>
    <line x1="418.6863" x2="418.0094" y1="628.9028" y2="629.5797"/>
    <line x1="426.5359" x2="425.9802" y1="833.1853" y2="833.741"/>
    <line x1="429.9574" x2="427.8745" y1="843.9059" y2="845.9888"/>
    <line x1="428.2571" x2="428.1854" y1="831.464" y2="831.5358"/>
    <line x1="433.2172" x2="428.3102" y1="854.7882" y2="859.6953"/>
    <line x1="433.8132" x2="429.166" y1="868.3344" y2="872.9815"/>
    <line x1="436.1332" x2="430.5906" y1="880.1565" y2="885.6991"/>
    <line x1="438.1667" x2="433.5264" y1="892.2651" y2="896.9055"/>
    <line x1="441.4936" x2="440.7766" y1="903.0803" y2="903.7974"/>
    <line x1="459.8822" x2="455.4116" y1="1266.5295" y2="1271.0"/>
    <line x1="500.4184" x2="485.6612" y1="1240.1354" y2="1254.8925"/>
    <line x1="502.643" x2="502.0945" y1="1237.9107" y2="1238.4593"/>
    <line x1="516.2787" x2="513.3626" y1="1238.4172" y2="1241.3333"/>
    <line x1="530.7835" x2="517.2994" y1="1223.9123" y2="1237.3965"/>
    <line x1="561.5141" x2="540.338" y1="1207.324" y2="1228.5"/>
    <line x1="580.9901" x2="561.4802" y1="1201.9901" y2="1221.5"/>
    <line x1="595.8321" x2="579.1223" y1="1201.2902" y2="1218.0"/>
    <line x1="582.3201" x2="581.0198" y1="1200.6601" y2="1201.9603"/>
    <line x1="620.8753" x2="583.0185" y1="751.9829" y2="789.8397"/>
    <line x1="621.0915" x2="584.0" y1="765.9089" y2="803.0004"/>
    <line x1="584.9802" x2="584.0" y1="1198.0" y2="1198.9802"/>
    <line x1="647.5295" x2="584.6993" y1="711.1866" y2="774.0168"/>
    <line x1="591.9705" x2="585.5" y1="809.172" y2="815.6425"/>
    <line x1="594.6368" x2="586.5624" y1="820.6478" y2="828.7222"/>
    <line x1="623.876" x2="588.6621" y1="847.9772" y2="883.1911"/>
    <line x1="603.1658" x2="588.752" y1="826.2609" y2="840.6748"/>
    <line x1="619.6809" x2="589.0945" y1="823.888" y2="854.4744"/>
    <line x1="627.102" x2="589.4427" y1="830.6091" y2="868.2684"/>
    <line x1="623.1983" x2="592.8519" y1="721.3756" y2="751.722"/>
    <line x1="596.5452" x2="595.1763" y1="1214.7192" y2="1216.0881"/>
    <line x1="596.5837" x2="595.9232" y1="818.7009" y2="819.3614"/>
    <line x1="600.0927" x2="596.4349" y1="801.0498" y2="804.7076"/>
    <line x1="604.5587" x2="597.7358" y1="1206.7058" y2="1213.5287"/>
    <line x1="608.7332" x2="601.7343" y1="806.5514" y2="813.5504"/>
    <line x1="602.8867" x2="601.7837" y1="883.1087" y2="884.2116"/>
    <line x1="614.22" x2="604.4953" y1="871.7753" y2="881.5"/>
    <line x1="613.7402" x2="609.9377" y1="1211.6664" y2="1215.4689"/>
    <line x1="613.0464" x2="610.5259" y1="816.3804" y2="818.9009"/>
    <line x1="611.097" x2="610.6732" y1="790.0455" y2="790.4693"/>
    <line x1="615.3835" x2="614.4145" y1="799.9012" y2="800.8701"/>
    <line x1="615.8441" x2="615.1447" y1="870.1512" y2="870.8506"/>
    <line x1="615.5058" x2="615.2001" y1="813.921" y2="814.2267"/>
    <line x1="621.439" x2="615.8411" y1="779.7035" y2="785.3014"/>
    <line x1="617.6523" x2="617.4728" y1="811.7745" y2="811.954"/>
    <line x1="618.6258" x2="618.6012" y1="867.3696" y2="867.3941"/>
    <line x1="623.6315" x2="619.6991" y1="1215.9172" y2="1219.8496"/>
    <line x1="622.7102" x2="621.2123" y1="792.5744" y2="794.0723"/>
    <line x1="623.583" x2="622.0675" y1="749.2752" y2="750.7907"/>
    <line x1="622.8874" x2="622.3013" y1="877.25" y2="877.8361"/>
    <line x1="633.1141" x2="622.8003" y1="753.8862" y2="764.2"/>
    <line x1="624.9038" x2="622.9586" y1="804.5229" y2="806.4682"/>
    <line x1="629.3101" x2="625.122" y1="870.8274" y2="875.0155"/>
    <line x1="631.0975" x2="625.1612" y1="840.7557" y2="846.692"/>
    <line x1="630.2355" x2="625.4954" y1="799.1913" y2="803.9313"/>
    <line x1="640.2315" x2="625.6117" y1="803.3374" y2="817.9572"/>
    <line x1="625.6835" x2="625.6616" y1="789.6012" y2="789.623"/>
    <line x1="647.4808" x2="629.1381" y1="725.3774" y2="743.7201"/>
    <line x1="632.9863" x2="630.6908" y1="1220.7045" y2="1223.0"/>
    <line x1="640.4873" x2="630.8124" y1="760.6552" y2="770.3301"/>
    <line x1="632.5785" x2="631.6803" y1="796.8483" y2="797.7465"/>
    <line x1="636.671" x2="633.6197" y1="891.7507" y2="894.8021"/>
    <line x1="634.8274" x2="634.3628" y1="752.1729" y2="752.6375"/>
    <line x1="643.4691" x2="636.0747" y1="771.8156" y2="779.21"/>
    <line x1="652.2942" x2="636.7212" y1="734.7061" y2="750.2792"/>
    <line x1="644.6661" x2="637.2736" y1="897.8977" y2="905.2903"/>
    <line x1="638.7236" x2="638.5941" y1="889.6981" y2="889.8276"/>
    <line x1="656.248" x2="639.2763" y1="773.1788" y2="790.1505"/>
    <line x1="641.8529" x2="640.3041" y1="914.8531" y2="916.4019"/>
    <line x1="641.6279" x2="640.5401" y1="816.0831" y2="817.1709"/>
    <line x1="642.2949" x2="641.386" y1="801.274" y2="802.1829"/>
    <line x1="643.9908" x2="641.7511" y1="757.1517" y2="759.3914"/>
    <line x1="644.4751" x2="643.4829" y1="912.2309" y2="913.223"/>
    <line x1="651.9563" x2="643.627" y1="918.8918" y2="927.2211"/>
    <line x1="655.4635" x2="643.8287" y1="802.2476" y2="813.8824"/>
    <line x1="661.4309" x2="645.0132" y1="782.138" y2="798.5557"/>
    <line x1="650.3208" x2="645.0463" y1="764.9638" y2="770.2383"/>
    <line x1="647.9762" x2="646.3035" y1="908.7298" y2="910.4025"/>
    <line x1="653.9565" x2="646.5086" y1="747.186" y2="754.6339"/>
    <line x1="654.6892" x2="647.0076" y1="930.301" y2="937.9826"/>
    <line x1="653.314" x2="648.7606" y1="818.5391" y2="823.0925"/>
    <line x1="650.3544" x2="650.0237" y1="722.5038" y2="722.8345"/>
    <line x1="651.1584" x2="650.1784" y1="947.9739" y2="948.954"/>
    <line x1="657.2587" x2="651.4856" y1="941.8737" y2="947.6468"/>
    <line x1="654.4757" x2="651.9598" y1="760.8089" y2="763.3249"/>
    <line x1="654.4897" x2="654.2604" y1="732.5107" y2="732.74"/>
    <line x1="666.3137" x2="655.0227" y1="805.5395" y2="816.8305"/>
    <line x1="659.673" x2="655.7361" y1="755.6116" y2="759.5485"/>
    <line x1="656.7188" x2="656.6537" y1="956.5557" y2="956.6208"/>
    <line x1="659.5087" x2="656.9838" y1="967.908" y2="970.4329"/>
    <line x1="657.1972" x2="657.1447" y1="828.7981" y2="828.8506"/>
    <line x1="662.5066" x2="657.5701" y1="766.9201" y2="771.8567"/>
    <line x1="668.9347" x2="657.6529" y1="788.7764" y2="800.0582"/>
    <line x1="661.3117" x2="659.9156" y1="966.1049" y2="967.5011"/>
    <line x1="666.0633" x2="662.8276" y1="777.5056" y2="780.7413"/>
    <line x1="663.0156" x2="662.978" y1="837.1218" y2="837.1594"/>
    <line x1="663.1469" x2="663.133" y1="978.4119" y2="978.4258"/>
    <line x1="671.2152" x2="664.1218" y1="828.9223" y2="836.0157"/>
    <line x1="666.8798" x2="665.125" y1="762.547" y2="764.3018"/>
    <line x1="668.3015" x2="666.5" y1="817.6938" y2="819.4953"/>
    <line x1="670.6917" x2="666.7649" y1="801.1615" y2="805.0883"/>
    <line x1="670.2713" x2="669.2835" y1="815.724" y2="816.7118"/>
    <line x1="670.027" x2="669.4975" y1="773.5419" y2="774.0714"/>
    <line x1="671.3899" x2="670.6871" y1="786.3211" y2="787.0239"/>
    <line x1="674.4246" x2="671.0585" y1="839.855" y2="843.2211"/>
    <line x1="674.5194" x2="672.3509" y1="811.4759" y2="813.6445"/>
    <line x1="684.2152" x2="672.8179" y1="815.9223" y2="827.3196"/>
    <line x1="682.9927" x2="675.454" y1="803.0026" y2="810.5413"/>
    <line x1="677.952" x2="676.1504" y1="793.9012" y2="795.7028"/>
    <line x1="678.5" x2="676.9433" y1="835.7796" y2="837.3362"/>
    <line x1="700.9436" x2="700.2909" y1="714.3411" y2="714.9937"/>
  </g>
</svg>
