<?xml version="1.0" encoding="UTF-8" standalone="no"?>
<svg
   width="993"
   height="1404"
   viewBox="0 0 993 1404"
   fill="none"
   version="1.1"
   id="svg69"
   sodipodi:docname="A4 - 1.svg"
   inkscape:version="1.4.2 (ebf0e940, 2025-05-08)"
   xmlns:inkscape="http://www.inkscape.org/namespaces/inkscape"
   xmlns:sodipodi="http://sodipodi.sourceforge.net/DTD/sodipodi-0.dtd"
   xmlns="http://www.w3.org/2000/svg"
   xmlns:svg="http://www.w3.org/2000/svg">
  <defs
     id="defs69" />
  <sodipodi:namedview
     id="namedview69"
     pagecolor="#ffffff"
     bordercolor="#000000"
     borderopacity="0.25"
     inkscape:showpageshadow="2"
     inkscape:pageopacity="0.0"
     inkscape:pagecheckerboard="0"
     inkscape:deskcolor="#d1d1d1"
     inkscape:zoom="1.0272509"
     inkscape:cx="645.41193"
     inkscape:cy="770.01635"
     inkscape:window-width="1920"
     inkscape:window-height="971"
     inkscape:window-x="0"
     inkscape:window-y="25"
     inkscape:window-maximized="0"
     inkscape:current-layer="svg69" />
  <path
     d="m 949.561,702.344 c 0,120.06 -47.693,235.203 -132.588,320.096 -84.896,84.9 -200.038,132.59 -320.098,132.59 -59.448,0 -118.313,-11.71 -173.236,-34.46 -54.922,-22.75 -104.826,-56.09 -146.862,-98.13 C 91.882,937.547 44.1883,822.404 44.1883,702.344 c 0,-120.06 47.6937,-235.203 132.5887,-320.098 84.895,-84.895 200.038,-132.589 320.098,-132.589 120.06,0 235.202,47.694 320.098,132.589 84.895,84.895 132.588,200.038 132.588,320.098 z m -456.845,-408.218 -1.532,60.689 c -0.001,0.057 0.01,0.114 0.031,0.167 0.021,0.053 0.052,0.101 0.092,0.142 0.04,0.041 0.088,0.073 0.141,0.095 0.053,0.022 0.109,0.034 0.166,0.034 h 12.569 c 0.13,0 0.255,-0.051 0.349,-0.141 0.093,-0.091 0.148,-0.214 0.152,-0.344 l 0.445,-17.634 c 10e-4,-0.065 0.015,-0.13 0.042,-0.189 0.026,-0.059 0.064,-0.113 0.111,-0.158 0.048,-0.044 0.103,-0.078 0.165,-0.101 0.061,-0.022 0.125,-0.032 0.19,-0.029 1.892,0.078 4.544,0.208 7.958,0.391 14.437,0.781 27.976,-5.488 27.804,-21.957 -0.125,-12.265 -8.599,-19.988 -20.363,-20.769 -9.27,-0.61 -18.544,-0.839 -27.819,-0.688 -0.131,0.002 -0.256,0.054 -0.349,0.146 -0.093,0.092 -0.148,0.216 -0.152,0.346 z m -38.2,23.919 4.987,39.576 c 0.012,0.098 0.062,0.188 0.14,0.25 0.078,0.061 0.176,0.089 0.275,0.078 l 12.717,-1.211 c 0.052,-0.005 0.103,-0.02 0.148,-0.045 0.046,-0.024 0.086,-0.058 0.118,-0.098 0.033,-0.04 0.056,-0.086 0.069,-0.136 0.014,-0.049 0.017,-0.101 0.009,-0.151 l -7.652,-60.72 c -0.02,-0.157 -0.1,-0.301 -0.222,-0.4 -0.123,-0.1 -0.279,-0.147 -0.435,-0.131 l -13.859,1.328 c -0.038,0.003 -0.074,0.016 -0.106,0.038 -0.032,0.022 -0.057,0.052 -0.074,0.087 l -13.139,28.305 c -0.017,0.035 -0.042,0.066 -0.073,0.089 -0.031,0.024 -0.068,0.039 -0.107,0.045 -0.039,0.006 -0.08,0.003 -0.118,-0.01 -0.038,-0.012 -0.073,-0.034 -0.101,-0.062 l -21.801,-22.582 c -0.072,-0.075 -0.161,-0.129 -0.26,-0.159 -0.098,-0.031 -0.202,-0.035 -0.302,-0.013 l -13.664,2.681 c -0.149,0.03 -0.28,0.118 -0.365,0.245 -0.085,0.127 -0.116,0.284 -0.088,0.435 l 11.732,59.665 c 0.012,0.064 0.037,0.125 0.074,0.18 0.036,0.054 0.083,0.1 0.138,0.136 0.055,0.036 0.116,0.06 0.18,0.072 0.065,0.011 0.131,0.009 0.195,-0.005 l 12.233,-2.932 c 0.057,-0.013 0.108,-0.048 0.14,-0.098 0.032,-0.049 0.043,-0.109 0.032,-0.167 l -7.582,-38.591 c -0.005,-0.036 10e-4,-0.072 0.017,-0.104 0.017,-0.031 0.042,-0.057 0.074,-0.074 0.032,-0.016 0.068,-0.022 0.104,-0.017 0.035,0.005 0.068,0.021 0.094,0.046 6.342,6.623 13.572,14.19 21.691,22.7 0.188,0.198 0.396,0.224 0.625,0.078 0.094,-0.063 0.178,-0.175 0.251,-0.336 8.535,-17.687 13.051,-27.038 13.546,-28.054 0.016,-0.039 0.046,-0.071 0.083,-0.091 0.037,-0.02 0.08,-0.027 0.121,-0.02 0.042,0.007 0.08,0.028 0.108,0.06 0.028,0.031 0.045,0.071 0.047,0.113 z M 578.641,302.17 c 0.008,-0.04 0.007,-0.08 -10e-4,-0.119 -0.008,-0.04 -0.024,-0.077 -0.047,-0.11 -0.022,-0.033 -0.051,-0.061 -0.085,-0.083 -0.033,-0.022 -0.071,-0.037 -0.11,-0.044 l -12.877,-2.41 c -0.04,-0.007 -0.08,-0.007 -0.119,10e-4 -0.039,0.009 -0.077,0.024 -0.11,0.047 -0.033,0.023 -0.061,0.052 -0.083,0.085 -0.022,0.034 -0.037,0.071 -0.044,0.11 l -11.233,60.022 c -0.007,0.04 -0.007,0.08 0.002,0.119 0.008,0.039 0.024,0.077 0.046,0.11 0.023,0.033 0.052,0.061 0.085,0.083 0.034,0.022 0.071,0.037 0.111,0.044 l 12.877,2.41 c 0.039,0.007 0.08,0.007 0.119,-10e-4 0.039,-0.009 0.076,-0.025 0.109,-0.047 0.033,-0.023 0.062,-0.052 0.083,-0.085 0.022,-0.034 0.037,-0.071 0.045,-0.111 z m 11.593,34.932 c -1.055,4.081 -1.273,8.337 -0.642,12.523 0.632,4.187 2.102,8.222 4.325,11.876 2.224,3.654 5.157,6.855 8.633,9.421 3.477,2.565 7.427,4.445 11.627,5.531 8.482,2.193 17.463,1.023 24.968,-3.255 7.505,-4.278 12.919,-11.312 15.051,-19.555 1.056,-4.081 1.274,-8.337 0.642,-12.523 -0.632,-4.187 -2.102,-8.222 -4.325,-11.876 -2.223,-3.655 -5.157,-6.856 -8.633,-9.421 -3.476,-2.565 -7.427,-4.445 -11.627,-5.531 -8.482,-2.194 -17.463,-1.023 -24.968,3.255 -7.505,4.277 -12.919,11.311 -15.051,19.555 z M 351.305,320.57 c -0.04,-0.038 -0.09,-0.063 -0.144,-0.073 -0.054,-0.01 -0.11,-0.003 -0.161,0.018 l -11.436,4.87 c -0.049,0.021 -0.092,0.056 -0.122,0.1 -0.031,0.044 -0.048,0.097 -0.049,0.15 l -1.024,68.068 c -0.001,0.047 0.011,0.094 0.033,0.136 0.023,0.041 0.055,0.077 0.095,0.102 0.04,0.026 0.085,0.041 0.133,0.045 0.047,0.003 0.094,-0.005 0.137,-0.025 l 12.39,-5.964 c 0.047,-0.024 0.088,-0.061 0.115,-0.107 0.028,-0.045 0.042,-0.098 0.041,-0.151 v -14.133 c 0,-0.055 0.017,-0.109 0.047,-0.155 0.031,-0.045 0.074,-0.081 0.125,-0.103 l 23.958,-10.2 c 0.052,-0.023 0.11,-0.029 0.166,-0.018 0.056,0.011 0.107,0.039 0.147,0.08 l 10.208,10.576 c 0.037,0.038 0.084,0.064 0.135,0.077 0.051,0.012 0.104,0.01 0.154,-0.007 l 13.343,-4.424 c 0.045,-0.015 0.085,-0.042 0.117,-0.077 0.031,-0.035 0.053,-0.078 0.064,-0.124 0.011,-0.045 0.01,-0.093 -0.002,-0.139 -0.013,-0.045 -0.036,-0.087 -0.069,-0.121 z m 314.965,79.144 c 0.06,0.031 0.131,0.038 0.196,0.019 0.065,-0.019 0.121,-0.062 0.156,-0.121 l 18.892,-33.611 c 0.029,-0.048 0.071,-0.086 0.122,-0.108 0.05,-0.023 0.107,-0.029 0.161,-0.017 0.054,0.011 0.104,0.039 0.141,0.079 0.038,0.041 0.062,0.092 0.069,0.147 l 4.604,48.151 c 0.004,0.037 0.016,0.073 0.035,0.105 0.018,0.033 0.044,0.061 0.074,0.082 l 9.029,6.41 c 0.029,0.021 0.062,0.035 0.096,0.043 0.035,0.007 0.071,0.008 0.106,0.001 0.035,-0.006 0.068,-0.02 0.098,-0.039 0.03,-0.02 0.055,-0.046 0.075,-0.075 l 33.283,-51.207 c 0.037,-0.058 0.05,-0.127 0.037,-0.194 -0.013,-0.067 -0.052,-0.126 -0.107,-0.166 l -10.764,-7.644 c -0.029,-0.021 -0.062,-0.036 -0.096,-0.043 -0.035,-0.008 -0.071,-0.008 -0.106,-0.002 -0.035,0.007 -0.069,0.02 -0.098,0.04 -0.03,0.02 -0.055,0.045 -0.075,0.075 l -20.167,31.024 c -0.029,0.048 -0.072,0.086 -0.123,0.108 -0.051,0.022 -0.108,0.027 -0.163,0.015 -0.054,-0.012 -0.103,-0.041 -0.141,-0.083 -0.037,-0.041 -0.06,-0.094 -0.065,-0.149 l -5.941,-47.182 c -0.006,-0.04 -0.02,-0.079 -0.044,-0.113 -0.023,-0.034 -0.053,-0.062 -0.089,-0.082 l -10.326,-5.808 c -0.03,-0.018 -0.064,-0.029 -0.1,-0.034 -0.035,-0.005 -0.071,-0.002 -0.105,0.007 -0.034,0.01 -0.066,0.026 -0.094,0.048 -0.028,0.022 -0.051,0.05 -0.068,0.081 l -30.321,53.95 c -0.017,0.032 -0.028,0.067 -0.032,0.103 -0.003,0.036 10e-4,0.072 0.012,0.106 0.011,0.035 0.029,0.067 0.052,0.094 0.024,0.027 0.053,0.049 0.085,0.065 z m -380.5,-18.518 c -6.665,4.372 -10.266,6.733 -10.802,7.082 -0.074,0.047 -0.162,0.064 -0.247,0.048 -0.084,-0.016 -0.158,-0.064 -0.207,-0.134 l -13.695,-19.674 c -0.023,-0.035 -0.054,-0.064 -0.089,-0.086 -0.036,-0.022 -0.076,-0.036 -0.117,-0.042 -0.042,-0.006 -0.085,-0.003 -0.126,0.008 -0.041,0.011 -0.08,0.031 -0.113,0.057 l -10.31,8.09 c -0.043,0.034 -0.071,0.083 -0.078,0.137 -0.007,0.054 0.007,0.109 0.039,0.152 l 35.198,50.567 c 0.038,0.052 0.085,0.097 0.141,0.131 0.055,0.034 0.116,0.057 0.18,0.066 0.063,0.01 0.128,0.006 0.19,-0.01 0.062,-0.017 0.119,-0.046 0.169,-0.086 l 10.076,-7.91 c 0.055,-0.042 0.092,-0.104 0.102,-0.173 0.01,-0.069 -0.007,-0.138 -0.048,-0.195 l -13.835,-19.878 c -0.021,-0.029 -0.036,-0.063 -0.044,-0.098 -0.007,-0.035 -0.008,-0.072 -0.002,-0.107 0.007,-0.035 0.021,-0.068 0.041,-0.097 0.02,-0.03 0.045,-0.054 0.075,-0.073 1.433,-0.953 4.964,-3.275 10.592,-6.964 5.628,-3.69 9.166,-6.004 10.615,-6.942 0.029,-0.019 0.061,-0.032 0.096,-0.038 0.034,-0.006 0.069,-0.005 0.104,0.003 0.034,0.008 0.066,0.023 0.095,0.044 0.029,0.021 0.054,0.047 0.072,0.077 l 12.718,20.613 c 0.036,0.059 0.094,0.103 0.161,0.12 0.067,0.018 0.138,0.008 0.199,-0.026 l 11.271,-6.089 c 0.055,-0.031 0.103,-0.072 0.142,-0.122 0.038,-0.05 0.066,-0.107 0.082,-0.168 0.016,-0.061 0.02,-0.125 0.011,-0.188 -0.009,-0.063 -0.03,-0.124 -0.063,-0.179 L 296.018,346.67 c -0.028,-0.047 -0.073,-0.081 -0.125,-0.096 -0.053,-0.014 -0.109,-0.008 -0.157,0.018 l -11.529,6.23 c -0.038,0.02 -0.071,0.048 -0.098,0.082 -0.027,0.034 -0.046,0.072 -0.057,0.113 -0.011,0.041 -0.013,0.084 -0.007,0.126 0.006,0.041 0.022,0.081 0.045,0.116 l 12.584,20.402 c 0.044,0.072 0.058,0.158 0.039,0.241 -0.019,0.083 -0.069,0.156 -0.14,0.204 -0.532,0.355 -4.133,2.718 -10.803,7.09 z m 500.118,40.186 c -2.079,-10.053 -7.407,-17.955 -15.985,-23.708 -9.427,-6.316 -20.878,-4.073 -27.053,5.542 -6.426,9.997 1.782,20.003 7.191,27.96 1.892,2.791 4.542,7.105 2.783,10.341 -1.454,2.689 -5.089,2.908 -7.473,1.54 -7.191,-4.116 -11.418,-10.599 -12.679,-19.448 -0.007,-0.055 -0.026,-0.109 -0.055,-0.157 -0.028,-0.049 -0.066,-0.091 -0.111,-0.124 -0.045,-0.034 -0.097,-0.058 -0.151,-0.071 -0.055,-0.014 -0.112,-0.016 -0.167,-0.007 l -11.522,1.837 c -0.134,0.023 -0.254,0.098 -0.333,0.208 -0.079,0.109 -0.111,0.246 -0.089,0.378 1.74,9.896 6.087,17.911 13.038,24.044 8.552,7.551 19.503,10.764 28.687,2.556 12.061,-10.779 3.104,-22.543 -4.119,-33.674 -2.056,-3.181 -4.237,-7.09 -1.087,-10.435 2.478,-2.635 6.168,-0.829 8.458,1.039 4.557,3.737 7.457,9.279 8.661,15.055 0.008,0.043 0.025,0.083 0.049,0.119 0.025,0.036 0.056,0.067 0.093,0.09 0.036,0.023 0.077,0.039 0.12,0.046 0.043,0.007 0.087,0.006 0.129,-0.005 l 11.357,-2.72 c 0.088,-0.02 0.164,-0.074 0.212,-0.15 0.048,-0.076 0.065,-0.168 0.046,-0.256 z m -520.05,6.925 h -11.42 c -0.128,0 -0.251,0.049 -0.343,0.137 -0.092,0.087 -0.146,0.206 -0.15,0.332 -0.12,2.72 -0.333,4.813 -0.641,6.277 -1.039,4.917 -4.721,10.037 -9.059,12.483 -15.18,8.544 -34.785,-8.457 -27.562,-24.888 2.689,-6.12 8.614,-9.677 15.172,-10.818 0.573,-0.099 1.947,-0.305 4.12,-0.618 0.129,-0.019 0.246,-0.088 0.326,-0.191 0.08,-0.103 0.117,-0.234 0.103,-0.364 l -1.188,-12.46 c -0.01,-0.101 -0.057,-0.195 -0.133,-0.262 -0.075,-0.067 -0.173,-0.101 -0.273,-0.097 -10.435,0.438 -19.651,5.847 -26.084,13.937 -12.187,15.297 -7.637,37.215 8.848,47.174 11.358,6.847 25.428,5.854 35.879,-2.166 8.746,-6.714 13.46,-16.641 12.905,-27.999 -0.006,-0.129 -0.061,-0.25 -0.155,-0.339 -0.093,-0.088 -0.217,-0.138 -0.345,-0.138 z m 534.691,274.068 c 0,-80.528 -31.99,-157.757 -88.931,-214.699 -56.942,-56.942 -134.172,-88.931 -214.7,-88.931 -80.528,0 -157.757,31.989 -214.699,88.931 -56.942,56.942 -88.931,134.171 -88.931,214.699 0,80.528 31.989,157.758 88.931,214.699 56.942,56.942 134.171,88.936 214.699,88.936 39.874,0 79.357,-7.858 116.195,-23.117 36.838,-15.259 70.31,-37.624 98.505,-65.819 28.194,-28.194 50.56,-61.666 65.818,-98.504 15.259,-36.839 23.113,-76.321 23.113,-116.195 z M 790.203,472.448 c 0.032,-0.026 0.07,-0.045 0.11,-0.055 0.04,-0.011 0.081,-0.014 0.122,-0.008 0.041,0.006 0.081,0.02 0.116,0.042 0.035,0.021 0.066,0.05 0.09,0.083 l 14.32,19.738 c 0.024,0.033 0.04,0.07 0.049,0.11 0.009,0.04 0.01,0.081 0.003,0.121 -0.008,0.04 -0.023,0.078 -0.045,0.112 -0.023,0.035 -0.051,0.064 -0.085,0.086 l -19.8,13.781 c -0.066,0.046 -0.111,0.116 -0.126,0.195 -0.014,0.079 0.003,0.161 0.048,0.227 l 7.09,10.787 c 0.022,0.034 0.052,0.063 0.086,0.085 0.034,0.023 0.072,0.038 0.112,0.045 0.04,0.008 0.081,0.007 0.121,-0.002 0.04,-0.009 0.077,-0.026 0.111,-0.049 L 842.7,482.813 c 0.066,-0.046 0.111,-0.116 0.126,-0.195 0.014,-0.079 -0.003,-0.161 -0.048,-0.227 l -7.535,-10.811 c -0.046,-0.066 -0.116,-0.111 -0.195,-0.126 -0.079,-0.014 -0.161,0.003 -0.227,0.048 l -19.612,13.656 c -0.065,0.044 -0.145,0.061 -0.222,0.047 -0.077,-0.013 -0.146,-0.055 -0.193,-0.117 l -14.695,-20.261 c -0.045,-0.064 -0.063,-0.143 -0.051,-0.22 0.011,-0.077 0.052,-0.147 0.114,-0.195 l 18.744,-14.718 c 0.032,-0.026 0.058,-0.058 0.078,-0.094 0.019,-0.036 0.031,-0.076 0.035,-0.117 0.003,-0.041 -10e-4,-0.082 -0.014,-0.121 -0.013,-0.039 -0.033,-0.075 -0.06,-0.106 l -8.528,-9.794 c -0.051,-0.058 -0.123,-0.094 -0.199,-0.102 -0.077,-0.007 -0.154,0.015 -0.215,0.063 l -47.705,37.441 c -0.032,0.026 -0.059,0.058 -0.078,0.094 -0.02,0.036 -0.032,0.076 -0.035,0.117 -0.004,0.041 0.001,0.082 0.013,0.121 0.013,0.039 0.034,0.075 0.06,0.106 l 8.646,9.927 c 0.051,0.058 0.122,0.094 0.199,0.102 0.077,0.007 0.154,-0.015 0.215,-0.063 z m -579.23,32.322 -9.529,-5.87 c -0.104,-0.064 -0.229,-0.085 -0.347,-0.057 -0.119,0.028 -0.222,0.102 -0.286,0.205 l -16.822,27.265 c -0.063,0.101 -0.163,0.175 -0.278,0.205 -0.115,0.031 -0.236,0.016 -0.339,-0.041 l -10.56,-5.933 c -0.045,-0.025 -0.084,-0.06 -0.115,-0.101 -0.031,-0.041 -0.053,-0.088 -0.065,-0.138 -0.013,-0.051 -0.015,-0.103 -0.007,-0.155 0.008,-0.051 0.026,-0.101 0.054,-0.145 l 14.742,-23.888 c 0.03,-0.048 0.05,-0.102 0.059,-0.158 0.009,-0.056 0.007,-0.113 -0.006,-0.169 -0.013,-0.055 -0.037,-0.107 -0.07,-0.153 -0.033,-0.046 -0.075,-0.085 -0.124,-0.114 l -9.513,-5.863 c -0.065,-0.041 -0.138,-0.069 -0.215,-0.082 -0.076,-0.014 -0.155,-0.011 -0.23,0.006 -0.076,0.018 -0.147,0.05 -0.21,0.095 -0.063,0.045 -0.117,0.103 -0.158,0.169 l -15.195,24.638 c -0.039,0.06 -0.099,0.103 -0.167,0.12 -0.069,0.017 -0.14,0.008 -0.201,-0.026 l -10.169,-5.714 c -0.131,-0.074 -0.228,-0.197 -0.269,-0.342 -0.041,-0.145 -0.023,-0.3 0.05,-0.432 4.763,-8.494 10.508,-17.84 17.236,-28.038 0.03,-0.048 0.05,-0.1 0.06,-0.155 0.01,-0.055 0.008,-0.112 -0.004,-0.166 -0.012,-0.055 -0.035,-0.106 -0.068,-0.152 -0.032,-0.046 -0.074,-0.084 -0.121,-0.114 l -9.56,-5.893 c -0.111,-0.071 -0.246,-0.095 -0.374,-0.068 -0.129,0.028 -0.242,0.106 -0.314,0.216 -8.061,12.481 -16.04,25.912 -23.934,40.295 -0.059,0.106 -0.072,0.23 -0.039,0.347 0.034,0.117 0.112,0.217 0.218,0.278 l 53.341,29.969 c 0.067,0.037 0.145,0.046 0.218,0.026 0.073,-0.021 0.135,-0.069 0.173,-0.135 7.129,-13.486 14.886,-26.519 23.27,-39.099 0.034,-0.05 0.057,-0.106 0.068,-0.166 0.012,-0.059 0.011,-0.119 -0.001,-0.178 -0.013,-0.059 -0.037,-0.115 -0.071,-0.165 -0.034,-0.049 -0.078,-0.092 -0.128,-0.124 z m 645.648,3.073 c -0.042,-0.084 -0.115,-0.147 -0.204,-0.176 -0.088,-0.029 -0.185,-0.022 -0.268,0.02 l -54.784,27.674 c -0.041,0.02 -0.078,0.049 -0.108,0.084 -0.03,0.035 -0.053,0.076 -0.068,0.12 -0.014,0.044 -0.02,0.09 -0.016,0.136 0.003,0.046 0.016,0.091 0.037,0.132 l 5.744,11.373 c 0.042,0.083 0.116,0.146 0.204,0.175 0.089,0.029 0.185,0.022 0.269,-0.02 l 54.784,-27.673 c 0.041,-0.021 0.078,-0.05 0.108,-0.085 0.03,-0.035 0.053,-0.075 0.067,-0.119 0.015,-0.044 0.02,-0.09 0.017,-0.137 -0.004,-0.046 -0.016,-0.091 -0.037,-0.132 z m -722.33,66.98 c -2.6,7.551 -3.934,11.43 -4.002,11.639 -0.012,0.038 -0.032,0.073 -0.058,0.104 -0.027,0.03 -0.059,0.055 -0.095,0.074 -0.036,0.018 -0.076,0.029 -0.117,0.032 -0.041,0.003 -0.082,-0.002 -0.121,-0.015 L 107.41,579.74 c -0.095,-0.03 -0.197,-0.021 -0.285,0.024 -0.088,0.046 -0.154,0.124 -0.184,0.218 l -3.745,11.873 c -0.049,0.161 -0.033,0.335 0.044,0.484 0.078,0.149 0.211,0.262 0.371,0.314 l 58.187,18.353 c 0.076,0.024 0.159,0.016 0.231,-0.022 0.072,-0.038 0.126,-0.103 0.152,-0.181 l 3.76,-11.92 c 0.027,-0.086 0.038,-0.175 0.03,-0.265 -0.007,-0.089 -0.032,-0.176 -0.074,-0.256 -0.041,-0.08 -0.098,-0.151 -0.167,-0.209 -0.069,-0.058 -0.149,-0.103 -0.235,-0.13 l -23.036,-7.27 c -0.046,-0.015 -0.089,-0.039 -0.126,-0.071 -0.037,-0.032 -0.067,-0.07 -0.089,-0.114 -0.022,-0.044 -0.035,-0.091 -0.038,-0.14 -0.003,-0.049 0.003,-0.098 0.019,-0.144 0.563,-1.641 1.868,-5.435 3.916,-11.381 2.048,-5.941 3.356,-9.729 3.924,-11.365 0.016,-0.047 0.041,-0.09 0.073,-0.127 0.033,-0.037 0.073,-0.067 0.117,-0.088 0.045,-0.021 0.093,-0.033 0.142,-0.035 0.05,-0.002 0.099,0.006 0.145,0.023 l 22.621,8.473 c 0.085,0.032 0.175,0.047 0.266,0.044 0.09,-0.003 0.179,-0.024 0.261,-0.061 0.082,-0.037 0.156,-0.089 0.217,-0.155 0.061,-0.065 0.109,-0.142 0.14,-0.226 l 4.385,-11.702 c 0.029,-0.077 0.027,-0.162 -0.005,-0.237 -0.033,-0.074 -0.093,-0.132 -0.167,-0.162 l -57.132,-21.417 c -0.158,-0.059 -0.332,-0.053 -0.486,0.015 -0.153,0.069 -0.274,0.195 -0.335,0.352 l -4.37,11.663 c -0.033,0.092 -0.028,0.194 0.013,0.283 0.041,0.089 0.115,0.158 0.206,0.193 l 21.973,8.419 c 0.077,0.029 0.14,0.086 0.175,0.159 0.035,0.073 0.04,0.156 0.013,0.232 -0.079,0.208 -1.42,4.088 -4.026,11.639 z m 705.11,-1.72 c 2.225,5.831 3.742,9.693 4.549,11.584 5.269,12.335 16.845,19.276 29.852,13.007 10.186,-4.916 14.164,-15.211 10.764,-26.084 -2.934,-9.364 -6.274,-18.205 -10.021,-26.522 -0.02,-0.048 -0.059,-0.088 -0.108,-0.109 -0.049,-0.022 -0.106,-0.025 -0.158,-0.008 l -57.398,21.011 c -0.067,0.025 -0.129,0.063 -0.181,0.113 -0.052,0.049 -0.094,0.109 -0.122,0.175 -0.029,0.067 -0.043,0.139 -0.044,0.211 0,0.073 0.014,0.145 0.043,0.213 l 5.127,12.061 c 0.041,0.098 0.12,0.177 0.219,0.219 0.099,0.042 0.211,0.045 0.313,0.007 l 16.681,-6.105 c 0.094,-0.032 0.197,-0.027 0.288,0.015 0.091,0.043 0.161,0.119 0.196,0.212 z M 93.2457,641.476 c -0.9953,6.769 -2.0453,15.226 -3.1501,25.372 -0.0109,0.091 0.0151,0.181 0.0722,0.253 0.0571,0.072 0.1407,0.119 0.2326,0.131 l 11.5766,1.461 c 0.044,0.007 0.088,0.004 0.131,-0.007 0.043,-0.011 0.083,-0.03 0.118,-0.057 0.035,-0.027 0.064,-0.061 0.086,-0.1 0.022,-0.038 0.035,-0.081 0.04,-0.125 l 2.29,-18.119 c 0.004,-0.036 0.015,-0.071 0.033,-0.102 0.018,-0.031 0.042,-0.059 0.071,-0.081 0.03,-0.022 0.063,-0.038 0.099,-0.047 0.036,-0.009 0.073,-0.01 0.11,-0.005 l 48.291,7.121 c 0.062,0.009 0.124,-0.006 0.173,-0.043 0.05,-0.036 0.084,-0.091 0.093,-0.152 0.308,-2.064 0.628,-4.226 0.962,-6.488 0.333,-2.261 0.648,-4.424 0.945,-6.488 0.009,-0.061 -0.006,-0.123 -0.043,-0.173 -0.036,-0.049 -0.091,-0.083 -0.152,-0.092 l -48.291,-7.098 c -0.037,-0.005 -0.072,-0.017 -0.104,-0.035 -0.032,-0.019 -0.06,-0.044 -0.082,-0.073 -0.022,-0.029 -0.038,-0.062 -0.046,-0.098 -0.008,-0.035 -0.009,-0.071 -0.003,-0.107 l 3.025,-18.009 c 0.008,-0.043 0.007,-0.088 -0.002,-0.131 -0.01,-0.042 -0.028,-0.083 -0.054,-0.118 -0.025,-0.036 -0.058,-0.066 -0.095,-0.089 -0.037,-0.023 -0.079,-0.039 -0.122,-0.045 l -11.5065,-1.939 c -0.0913,-0.016 -0.1853,0.003 -0.2614,0.055 -0.0761,0.051 -0.1283,0.13 -0.145,0.219 -1.8656,10.036 -3.2961,18.439 -4.2914,25.209 z M 844.341,621.238 c -5.221,8.669 -7.699,19.464 -5.589,29.188 2.494,11.506 11.428,19.666 23.794,16.798 12.57,-2.916 13.023,-17.471 14.188,-27.554 0.26,-2.293 0.784,-4.304 1.571,-6.035 1.196,-2.626 4.815,-3.619 7.175,-2.126 3.956,2.502 4.245,9.161 3.487,13.257 -0.584,3.169 -1.725,6.293 -3.424,9.373 -0.033,0.06 -0.054,0.125 -0.061,0.193 -0.007,0.068 -10e-4,0.137 0.019,0.202 0.02,0.065 0.052,0.125 0.096,0.176 0.043,0.052 0.097,0.094 0.157,0.124 l 10.693,5.425 c 0.081,0.041 0.174,0.05 0.259,0.025 0.086,-0.025 0.159,-0.081 0.202,-0.158 4.763,-7.983 6.137,-16.467 4.12,-25.451 -2.806,-12.53 -13.421,-20.495 -26.264,-15.266 -6.128,2.501 -8.692,9.005 -9.568,14.813 -0.834,5.523 -1.532,9.841 -2.095,12.952 -0.484,2.647 -1.177,4.56 -2.079,5.737 -2.001,2.635 -6.285,2.384 -8.207,-0.461 -4.065,-6.034 -2.416,-15.195 0.75,-21.3 0.943,-1.824 1.459,-2.832 1.548,-3.025 0.052,-0.109 0.062,-0.234 0.027,-0.351 -0.035,-0.116 -0.111,-0.217 -0.215,-0.282 l -10.232,-6.332 c -0.028,-0.019 -0.059,-0.031 -0.093,-0.037 -0.033,-0.007 -0.067,-0.006 -0.099,10e-4 -0.033,0.008 -0.064,0.021 -0.092,0.041 -0.027,0.02 -0.05,0.044 -0.068,0.073 z M 289.319,979.593 c -0.041,-0.029 -0.089,-0.046 -0.14,-0.047 -0.05,-0.001 -0.099,0.012 -0.141,0.039 l -35.488,23.325 c -0.045,0.03 -0.098,0.04 -0.151,0.04 -0.053,0 -0.104,-0.02 -0.145,-0.06 -0.041,-0.03 -0.07,-0.08 -0.083,-0.13 -0.013,-0.05 -0.009,-0.11 0.012,-0.15 l 16.149,-38.838 c 0.018,-0.046 0.022,-0.097 0.01,-0.146 -0.011,-0.049 -0.036,-0.093 -0.073,-0.127 l -8.285,-7.801 c -0.039,-0.035 -0.088,-0.057 -0.14,-0.062 -0.052,-0.006 -0.104,0.005 -0.15,0.031 l -37.152,20.87 c -0.047,0.025 -0.1,0.035 -0.152,0.027 -0.052,-0.007 -0.101,-0.03 -0.139,-0.066 -0.038,-0.037 -0.064,-0.084 -0.074,-0.136 -0.009,-0.052 -0.002,-0.106 0.021,-0.153 l 19.26,-38.005 c 0.022,-0.044 0.031,-0.093 0.025,-0.141 -0.005,-0.049 -0.025,-0.095 -0.056,-0.133 l -9.998,-11.498 c -0.027,-0.031 -0.062,-0.055 -0.102,-0.069 -0.039,-0.014 -0.081,-0.018 -0.122,-0.012 -0.041,0.006 -0.08,0.023 -0.113,0.048 -0.033,0.025 -0.06,0.058 -0.077,0.096 l -26.71,60.594 c -0.022,0.048 -0.029,0.102 -0.019,0.154 0.01,0.052 0.036,0.1 0.074,0.136 l 8.559,8.066 c 0.038,0.036 0.087,0.06 0.139,0.067 0.052,0.007 0.104,-0.003 0.151,-0.027 l 36.042,-19.292 c 0.046,-0.026 0.099,-0.037 0.152,-0.031 0.052,0.006 0.102,0.028 0.141,0.063 0.039,0.036 0.065,0.083 0.076,0.135 0.011,0.052 0.005,0.105 -0.017,0.154 l -15.805,38.006 c -0.021,0.05 -0.025,0.1 -0.013,0.15 0.013,0.06 0.042,0.1 0.083,0.14 l 9.099,7.58 c 0.04,0.03 0.088,0.05 0.138,0.05 0.05,0 0.1,-0.01 0.143,-0.03 l 57.023,-33.898 c 0.034,-0.021 0.063,-0.051 0.084,-0.087 0.02,-0.035 0.032,-0.075 0.034,-0.116 10e-4,-0.041 -0.007,-0.081 -0.025,-0.118 -0.018,-0.037 -0.045,-0.069 -0.078,-0.093 z m 462.34,-42.21 c -0.022,0.024 -0.038,0.051 -0.049,0.082 -0.011,0.03 -0.016,0.062 -0.015,0.094 0.002,0.032 0.009,0.063 0.023,0.092 0.014,0.029 0.033,0.055 0.057,0.076 l 27.444,25.866 c 0.041,0.034 0.069,0.082 0.08,0.134 0.011,0.052 0.004,0.107 -0.019,0.155 -0.023,0.048 -0.062,0.087 -0.11,0.111 -0.047,0.024 -0.102,0.032 -0.154,0.022 l -46.533,-6.871 c -0.034,-0.006 -0.07,-0.004 -0.104,0.006 -0.033,0.009 -0.065,0.026 -0.091,0.049 l -9.302,8.105 c -0.024,0.022 -0.043,0.048 -0.057,0.077 -0.013,0.029 -0.021,0.06 -0.023,0.092 -0.001,0.032 0.004,0.064 0.015,0.094 0.011,0.03 0.028,0.058 0.049,0.081 l 42.648,44.182 c 0.043,0.04 0.1,0.07 0.161,0.07 0.061,0 0.121,-0.02 0.167,-0.06 l 9.756,-8.49 c 0.023,-0.02 0.043,-0.04 0.056,-0.07 0.014,-0.03 0.022,-0.06 0.023,-0.09 0.002,-0.04 -0.003,-0.07 -0.014,-0.1 -0.011,-0.03 -0.028,-0.06 -0.05,-0.08 l -26.85,-27.819 c -0.034,-0.036 -0.056,-0.081 -0.063,-0.13 -0.007,-0.049 0.001,-0.099 0.023,-0.143 0.022,-0.045 0.057,-0.081 0.101,-0.105 0.043,-0.024 0.093,-0.033 0.142,-0.028 l 48.542,6.128 c 0.038,0.006 0.077,0.003 0.114,-0.009 0.036,-0.013 0.07,-0.033 0.097,-0.061 l 7.879,-8.356 c 0.022,-0.024 0.038,-0.051 0.049,-0.081 0.011,-0.03 0.016,-0.062 0.015,-0.094 -0.002,-0.032 -0.009,-0.064 -0.023,-0.093 -0.014,-0.029 -0.033,-0.055 -0.057,-0.076 L 760.867,927.98 c -0.023,-0.022 -0.051,-0.039 -0.081,-0.05 -0.03,-0.011 -0.062,-0.015 -0.094,-0.014 -0.032,10e-4 -0.063,0.009 -0.092,0.023 -0.029,0.014 -0.055,0.033 -0.077,0.056 z m -20.367,62.544 c -4.738,-7.077 -12.183,-11.922 -20.698,-13.468 -8.515,-1.547 -17.402,0.332 -24.706,5.221 -7.305,4.89 -12.428,12.39 -14.243,20.85 -1.815,8.46 -0.173,17.19 4.565,24.27 4.737,7.08 12.183,11.92 20.697,13.47 8.515,1.55 17.403,-0.33 24.707,-5.22 7.304,-4.89 12.427,-12.39 14.242,-20.85 1.815,-8.47 0.173,-17.2 -4.564,-24.273 z m -406.627,2.753 c 0.044,-0.07 0.056,-0.16 0.036,-0.24 -0.021,-0.08 -0.074,-0.15 -0.147,-0.19 l -11.199,-6.681 c -0.073,-0.043 -0.161,-0.056 -0.243,-0.035 -0.082,0.021 -0.153,0.073 -0.197,0.146 L 281.128,1049 c -0.044,0.08 -0.056,0.16 -0.036,0.25 0.021,0.08 0.074,0.15 0.147,0.19 l 11.199,6.68 c 0.073,0.04 0.161,0.06 0.243,0.04 0.082,-0.03 0.153,-0.08 0.197,-0.15 z m 52.717,48.1 c 0.015,-0.01 0.032,-0.01 0.05,-0.01 0.017,0 0.034,0.01 0.047,0.02 0.014,0.01 0.024,0.02 0.029,0.04 0.005,0.02 0.004,0.03 -10e-4,0.05 l -13.555,37.04 c -0.019,0.05 -0.028,0.11 -0.025,0.16 0.003,0.06 0.018,0.11 0.042,0.16 0.025,0.05 0.06,0.1 0.103,0.14 0.043,0.03 0.093,0.06 0.146,0.08 l 12.116,3.82 c 0.102,0.03 0.212,0.02 0.306,-0.03 0.095,-0.04 0.167,-0.12 0.202,-0.22 l 21.011,-57.39 c 0.017,-0.05 0.023,-0.1 0.02,-0.15 -0.003,-0.05 -0.016,-0.1 -0.037,-0.14 -0.022,-0.05 -0.053,-0.09 -0.09,-0.12 -0.037,-0.03 -0.08,-0.05 -0.127,-0.07 l -13.539,-4.27 c -0.021,0 -0.044,-0.01 -0.066,0 -0.022,0 -0.042,0.01 -0.059,0.03 l -23.098,18.13 c -0.016,0.02 -0.035,0.02 -0.055,0.03 -0.021,0 -0.042,0 -0.062,-0.01 -0.02,-0.01 -0.037,-0.02 -0.051,-0.04 -0.014,-0.01 -0.023,-0.03 -0.027,-0.06 l -5.761,-29.28 c -0.025,-0.12 -0.077,-0.23 -0.153,-0.33 -0.076,-0.1 -0.173,-0.18 -0.285,-0.23 l -12.46,-5.78 c -0.067,-0.03 -0.141,-0.05 -0.215,-0.05 -0.075,0 -0.15,0.01 -0.22,0.03 -0.07,0.03 -0.134,0.07 -0.188,0.12 -0.054,0.05 -0.098,0.12 -0.127,0.18 l -23.989,56.14 c -0.035,0.08 -0.036,0.18 -0.004,0.26 0.032,0.08 0.095,0.15 0.176,0.18 l 11.779,5.47 c 0.034,0.02 0.07,0.03 0.107,0.03 0.038,0 0.075,-0.01 0.109,-0.02 0.035,-0.02 0.067,-0.04 0.095,-0.06 0.027,-0.03 0.049,-0.06 0.064,-0.1 l 15.298,-35.8 c 0.02,-0.05 0.055,-0.09 0.099,-0.12 0.045,-0.02 0.097,-0.04 0.149,-0.03 0.051,0 0.1,0.03 0.138,0.06 0.039,0.04 0.065,0.08 0.075,0.13 l 5.769,29.36 c 0.017,0.09 0.056,0.17 0.114,0.24 0.057,0.07 0.13,0.12 0.213,0.16 0.083,0.03 0.173,0.04 0.262,0.03 0.089,-0.01 0.173,-0.04 0.247,-0.09 z m 221.547,-16.39 20.191,57.01 c 0.053,0.16 0.164,0.28 0.309,0.35 0.145,0.07 0.312,0.08 0.465,0.03 l 22.926,-8.12 c 8.088,-2.87 14.779,-8.63 18.601,-16.01 3.822,-7.39 4.461,-15.79 1.777,-23.37 l -0.36,-1 c -2.684,-7.58 -8.471,-13.72 -16.088,-17.05 -7.616,-3.34 -16.439,-3.6 -24.527,-0.74 l -22.926,8.12 c -0.076,0.02 -0.145,0.07 -0.205,0.12 -0.059,0.05 -0.107,0.12 -0.141,0.19 -0.034,0.07 -0.054,0.15 -0.058,0.23 -0.003,0.08 0.009,0.16 0.036,0.24 z m -8.301,53.45 c -12.21,2.83 -23.281,5.04 -33.213,6.63 -0.118,0.02 -0.239,-0.01 -0.335,-0.08 -0.097,-0.07 -0.162,-0.17 -0.181,-0.29 l -1.931,-12.08 c -0.011,-0.07 -0.008,-0.14 0.008,-0.21 0.016,-0.06 0.045,-0.13 0.086,-0.18 0.041,-0.06 0.092,-0.1 0.151,-0.14 0.059,-0.03 0.125,-0.06 0.193,-0.07 10.193,-1.58 19.55,-3.39 28.07,-5.43 0.084,-0.02 0.156,-0.07 0.203,-0.15 0.047,-0.07 0.063,-0.16 0.047,-0.24 l -2.212,-11.29 c -0.012,-0.06 -0.036,-0.11 -0.069,-0.16 -0.034,-0.05 -0.077,-0.09 -0.126,-0.12 -0.05,-0.03 -0.106,-0.05 -0.163,-0.06 -0.058,-0.01 -0.117,0 -0.174,0.01 -9.526,2.53 -18.825,4.41 -27.897,5.63 -0.082,0.01 -0.165,-0.01 -0.231,-0.06 -0.066,-0.05 -0.11,-0.12 -0.121,-0.21 l -1.892,-11.85 c -0.005,-0.03 -0.005,-0.06 0.003,-0.09 0.007,-0.03 0.02,-0.06 0.039,-0.09 0.019,-0.03 0.043,-0.05 0.071,-0.06 0.028,-0.02 0.058,-0.03 0.09,-0.04 9.834,-1.53 20.102,-3.59 30.806,-6.15 0.101,-0.03 0.189,-0.09 0.246,-0.18 0.056,-0.08 0.077,-0.19 0.059,-0.29 l -2.166,-11 c -0.012,-0.07 -0.039,-0.13 -0.079,-0.19 -0.04,-0.06 -0.091,-0.11 -0.152,-0.15 -0.06,-0.04 -0.128,-0.07 -0.2,-0.08 -0.072,-0.01 -0.146,-0.01 -0.217,0 -13.919,3.06 -28.341,5.59 -43.266,7.61 -0.046,0 -0.09,0.02 -0.13,0.04 -0.04,0.02 -0.075,0.06 -0.103,0.09 -0.028,0.04 -0.048,0.08 -0.059,0.12 -0.01,0.05 -0.012,0.09 -0.005,0.14 l 9.709,60.8 c 0.019,0.12 0.085,0.23 0.184,0.31 0.1,0.07 0.224,0.1 0.347,0.09 16.045,-2.34 31.757,-5.18 47.135,-8.54 0.064,-0.01 0.124,-0.04 0.178,-0.08 0.054,-0.03 0.1,-0.08 0.136,-0.13 0.035,-0.06 0.06,-0.12 0.072,-0.18 0.011,-0.07 0.01,-0.13 -0.003,-0.2 l -2.142,-10.9 c -0.016,-0.09 -0.048,-0.17 -0.096,-0.24 -0.047,-0.07 -0.109,-0.13 -0.18,-0.17 -0.072,-0.05 -0.152,-0.08 -0.236,-0.1 -0.084,-0.01 -0.171,-0.01 -0.254,0.01 z m -140.333,-12.7 c 9.326,-2.69 12.304,-15.95 6.379,-23.08 -3.002,-3.6 -6.683,-5.8 -11.045,-6.57 -13.044,-2.32 -22.999,-4.25 -29.868,-5.8 -0.029,-0.01 -0.059,-0.01 -0.089,-0.01 -0.03,0.01 -0.058,0.02 -0.083,0.04 -0.026,0.01 -0.048,0.03 -0.065,0.06 -0.018,0.02 -0.03,0.05 -0.036,0.08 l -12.311,59.01 c -0.017,0.08 -0.002,0.16 0.042,0.24 0.043,0.07 0.112,0.11 0.192,0.13 8.703,2.01 16.394,3.66 23.075,4.93 5.372,1.02 9.721,1.59 13.046,1.7 7.582,0.25 16.352,-2.45 18.721,-10.57 2.595,-8.87 -0.076,-15.41 -8.012,-19.63 -0.051,-0.03 -0.092,-0.07 -0.118,-0.12 -0.027,-0.05 -0.038,-0.11 -0.033,-0.17 0.006,-0.05 0.029,-0.11 0.065,-0.15 0.037,-0.05 0.086,-0.08 0.14,-0.09 z m 75.017,33.83 -1.087,-11.35 c -0.011,-0.12 -0.07,-0.23 -0.163,-0.31 -0.093,-0.08 -0.213,-0.13 -0.337,-0.12 l -29.031,1.01 c -0.067,0.01 -0.135,0 -0.198,-0.03 -0.063,-0.02 -0.12,-0.06 -0.168,-0.1 -0.049,-0.05 -0.087,-0.11 -0.113,-0.17 -0.025,-0.06 -0.038,-0.13 -0.037,-0.2 l 0.735,-48.81 c 10e-4,-0.05 -0.008,-0.11 -0.027,-0.16 -0.02,-0.04 -0.048,-0.09 -0.084,-0.13 -0.037,-0.03 -0.08,-0.06 -0.128,-0.09 -0.048,-0.02 -0.1,-0.03 -0.152,-0.03 l -12.851,-0.19 c -0.103,0 -0.203,0.04 -0.276,0.11 -0.073,0.07 -0.114,0.17 -0.114,0.27 l -0.931,61.63 c 0,0.06 0.023,0.11 0.065,0.16 0.041,0.04 0.096,0.06 0.154,0.06 16.332,0.14 31.074,-0.17 44.227,-0.95 0.074,-0.01 0.146,-0.03 0.212,-0.06 0.066,-0.03 0.124,-0.08 0.172,-0.13 0.048,-0.06 0.085,-0.12 0.107,-0.2 0.023,-0.07 0.031,-0.14 0.025,-0.21 z"
     fill="#593987"
     id="path1"
     style="display:inline" />
  <path
     d="M506.247 305.898C506.248 305.864 506.256 305.831 506.27 305.8C506.284 305.769 506.303 305.741 506.328 305.718C506.353 305.695 506.382 305.677 506.414 305.665C506.445 305.653 506.479 305.647 506.513 305.648L517.089 306C519.906 306.095 522.576 307.165 524.509 308.975C526.443 310.786 527.482 313.188 527.399 315.653L527.383 316.216C527.343 317.437 527.027 318.637 526.456 319.747C525.884 320.857 525.067 321.856 524.052 322.686C523.036 323.517 521.842 324.162 520.537 324.586C519.233 325.011 517.843 325.205 516.448 325.159L505.88 324.807C505.846 324.806 505.812 324.798 505.782 324.784C505.751 324.77 505.723 324.75 505.7 324.726C505.676 324.701 505.658 324.672 505.646 324.64C505.634 324.609 505.629 324.575 505.63 324.541L506.247 305.898Z"
     fill="#593987"
     id="path2" />
  <path
     d="M640.934 348.586C642.715 338.059 635.963 328.14 625.853 326.43C615.744 324.72 606.105 331.867 604.325 342.394C602.544 352.92 609.296 362.84 619.406 364.55C629.515 366.259 639.154 359.112 640.934 348.586Z"
     fill="#593987"
     id="path3" />
  <path
     d="M351.336 358.973L351.297 338.298C351.299 338.247 351.316 338.196 351.345 338.154C351.375 338.111 351.417 338.079 351.465 338.06C351.513 338.04 351.566 338.036 351.617 338.046C351.667 338.057 351.714 338.082 351.751 338.119L366.141 352.962C366.171 352.994 366.193 353.032 366.205 353.074C366.216 353.116 366.218 353.16 366.208 353.202C366.199 353.245 366.18 353.284 366.151 353.317C366.123 353.35 366.088 353.376 366.047 353.392L351.696 359.224C351.656 359.239 351.612 359.244 351.569 359.239C351.527 359.233 351.486 359.218 351.45 359.193C351.415 359.168 351.386 359.136 351.366 359.097C351.346 359.059 351.336 359.017 351.336 358.973Z"
     fill="#593987"
     id="path4" />
  <path
     d="M788.405 701.828C788.405 779.147 757.691 853.299 703.018 907.971C648.346 962.644 574.194 993.358 496.875 993.358C419.556 993.358 345.404 962.644 290.732 907.971C236.059 853.299 205.345 779.147 205.345 701.828C205.345 624.509 236.059 550.357 290.732 495.685C345.404 441.012 419.556 410.298 496.875 410.298C574.194 410.298 648.346 441.012 703.018 495.685C757.691 550.357 788.405 624.509 788.405 701.828ZM473.894 725.786C480.799 719.303 487.018 712.263 492.552 704.665C492.612 704.583 492.645 704.484 492.647 704.38C492.648 704.277 492.618 704.175 492.56 704.087C485.181 693.066 482.43 679.715 481.883 666.333C481.5 657.046 483 642.992 482.828 633.62C482.385 609.638 474.488 588.182 459.136 569.25C437.523 542.587 404.326 517.878 368.228 518.254C351.938 518.426 337.204 522.811 324.025 531.409C295.776 549.849 280.697 582.225 286.599 615.626C289.936 634.55 298.933 651.661 310.916 666.505C324.455 683.287 341.089 698.389 360.498 707.19C373.979 713.298 388.541 716.198 404.185 715.89C411.236 715.75 418.099 714.929 425.063 714.851C430.498 714.793 433.437 714.778 433.88 714.804C442.635 715.268 450.52 716.594 457.534 718.782C462.031 720.184 467.226 722.55 473.12 725.88C473.243 725.948 473.383 725.975 473.522 725.958C473.661 725.942 473.791 725.881 473.894 725.786ZM460.098 766.566C463.99 770.458 466.692 773.137 468.203 774.601C468.235 774.632 468.273 774.656 468.314 774.673C468.355 774.689 468.399 774.697 468.443 774.696C468.488 774.696 468.532 774.686 468.572 774.669C468.613 774.651 468.65 774.625 468.68 774.593C480.812 762.181 491.557 751.276 500.916 741.881C512.719 730.038 526.062 720.807 542.219 717.258C548.739 715.825 554.773 715.017 560.323 714.835C570.414 714.507 583.781 716.062 592.934 715.898C617.624 715.434 639.61 707.117 658.891 690.947C681.372 672.093 701.312 646.556 706.932 617.033C712.123 589.729 703.524 562.465 683.897 542.829C664.269 523.202 637.004 514.595 609.701 519.778C580.177 525.382 554.632 545.323 535.771 567.796C519.595 587.072 511.273 609.055 510.804 633.745C510.64 642.898 512.188 656.265 511.86 666.356C511.677 671.906 510.867 677.94 509.429 684.459C505.88 700.616 496.64 713.96 484.798 725.755C475.397 735.114 464.491 745.857 452.078 757.983C452.045 758.013 452.019 758.049 452.001 758.09C451.982 758.13 451.972 758.174 451.971 758.218C451.969 758.262 451.976 758.307 451.992 758.348C452.008 758.39 452.032 758.428 452.062 758.46C453.526 759.971 456.205 762.673 460.098 766.566ZM503.331 752.175L525.554 775.195C525.589 775.23 525.629 775.258 525.674 775.276C525.719 775.295 525.767 775.305 525.816 775.305C525.865 775.305 525.913 775.295 525.958 775.276C526.003 775.258 526.044 775.23 526.078 775.195L542.274 758.999C542.324 758.95 542.363 758.891 542.389 758.826C542.416 758.762 542.429 758.692 542.429 758.622C542.428 758.552 542.413 758.483 542.385 758.419C542.357 758.355 542.317 758.297 542.266 758.249L520.239 737.488C520.172 737.423 520.084 737.384 519.991 737.378C519.898 737.372 519.805 737.4 519.731 737.456C513.936 741.844 508.472 746.638 503.339 751.839C503.295 751.883 503.269 751.943 503.268 752.006C503.266 752.068 503.289 752.129 503.331 752.175ZM558.001 811.707V771.858C558.001 771.742 557.979 771.628 557.934 771.523C557.89 771.418 557.825 771.325 557.743 771.248L551.201 765.081C550.858 764.756 550.403 764.577 549.93 764.58C549.457 764.583 549.002 764.768 548.66 765.096L531.558 781.605C531.353 781.804 531.228 782.072 531.206 782.357C531.185 782.642 531.268 782.925 531.44 783.153C533.149 785.419 535.268 787.957 537.795 790.766C544.491 798.223 551.12 805.248 557.681 811.84C557.707 811.866 557.74 811.884 557.777 811.891C557.813 811.899 557.851 811.895 557.886 811.881C557.92 811.866 557.949 811.842 557.97 811.811C557.99 811.78 558.001 811.744 558.001 811.707ZM415.918 791.571L455.314 791.368C455.428 791.367 455.541 791.344 455.644 791.3C455.748 791.256 455.84 791.191 455.916 791.11L461.974 784.607C462.293 784.267 462.469 783.817 462.464 783.349C462.46 782.882 462.276 782.434 461.95 782.097L445.543 765.276C445.345 765.073 445.08 764.95 444.798 764.93C444.515 764.91 444.235 764.994 444.011 765.166C441.775 766.871 439.277 768.978 436.515 771.49C429.177 778.15 422.267 784.739 415.785 791.259C415.761 791.285 415.745 791.318 415.74 791.353C415.734 791.388 415.738 791.424 415.752 791.457C415.766 791.49 415.789 791.518 415.818 791.538C415.848 791.558 415.882 791.57 415.918 791.571ZM582.428 836.157C582.466 836.192 582.514 836.215 582.565 836.224C582.615 836.232 582.668 836.226 582.715 836.205C582.762 836.184 582.802 836.15 582.831 836.107C582.859 836.064 582.874 836.014 582.874 835.962V795.104C582.874 795.068 582.866 795.031 582.851 794.998C582.837 794.964 582.815 794.934 582.788 794.909L567.264 780.276C567.226 780.241 567.179 780.218 567.128 780.21C567.077 780.201 567.025 780.208 566.978 780.228C566.93 780.249 566.89 780.283 566.862 780.326C566.834 780.37 566.819 780.42 566.818 780.472V821.329C566.819 821.366 566.826 821.402 566.841 821.436C566.856 821.47 566.877 821.5 566.904 821.525L582.428 836.157ZM447.044 800.209C447.079 800.172 447.103 800.126 447.112 800.076C447.122 800.026 447.116 799.974 447.096 799.927C447.076 799.88 447.042 799.841 447 799.813C446.957 799.785 446.907 799.77 446.856 799.771H406.616C406.549 799.77 406.485 799.795 406.436 799.841L390.357 815.357C390.319 815.393 390.293 815.439 390.282 815.49C390.271 815.54 390.276 815.593 390.295 815.641C390.314 815.69 390.348 815.731 390.391 815.76C390.434 815.788 390.485 815.803 390.537 815.803H432.223C432.258 815.803 432.293 815.796 432.325 815.783C432.357 815.77 432.387 815.75 432.411 815.725L447.044 800.209ZM591.629 803.398C591.587 803.36 591.536 803.335 591.481 803.326C591.426 803.317 591.369 803.323 591.318 803.346C591.266 803.368 591.223 803.405 591.192 803.452C591.161 803.498 591.144 803.553 591.144 803.609V845.506C591.144 845.546 591.153 845.585 591.169 845.621C591.185 845.658 591.208 845.69 591.238 845.717L607.238 860.796C607.28 860.833 607.331 860.858 607.386 860.868C607.441 860.877 607.498 860.87 607.549 860.848C607.601 860.825 607.644 860.788 607.675 860.742C607.706 860.695 607.723 860.64 607.723 860.585V818.687C607.723 818.648 607.714 818.608 607.698 818.572C607.682 818.536 607.659 818.503 607.629 818.476L591.629 803.398ZM423.633 824.784C423.688 824.725 423.724 824.651 423.737 824.572C423.751 824.492 423.741 824.41 423.708 824.337C423.676 824.263 423.623 824.2 423.555 824.156C423.488 824.112 423.409 824.088 423.328 824.089H381.579C381.522 824.088 381.465 824.1 381.413 824.123C381.36 824.146 381.313 824.179 381.274 824.221L366.438 839.964C366.383 840.023 366.347 840.097 366.334 840.177C366.32 840.256 366.33 840.338 366.363 840.412C366.395 840.486 366.448 840.549 366.516 840.593C366.583 840.637 366.662 840.66 366.743 840.66H408.492C408.549 840.66 408.606 840.648 408.658 840.625C408.711 840.602 408.758 840.569 408.797 840.527L423.633 824.784ZM616.024 828.145V869.003C616.024 869.291 616.124 869.573 616.306 869.8C619.44 873.709 623.825 876.726 628.906 873.576C633.331 870.83 637.062 867.111 640.1 862.421C642.236 859.118 642.255 856.238 640.154 853.784C636.382 849.386 630.959 843.521 623.888 836.189C621.058 833.26 618.539 830.54 616.329 828.028C616.306 828 616.275 827.98 616.24 827.971C616.205 827.962 616.168 827.964 616.134 827.977C616.101 827.99 616.072 828.013 616.052 828.043C616.032 828.073 616.023 828.109 616.024 828.145ZM399.057 848.953H358.199C357.911 848.953 357.63 849.053 357.402 849.235C353.494 852.369 350.477 856.754 353.627 861.835C356.373 866.259 360.091 869.991 364.781 873.029C368.085 875.165 370.964 875.183 373.419 873.083C377.817 869.311 383.682 863.888 391.014 856.817C393.942 853.987 396.663 851.468 399.174 849.258C399.202 849.235 399.222 849.204 399.232 849.169C399.241 849.134 399.239 849.097 399.226 849.063C399.213 849.03 399.19 849.001 399.159 848.981C399.129 848.961 399.093 848.952 399.057 848.953ZM497.469 883.652C503.941 883.62 510.296 880.869 514.752 876.108C514.792 876.065 514.823 876.014 514.842 875.958C514.861 875.902 514.869 875.843 514.864 875.784C514.858 875.725 514.841 875.667 514.812 875.616C514.784 875.564 514.744 875.519 514.697 875.483C509.559 871.596 503.793 869.67 497.399 869.707C490.999 869.738 485.252 871.721 480.155 875.655C480.108 875.691 480.07 875.737 480.042 875.789C480.014 875.841 479.997 875.898 479.993 875.957C479.988 876.016 479.996 876.075 480.016 876.131C480.036 876.187 480.067 876.238 480.108 876.28C484.611 881.002 490.989 883.683 497.469 883.652ZM468.422 898.105C468.412 903.92 470.051 909.337 473.339 914.355C473.368 914.401 473.408 914.44 473.454 914.468C473.501 914.497 473.553 914.514 473.607 914.52C473.661 914.525 473.716 914.518 473.767 914.499C473.818 914.48 473.864 914.449 473.902 914.41C479.928 908.196 488.175 904.889 496.891 904.905C505.606 904.921 513.845 908.258 519.848 914.496C519.886 914.535 519.932 914.566 519.983 914.585C520.034 914.604 520.089 914.611 520.143 914.606C520.197 914.6 520.249 914.583 520.296 914.554C520.342 914.526 520.382 914.487 520.411 914.441C523.715 909.439 525.372 904.027 525.382 898.206C525.393 892.391 523.754 886.974 520.466 881.955C520.436 881.911 520.397 881.873 520.351 881.846C520.306 881.818 520.254 881.801 520.201 881.796C520.148 881.791 520.094 881.797 520.044 881.816C519.994 881.834 519.948 881.863 519.911 881.901C513.884 888.115 505.63 891.421 496.922 891.406C488.206 891.39 479.968 888.052 473.964 881.815C473.927 881.775 473.881 881.745 473.83 881.726C473.778 881.707 473.724 881.7 473.67 881.705C473.615 881.71 473.563 881.728 473.517 881.756C473.47 881.785 473.431 881.823 473.401 881.869C470.098 886.872 468.438 892.284 468.422 898.105ZM497.305 912.714C490.84 912.706 484.478 915.418 480.014 920.155C479.975 920.198 479.945 920.248 479.925 920.303C479.906 920.358 479.899 920.416 479.903 920.474C479.907 920.532 479.924 920.589 479.951 920.64C479.978 920.692 480.016 920.737 480.061 920.773C485.168 924.681 490.913 926.638 497.297 926.643C503.686 926.643 509.434 924.692 514.541 920.789C514.587 920.753 514.625 920.708 514.653 920.657C514.681 920.606 514.698 920.55 514.703 920.492C514.708 920.434 514.701 920.375 514.683 920.32C514.664 920.265 514.634 920.214 514.595 920.171C510.132 915.434 503.769 912.714 497.305 912.714Z"
     fill="#007649"
     id="path5" />
  <path
     d="M449.342 683.576C434.045 698.615 412.775 702.954 391.749 701.437C359.13 699.084 334.828 678.894 316.537 653.435C306.805 639.889 299.309 623.888 297.589 607.231C295.338 585.305 303.186 565.834 318.639 550.638C334.093 535.442 353.697 527.923 375.576 530.557C392.21 532.55 408.078 540.32 421.46 550.278C446.606 568.999 466.374 593.638 468.172 626.296C469.337 647.346 464.639 668.537 449.342 683.576ZM446.629 582.264V594.669C446.629 594.792 446.58 594.909 446.492 594.995C446.404 595.082 446.285 595.131 446.16 595.131H429.495C429.369 595.131 429.248 595.08 429.158 594.991C429.069 594.901 429.018 594.78 429.018 594.654V576.918C429.018 576.857 429.03 576.797 429.053 576.741C429.076 576.685 429.109 576.634 429.151 576.592C429.193 576.549 429.243 576.515 429.298 576.492C429.353 576.468 429.412 576.456 429.472 576.456H442.862C442.875 576.458 442.888 576.455 442.9 576.448C442.911 576.441 442.92 576.431 442.925 576.419C442.93 576.407 442.932 576.393 442.929 576.38C442.926 576.367 442.919 576.356 442.909 576.347L440.032 573.041C439.988 572.989 439.933 572.948 439.871 572.919C439.809 572.891 439.741 572.876 439.673 572.876H429.441C429.385 572.876 429.33 572.866 429.279 572.844C429.228 572.823 429.181 572.792 429.142 572.753C429.103 572.714 429.072 572.667 429.051 572.616C429.029 572.565 429.018 572.51 429.018 572.454V562.207C429.018 562.142 428.993 562.08 428.948 562.035L425.626 558.908C425.606 558.89 425.581 558.878 425.555 558.874C425.528 558.87 425.501 558.873 425.476 558.884C425.452 558.895 425.43 558.912 425.415 558.934C425.4 558.957 425.392 558.983 425.392 559.01V572.423C425.392 572.541 425.344 572.655 425.259 572.738C425.174 572.822 425.058 572.869 424.938 572.869H408.242C408.18 572.869 408.119 572.857 408.062 572.834C408.005 572.81 407.954 572.776 407.91 572.734C407.867 572.691 407.832 572.64 407.808 572.584C407.785 572.528 407.773 572.468 407.773 572.407V554.679C407.773 554.555 407.822 554.436 407.91 554.348C407.998 554.26 408.117 554.21 408.242 554.21H418.02C418.08 554.209 418.137 554.188 418.183 554.151C418.229 554.114 418.262 554.063 418.277 554.006C418.292 553.949 418.288 553.888 418.266 553.833C418.244 553.779 418.204 553.733 418.153 553.702L412.729 550.654C412.646 550.608 412.552 550.583 412.455 550.583H408.226C408.106 550.583 407.991 550.536 407.906 550.451C407.821 550.366 407.773 550.25 407.773 550.13V548.418C407.772 548.274 407.731 548.134 407.653 548.016C407.575 547.898 407.464 547.807 407.335 547.754L404.544 546.597C404.499 546.577 404.449 546.57 404.4 546.575C404.35 546.58 404.303 546.598 404.262 546.627C404.22 546.655 404.187 546.694 404.164 546.74C404.141 546.785 404.129 546.835 404.13 546.886L404.185 548.559C404.187 548.618 404.177 548.676 404.156 548.731C404.134 548.786 404.102 548.836 404.06 548.878C404.018 548.921 403.969 548.954 403.914 548.977C403.858 549 403.799 549.012 403.739 549.012H386.496C386.371 549.012 386.252 548.963 386.164 548.875C386.076 548.787 386.027 548.668 386.027 548.543V539.077C386.027 538.973 385.993 538.871 385.931 538.786C385.87 538.702 385.783 538.64 385.683 538.608L382.822 537.709C382.774 537.693 382.723 537.689 382.673 537.697C382.623 537.705 382.575 537.726 382.534 537.756C382.493 537.787 382.459 537.827 382.436 537.873C382.412 537.919 382.4 537.97 382.4 538.022V548.567C382.4 548.626 382.388 548.685 382.365 548.74C382.343 548.795 382.309 548.845 382.267 548.887C382.225 548.929 382.175 548.963 382.12 548.985C382.065 549.008 382.006 549.02 381.946 549.02H365.219C365.16 549.02 365.102 549.008 365.048 548.986C364.994 548.964 364.945 548.931 364.904 548.889C364.862 548.848 364.83 548.799 364.807 548.745C364.785 548.691 364.773 548.633 364.773 548.574V536.443C364.773 536.346 364.735 536.252 364.666 536.183C364.597 536.114 364.503 536.076 364.406 536.076H361.553C361.499 536.076 361.447 536.086 361.397 536.107C361.348 536.127 361.303 536.157 361.265 536.195C361.228 536.232 361.198 536.277 361.177 536.326C361.157 536.376 361.146 536.429 361.146 536.482V548.559C361.146 548.679 361.098 548.794 361.011 548.879C360.925 548.964 360.807 549.012 360.685 549.012H343.989C343.869 549.012 343.753 548.964 343.668 548.879C343.583 548.794 343.535 548.679 343.535 548.559V540.461C343.535 540.437 343.528 540.414 343.516 540.393C343.505 540.372 343.488 540.355 343.468 540.342C343.448 540.329 343.426 540.321 343.402 540.318C343.378 540.316 343.354 540.319 343.332 540.328L340.096 541.704C340.045 541.726 340.001 541.764 339.971 541.813C339.94 541.861 339.924 541.918 339.924 541.977V548.723C339.924 548.8 339.894 548.873 339.839 548.927C339.785 548.982 339.712 549.012 339.635 549.012H328.277C327.683 549.012 327.108 549.226 326.659 549.614L323.783 552.115C323.737 552.156 323.705 552.21 323.691 552.269C323.676 552.328 323.679 552.39 323.7 552.447C323.721 552.505 323.759 552.554 323.809 552.59C323.858 552.625 323.917 552.645 323.978 552.647H338.931C339.056 552.647 339.175 552.696 339.263 552.784C339.351 552.872 339.4 552.992 339.4 553.116V570.836C339.4 570.961 339.35 571.08 339.261 571.168C339.171 571.256 339.05 571.305 338.924 571.305H321.711C321.593 571.305 321.48 571.259 321.396 571.177C321.313 571.095 321.266 570.984 321.266 570.868V554.226C321.265 554.184 321.253 554.144 321.23 554.109C321.206 554.075 321.174 554.048 321.135 554.032C321.097 554.016 321.055 554.012 321.014 554.02C320.973 554.028 320.936 554.048 320.906 554.077L318.077 557.087C317.801 557.378 317.647 557.767 317.647 558.173V570.336C317.647 570.454 317.599 570.568 317.514 570.651C317.429 570.735 317.313 570.782 317.193 570.782H309.533C309.473 570.782 309.414 570.799 309.364 570.833C309.314 570.866 309.275 570.914 309.251 570.969L307.899 574.213C307.893 574.231 307.891 574.25 307.894 574.268C307.896 574.287 307.903 574.304 307.914 574.319C307.924 574.335 307.939 574.347 307.955 574.356C307.972 574.365 307.99 574.369 308.009 574.369H317.193C317.313 574.369 317.429 574.417 317.514 574.502C317.599 574.587 317.647 574.703 317.647 574.823V592.598C317.647 592.714 317.6 592.825 317.516 592.907C317.433 592.99 317.319 593.036 317.201 593.036H303.475C303.384 593.036 303.296 593.073 303.232 593.139C303.167 593.205 303.131 593.294 303.131 593.387V596.326C303.131 596.422 303.169 596.513 303.236 596.581C303.304 596.648 303.395 596.686 303.491 596.686H316.771C316.864 596.686 316.954 596.723 317.02 596.789C317.086 596.855 317.123 596.944 317.123 597.038V613.992C317.123 614.073 317.091 614.151 317.034 614.208C316.976 614.265 316.899 614.297 316.818 614.297H305.132C305.058 614.297 304.984 614.314 304.918 614.348C304.852 614.382 304.795 614.431 304.751 614.492C304.708 614.552 304.679 614.622 304.668 614.695C304.657 614.769 304.663 614.844 304.687 614.914L305.492 617.353C305.544 617.508 305.643 617.643 305.775 617.738C305.907 617.833 306.065 617.885 306.226 617.885H317.17C317.232 617.885 317.294 617.897 317.352 617.921C317.41 617.945 317.463 617.98 317.507 618.024C317.551 618.069 317.586 618.121 317.61 618.179C317.634 618.237 317.647 618.299 317.647 618.362V636.59C317.647 636.717 317.596 636.838 317.507 636.927C317.418 637.017 317.296 637.067 317.17 637.067H312.433C312.379 637.067 312.326 637.08 312.278 637.105C312.23 637.13 312.189 637.167 312.159 637.212C312.129 637.257 312.11 637.308 312.105 637.362C312.099 637.416 312.107 637.47 312.128 637.52L313.324 640.326C313.382 640.458 313.477 640.569 313.598 640.645C313.719 640.722 313.861 640.761 314.004 640.756L316.552 640.67C316.626 640.667 316.7 640.679 316.769 640.705C316.838 640.731 316.901 640.771 316.954 640.822C317.008 640.873 317.05 640.935 317.079 641.003C317.108 641.071 317.123 641.144 317.123 641.218V647.268C317.123 647.527 317.202 647.781 317.35 647.995L320.539 652.575C320.553 652.594 320.573 652.609 320.596 652.616C320.619 652.624 320.643 652.624 320.666 652.618C320.689 652.611 320.709 652.597 320.724 652.578C320.739 652.559 320.748 652.537 320.75 652.513V641.155C320.75 641.039 320.797 640.928 320.88 640.846C320.964 640.763 321.077 640.717 321.195 640.717H339.127C339.163 640.717 339.198 640.724 339.231 640.738C339.265 640.751 339.295 640.77 339.32 640.795C339.346 640.82 339.366 640.849 339.38 640.881C339.393 640.914 339.4 640.948 339.4 640.983V657.937C339.4 658.043 339.358 658.145 339.284 658.219C339.209 658.294 339.107 658.336 339.002 658.336H325.119C325.098 658.336 325.078 658.341 325.06 658.352C325.042 658.363 325.027 658.379 325.018 658.398C325.009 658.417 325.006 658.438 325.009 658.459C325.011 658.48 325.02 658.5 325.033 658.516L327.855 661.752C327.899 661.804 327.953 661.845 328.014 661.873C328.075 661.902 328.141 661.916 328.207 661.916H338.955C339.073 661.916 339.186 661.963 339.27 662.047C339.353 662.13 339.4 662.243 339.4 662.362V673.094C339.401 673.154 339.426 673.213 339.471 673.258L342.808 676.408C342.827 676.424 342.85 676.435 342.875 676.438C342.899 676.442 342.924 676.439 342.947 676.429C342.97 676.419 342.989 676.404 343.003 676.383C343.018 676.363 343.026 676.339 343.027 676.314V662.401C343.027 662.272 343.078 662.149 343.167 662.058C343.256 661.967 343.378 661.916 343.504 661.916H360.177C360.299 661.916 360.417 661.966 360.503 662.053C360.59 662.141 360.638 662.261 360.638 662.385V679.144C360.638 679.252 360.595 679.355 360.519 679.431C360.443 679.508 360.34 679.551 360.232 679.551H348.311C348.256 679.551 348.202 679.57 348.158 679.604C348.113 679.638 348.081 679.685 348.066 679.739C348.052 679.793 348.054 679.85 348.075 679.902C348.095 679.954 348.131 679.998 348.178 680.027L353.126 683.084C353.228 683.15 353.348 683.185 353.47 683.185H360.201C360.317 683.185 360.428 683.231 360.51 683.313C360.592 683.396 360.638 683.507 360.638 683.623V687.148C360.639 687.206 360.656 687.263 360.688 687.31C360.72 687.357 360.765 687.394 360.818 687.414L364.078 688.766C364.097 688.776 364.119 688.78 364.14 688.779C364.162 688.777 364.183 688.77 364.201 688.759C364.219 688.747 364.234 688.731 364.244 688.711C364.253 688.692 364.258 688.671 364.257 688.649V683.662C364.257 683.534 364.308 683.41 364.397 683.319C364.486 683.229 364.608 683.177 364.734 683.177H381.399C381.524 683.177 381.643 683.228 381.731 683.317C381.819 683.407 381.868 683.528 381.868 683.654V694.684C381.868 694.788 381.902 694.89 381.964 694.974C382.025 695.059 382.113 695.121 382.212 695.153L385.018 696.036C385.074 696.055 385.133 696.06 385.191 696.051C385.249 696.042 385.304 696.019 385.352 695.985C385.399 695.951 385.437 695.905 385.464 695.853C385.49 695.801 385.504 695.743 385.503 695.684V683.654C385.503 683.528 385.552 683.407 385.64 683.317C385.728 683.228 385.848 683.177 385.972 683.177H402.645C402.769 683.177 402.889 683.228 402.977 683.317C403.065 683.407 403.114 683.528 403.114 683.654V696.81C403.114 696.901 403.15 696.988 403.215 697.053C403.279 697.117 403.367 697.154 403.458 697.154H406.381C406.477 697.154 406.568 697.116 406.636 697.048C406.703 696.981 406.741 696.889 406.741 696.794V683.584C406.741 683.532 406.751 683.48 406.772 683.431C406.792 683.383 406.822 683.339 406.86 683.302C406.898 683.265 406.943 683.236 406.992 683.216C407.041 683.196 407.094 683.185 407.147 683.185H423.899C424.023 683.185 424.142 683.234 424.23 683.32C424.318 683.407 424.368 683.524 424.368 683.646V693.878C424.367 693.899 424.372 693.919 424.382 693.938C424.391 693.956 424.405 693.972 424.422 693.983C424.439 693.995 424.459 694.002 424.479 694.004C424.5 694.006 424.52 694.003 424.539 693.996L427.791 692.604C427.844 692.584 427.889 692.548 427.921 692.5C427.953 692.453 427.971 692.397 427.971 692.339V684.67C427.971 684.554 428.017 684.443 428.099 684.361C428.181 684.279 428.293 684.233 428.409 684.233H441.166C441.476 684.233 441.773 684.112 441.994 683.897L448.654 677.471C448.83 677.301 448.969 677.097 449.065 676.871C449.16 676.645 449.209 676.403 449.209 676.158V663.417C449.209 663.299 449.256 663.185 449.339 663.102C449.423 663.018 449.536 662.971 449.654 662.971H457.635C457.756 662.971 457.873 662.936 457.973 662.869C458.074 662.802 458.152 662.707 458.198 662.596L459.394 659.727C459.411 659.688 459.418 659.646 459.414 659.604C459.41 659.561 459.396 659.52 459.373 659.485C459.35 659.449 459.318 659.42 459.281 659.4C459.244 659.379 459.202 659.368 459.16 659.368H450.194C450.074 659.368 449.958 659.319 449.873 659.233C449.788 659.146 449.74 659.029 449.74 658.907V642.187C449.74 642.065 449.787 641.948 449.87 641.861C449.953 641.773 450.066 641.722 450.186 641.718L463.865 641.241C463.968 641.237 464.065 641.194 464.137 641.121C464.208 641.048 464.248 640.951 464.248 640.85V637.974C464.248 637.872 464.208 637.775 464.136 637.703C464.064 637.631 463.967 637.591 463.865 637.591H450.741C450.61 637.591 450.485 637.54 450.393 637.449C450.3 637.358 450.249 637.235 450.249 637.106V620.457C450.249 620.33 450.299 620.209 450.388 620.119C450.478 620.03 450.599 619.98 450.725 619.98H462.833C462.883 619.979 462.932 619.968 462.976 619.947C463.021 619.926 463.061 619.895 463.093 619.857C463.125 619.82 463.148 619.775 463.161 619.728C463.175 619.68 463.177 619.63 463.169 619.581L462.708 616.689C462.694 616.602 462.648 616.522 462.579 616.465C462.51 616.408 462.423 616.376 462.333 616.376H450.71C450.587 616.376 450.47 616.328 450.384 616.241C450.297 616.155 450.249 616.037 450.249 615.915V599.086C450.249 599.001 450.282 598.919 450.342 598.859C450.402 598.799 450.484 598.765 450.569 598.765H456.174C456.206 598.765 456.238 598.757 456.267 598.742C456.295 598.727 456.32 598.704 456.338 598.677C456.355 598.65 456.366 598.619 456.369 598.586C456.372 598.554 456.366 598.521 456.353 598.492L455.001 595.31C454.978 595.257 454.94 595.211 454.891 595.179C454.843 595.147 454.786 595.13 454.727 595.131H450.639C450.536 595.131 450.436 595.089 450.363 595.016C450.29 594.943 450.249 594.843 450.249 594.74V587.47C450.248 587.231 450.178 587 450.045 586.806L446.833 582.202C446.82 582.181 446.801 582.164 446.778 582.156C446.755 582.147 446.73 582.146 446.706 582.153C446.683 582.16 446.663 582.175 446.649 582.195C446.635 582.216 446.628 582.24 446.629 582.264Z"
     fill="#007649"
     id="path6" />
  <path
     d="M545.839 685.874C529.181 670.921 523.764 649.073 525.077 626.968C526.445 603.862 536.38 584.859 552.365 568.585C567.35 553.327 585.321 540.187 605.527 534.286C632.486 526.414 657.664 533.457 676.885 553.483C702.993 580.685 701.351 616.548 681.981 647.205C669.358 667.177 651.934 684.764 631.259 694.308C617.293 700.755 601.921 703.279 585.141 701.883C570.742 700.687 556.797 695.708 545.839 685.874ZM547.644 679.035V662.362C547.644 662.243 547.691 662.13 547.775 662.047C547.858 661.963 547.972 661.916 548.09 661.916H564.786C564.913 661.916 565.034 661.966 565.123 662.056C565.213 662.145 565.263 662.266 565.263 662.393V679.113C565.263 679.17 565.252 679.227 565.23 679.28C565.208 679.333 565.175 679.382 565.135 679.422C565.094 679.463 565.046 679.495 564.993 679.517C564.94 679.539 564.883 679.551 564.825 679.551H548.223C548.16 679.552 548.099 679.571 548.048 679.608C547.997 679.644 547.958 679.694 547.936 679.752C547.915 679.811 547.912 679.873 547.928 679.932C547.945 679.991 547.979 680.044 548.027 680.082L551.13 682.662C551.534 683 552.043 683.185 552.569 683.185H564.81C564.93 683.185 565.045 683.232 565.13 683.316C565.215 683.399 565.263 683.513 565.263 683.631V691.213C565.263 691.291 565.286 691.368 565.329 691.433C565.372 691.498 565.433 691.55 565.505 691.58L568.648 692.925C568.672 692.935 568.699 692.939 568.726 692.936C568.752 692.934 568.778 692.925 568.8 692.91C568.822 692.896 568.841 692.876 568.854 692.853C568.867 692.829 568.874 692.803 568.874 692.776V683.514C568.874 683.47 568.883 683.428 568.899 683.388C568.916 683.348 568.94 683.312 568.97 683.281C569.001 683.251 569.037 683.227 569.077 683.21C569.117 683.194 569.159 683.185 569.203 683.185H586.055C586.113 683.185 586.17 683.197 586.223 683.219C586.276 683.241 586.324 683.273 586.365 683.313C586.405 683.354 586.438 683.402 586.46 683.455C586.482 683.509 586.493 683.566 586.493 683.623V696.732C586.493 696.844 586.537 696.951 586.617 697.03C586.696 697.109 586.803 697.154 586.915 697.154H589.745C589.844 697.154 589.94 697.115 590.01 697.046C590.08 696.977 590.12 696.884 590.12 696.786V683.639C590.12 683.516 590.168 683.399 590.253 683.313C590.338 683.226 590.453 683.177 590.573 683.177H607.278C607.398 683.177 607.513 683.225 607.598 683.31C607.683 683.395 607.731 683.511 607.731 683.631V695.669C607.73 695.73 607.744 695.791 607.77 695.847C607.797 695.902 607.836 695.951 607.884 695.99C607.932 696.028 607.989 696.055 608.049 696.068C608.109 696.082 608.171 696.081 608.231 696.067L610.717 695.473C610.902 695.429 611.066 695.324 611.184 695.175C611.301 695.026 611.366 694.842 611.366 694.652V683.646C611.366 683.524 611.415 683.407 611.503 683.32C611.591 683.234 611.71 683.185 611.835 683.185H628.625C628.718 683.185 628.808 683.222 628.874 683.286C628.94 683.351 628.977 683.438 628.977 683.529V688.446C628.976 688.494 628.988 688.542 629.011 688.584C629.034 688.627 629.067 688.663 629.108 688.689C629.148 688.716 629.194 688.732 629.242 688.736C629.291 688.739 629.339 688.731 629.383 688.712L632.228 687.5C632.337 687.454 632.43 687.377 632.496 687.278C632.561 687.179 632.596 687.063 632.596 686.945V683.623C632.596 683.507 632.642 683.396 632.724 683.313C632.806 683.231 632.917 683.185 633.033 683.185H639.474C639.775 683.185 640.069 683.095 640.319 682.927L644.977 679.871C645.011 679.852 645.036 679.822 645.051 679.786C645.065 679.75 645.067 679.711 645.056 679.674C645.045 679.637 645.022 679.605 644.991 679.583C644.96 679.56 644.922 679.549 644.884 679.551H633.073C632.946 679.551 632.825 679.499 632.735 679.409C632.646 679.318 632.596 679.194 632.596 679.066V662.213C632.596 662.134 632.627 662.059 632.683 662.003C632.738 661.947 632.814 661.916 632.893 661.916H649.941C650.013 661.916 650.083 661.945 650.134 661.996C650.186 662.048 650.215 662.117 650.215 662.19V676.299C650.215 676.315 650.22 676.33 650.229 676.343C650.238 676.357 650.251 676.367 650.265 676.374C650.28 676.38 650.296 676.382 650.312 676.38C650.328 676.378 650.343 676.372 650.355 676.361L653.662 673.493C653.713 673.446 653.755 673.389 653.783 673.326C653.811 673.262 653.826 673.194 653.826 673.125V662.362C653.826 662.243 653.873 662.13 653.956 662.047C654.04 661.963 654.153 661.916 654.271 661.916H665.066C665.137 661.916 665.207 661.901 665.272 661.871C665.337 661.842 665.394 661.798 665.441 661.744L668.208 658.414C668.214 658.406 668.217 658.397 668.218 658.388C668.219 658.378 668.218 658.369 668.214 658.36C668.21 658.351 668.203 658.344 668.196 658.338C668.188 658.333 668.179 658.329 668.169 658.328H654.146C654.063 658.328 653.984 658.295 653.925 658.237C653.867 658.178 653.834 658.099 653.834 658.016V640.967C653.834 640.899 653.86 640.833 653.907 640.785C653.954 640.737 654.017 640.71 654.084 640.71H671.491C671.618 640.71 671.739 640.761 671.829 640.851C671.918 640.942 671.968 641.066 671.968 641.194V652.716C671.97 652.75 671.983 652.782 672.004 652.809C672.025 652.835 672.054 652.854 672.086 652.864C672.119 652.873 672.154 652.872 672.186 652.861C672.218 652.85 672.245 652.829 672.265 652.802L675.243 648.229C675.468 647.877 675.587 647.47 675.587 647.057V641.061C675.587 640.97 675.624 640.883 675.688 640.818C675.753 640.754 675.84 640.717 675.931 640.717H678.722C678.87 640.717 679.015 640.673 679.139 640.591C679.263 640.509 679.359 640.393 679.418 640.256L680.59 637.52C680.611 637.471 680.619 637.418 680.614 637.365C680.609 637.312 680.591 637.262 680.562 637.217C680.532 637.173 680.492 637.137 680.445 637.112C680.398 637.087 680.346 637.074 680.293 637.075H676.557C676.498 637.075 676.44 637.063 676.386 637.04C676.332 637.017 676.283 636.984 676.242 636.942C676.2 636.9 676.167 636.85 676.145 636.795C676.123 636.74 676.111 636.681 676.111 636.621V619.784C676.111 619.695 676.146 619.61 676.207 619.547C676.269 619.484 676.352 619.448 676.439 619.448H687.813C687.913 619.448 688.01 619.413 688.088 619.349C688.167 619.285 688.221 619.196 688.243 619.096L688.868 616.079C688.874 616.053 688.874 616.025 688.867 615.998C688.861 615.972 688.849 615.947 688.831 615.926C688.814 615.905 688.792 615.888 688.767 615.877C688.742 615.865 688.715 615.86 688.688 615.86H676.58C676.456 615.86 676.336 615.811 676.248 615.723C676.161 615.635 676.111 615.516 676.111 615.391V598.711C676.111 598.588 676.159 598.471 676.244 598.384C676.329 598.298 676.444 598.249 676.564 598.249H689.704C689.81 598.249 689.911 598.207 689.986 598.133C690.061 598.058 690.103 597.956 690.103 597.851V594.982C690.103 594.88 690.063 594.783 689.991 594.711C689.919 594.639 689.822 594.599 689.72 594.599H676.463C676.417 594.599 676.371 594.59 676.328 594.572C676.286 594.555 676.247 594.529 676.214 594.496C676.181 594.463 676.156 594.425 676.138 594.382C676.12 594.339 676.111 594.293 676.111 594.247V576.41C676.111 576.283 676.161 576.162 676.251 576.072C676.34 575.983 676.461 575.933 676.588 575.933H685.718C685.742 575.932 685.765 575.925 685.786 575.914C685.806 575.902 685.824 575.886 685.837 575.866C685.85 575.846 685.858 575.823 685.86 575.799C685.863 575.776 685.859 575.752 685.851 575.73L684.491 572.54C684.465 572.482 684.423 572.432 684.37 572.398C684.317 572.363 684.256 572.345 684.194 572.345H676.564C676.444 572.345 676.329 572.297 676.244 572.212C676.159 572.127 676.111 572.012 676.111 571.892V559.987C676.111 559.508 675.939 559.047 675.626 558.689L672.953 555.617C672.917 555.578 672.871 555.551 672.82 555.539C672.768 555.527 672.714 555.53 672.665 555.548C672.615 555.567 672.572 555.599 672.542 555.642C672.511 555.685 672.494 555.736 672.492 555.789V572.587C672.492 572.664 672.462 572.738 672.407 572.792C672.353 572.846 672.279 572.876 672.203 572.876H654.826C654.765 572.876 654.704 572.864 654.647 572.841C654.59 572.817 654.538 572.783 654.495 572.739C654.451 572.696 654.417 572.644 654.393 572.587C654.369 572.53 654.357 572.469 654.357 572.407V554.687C654.357 554.624 654.37 554.562 654.394 554.505C654.418 554.447 654.453 554.394 654.497 554.35C654.541 554.306 654.594 554.271 654.652 554.247C654.71 554.223 654.772 554.21 654.834 554.21H670.428C670.479 554.211 670.528 554.196 670.569 554.167C670.611 554.139 670.642 554.098 670.659 554.051C670.676 554.004 670.678 553.952 670.665 553.904C670.652 553.855 670.624 553.812 670.585 553.78L667.059 550.849C666.847 550.673 666.582 550.576 666.309 550.576H654.795C654.679 550.576 654.568 550.529 654.486 550.447C654.403 550.365 654.357 550.254 654.357 550.138V543.658C654.357 543.548 654.326 543.441 654.266 543.35C654.206 543.258 654.121 543.186 654.021 543.142L651.113 541.899C651.072 541.881 651.027 541.874 650.982 541.878C650.937 541.882 650.894 541.898 650.856 541.924C650.818 541.949 650.787 541.984 650.765 542.024C650.743 542.065 650.731 542.111 650.73 542.157V550.107C650.73 550.231 650.68 550.35 650.591 550.438C650.501 550.526 650.38 550.576 650.254 550.576H633.573C633.45 550.576 633.333 550.527 633.247 550.44C633.16 550.354 633.112 550.237 633.112 550.114V538.491C633.112 538.448 633.103 538.405 633.087 538.365C633.07 538.325 633.046 538.289 633.015 538.259C632.985 538.228 632.949 538.204 632.909 538.188C632.869 538.171 632.826 538.163 632.783 538.163H629.836C629.747 538.163 629.662 538.199 629.599 538.263C629.536 538.328 629.5 538.415 629.5 538.507V550.607C629.5 550.733 629.45 550.855 629.361 550.944C629.271 551.033 629.15 551.084 629.024 551.084H612.351C612.222 551.084 612.099 551.033 612.008 550.944C611.917 550.855 611.866 550.733 611.866 550.607V540.148C611.866 540.087 611.853 540.028 611.827 539.973C611.801 539.918 611.763 539.87 611.715 539.832C611.668 539.795 611.612 539.768 611.553 539.755C611.494 539.742 611.432 539.743 611.373 539.757L608.927 540.344C608.735 540.388 608.565 540.497 608.443 540.653C608.32 540.809 608.254 541.003 608.255 541.203V550.638C608.255 550.756 608.208 550.87 608.124 550.953C608.041 551.037 607.927 551.084 607.809 551.084H591.066C591.009 551.084 590.953 551.072 590.901 551.051C590.849 551.029 590.802 550.998 590.762 550.958C590.722 550.918 590.69 550.87 590.669 550.818C590.647 550.766 590.636 550.71 590.636 550.654V546.902C590.637 546.851 590.625 546.802 590.601 546.758C590.577 546.713 590.543 546.676 590.5 546.648C590.458 546.621 590.41 546.605 590.36 546.601C590.31 546.598 590.259 546.607 590.214 546.628L587.478 547.793C587.341 547.851 587.225 547.948 587.143 548.071C587.061 548.195 587.017 548.34 587.017 548.488V550.193C587.017 550.294 586.976 550.392 586.902 550.463C586.829 550.535 586.73 550.576 586.626 550.576H582.045C581.861 550.575 581.68 550.627 581.522 550.724L576.261 553.851C576.224 553.873 576.195 553.907 576.178 553.947C576.161 553.987 576.158 554.032 576.169 554.073C576.18 554.114 576.204 554.15 576.238 554.175C576.271 554.2 576.313 554.212 576.355 554.21H586.047C586.166 554.21 586.279 554.257 586.363 554.341C586.446 554.424 586.493 554.538 586.493 554.656V572.587C586.493 572.662 586.463 572.733 586.411 572.786C586.358 572.839 586.286 572.869 586.212 572.869H569.312C569.196 572.869 569.085 572.823 569.002 572.74C568.92 572.658 568.874 572.547 568.874 572.431V559.33C568.874 559.287 568.862 559.244 568.839 559.207C568.815 559.171 568.782 559.142 568.742 559.123C568.702 559.105 568.658 559.099 568.615 559.105C568.572 559.111 568.532 559.13 568.499 559.158L565.709 561.581C565.568 561.704 565.456 561.856 565.379 562.028C565.302 562.199 565.263 562.385 565.263 562.574V572.454C565.263 572.566 565.218 572.674 565.139 572.753C565.06 572.832 564.953 572.876 564.841 572.876H554.546C554.473 572.877 554.401 572.892 554.336 572.922C554.271 572.952 554.215 572.995 554.171 573.048L551.396 576.378C551.39 576.385 551.386 576.394 551.385 576.403C551.383 576.413 551.385 576.422 551.389 576.431C551.393 576.439 551.4 576.446 551.408 576.451C551.416 576.455 551.426 576.457 551.435 576.457H564.825C564.883 576.457 564.94 576.468 564.993 576.49C565.046 576.512 565.094 576.544 565.135 576.585C565.175 576.625 565.208 576.674 565.23 576.727C565.252 576.78 565.263 576.837 565.263 576.894V594.677C565.263 594.797 565.215 594.913 565.13 594.998C565.045 595.083 564.93 595.131 564.81 595.131H547.902C547.832 595.131 547.764 595.103 547.714 595.055C547.664 595.007 547.636 594.941 547.636 594.873V581.741C547.635 581.696 547.62 581.653 547.594 581.618C547.567 581.583 547.53 581.557 547.487 581.544C547.445 581.531 547.399 581.532 547.357 581.546C547.315 581.56 547.279 581.587 547.253 581.623L544.33 586.118C544.126 586.429 544.017 586.793 544.017 587.165V594.13C544.017 594.254 543.968 594.374 543.88 594.462C543.792 594.55 543.673 594.599 543.548 594.599H539.523C539.472 594.599 539.422 594.615 539.381 594.642C539.339 594.67 539.307 594.71 539.288 594.755L537.881 598.038C537.872 598.062 537.869 598.088 537.871 598.114C537.874 598.139 537.883 598.164 537.897 598.184C537.911 598.205 537.929 598.222 537.951 598.234C537.973 598.245 537.997 598.25 538.022 598.249H543.572C543.69 598.249 543.803 598.296 543.887 598.38C543.97 598.463 544.017 598.577 544.017 598.695V615.415C544.017 615.533 543.97 615.646 543.887 615.73C543.803 615.813 543.69 615.86 543.572 615.86H531.487C531.319 615.861 531.157 615.923 531.031 616.033C530.906 616.144 530.826 616.297 530.807 616.462L530.502 618.87C530.492 618.941 530.498 619.014 530.519 619.084C530.54 619.153 530.575 619.217 530.623 619.272C530.672 619.327 530.731 619.371 530.798 619.401C530.864 619.432 530.937 619.448 531.01 619.448H543.032C543.094 619.448 543.155 619.461 543.212 619.484C543.269 619.508 543.32 619.544 543.364 619.588C543.408 619.632 543.442 619.685 543.466 619.743C543.489 619.8 543.501 619.862 543.501 619.925V636.606C543.501 636.666 543.489 636.726 543.466 636.782C543.443 636.838 543.409 636.889 543.366 636.932C543.323 636.975 543.273 637.009 543.217 637.032C543.161 637.055 543.101 637.067 543.04 637.067H529.846C529.757 637.067 529.671 637.102 529.608 637.165C529.545 637.228 529.51 637.314 529.51 637.403V640.35C529.51 640.445 529.547 640.537 529.615 640.604C529.682 640.672 529.774 640.71 529.869 640.71H543.048C543.168 640.71 543.284 640.757 543.369 640.842C543.454 640.927 543.501 641.043 543.501 641.163V657.891C543.501 658.009 543.455 658.122 543.373 658.206C543.291 658.289 543.18 658.336 543.064 658.336H533.965C533.933 658.336 533.901 658.344 533.872 658.359C533.843 658.375 533.819 658.397 533.801 658.424C533.783 658.451 533.772 658.483 533.77 658.515C533.767 658.547 533.772 658.58 533.785 658.61L535.067 661.643C535.102 661.724 535.161 661.793 535.236 661.842C535.311 661.89 535.399 661.916 535.489 661.916H543.58C543.696 661.916 543.807 661.962 543.889 662.044C543.971 662.126 544.017 662.238 544.017 662.354V674.798C544.018 675.267 544.187 675.722 544.494 676.08L547.206 679.191C547.24 679.23 547.285 679.259 547.335 679.272C547.385 679.286 547.438 679.284 547.486 679.266C547.534 679.249 547.575 679.218 547.603 679.176C547.632 679.135 547.646 679.085 547.644 679.035Z"
     fill="#007649"
     id="path7" />
  <path
     d="M360.372 553.171H343.301C343.154 553.171 343.035 553.29 343.035 553.436V571.555C343.035 571.702 343.154 571.821 343.301 571.821H360.372C360.519 571.821 360.638 571.702 360.638 571.555V553.436C360.638 553.29 360.519 553.171 360.372 553.171Z"
     fill="#007649"
     id="path8" />
  <path
     d="M382.181 553.171H364.984C364.868 553.171 364.773 553.265 364.773 553.382V571.61C364.773 571.727 364.868 571.821 364.984 571.821H382.181C382.298 571.821 382.392 571.727 382.392 571.61V553.382C382.392 553.265 382.298 553.171 382.181 553.171Z"
     fill="#007649"
     id="path9" />
  <path
     d="M403.364 553.171H386.293C386.146 553.171 386.027 553.29 386.027 553.436V571.555C386.027 571.702 386.146 571.821 386.293 571.821H403.364C403.511 571.821 403.63 571.702 403.63 571.555V553.436C403.63 553.29 403.511 553.171 403.364 553.171Z"
     fill="#007649"
     id="path10" />
  <path
     d="M606.941 553.171H589.87C589.719 553.171 589.596 553.293 589.596 553.444V571.548C589.596 571.699 589.719 571.821 589.87 571.821H606.941C607.093 571.821 607.215 571.699 607.215 571.548V553.444C607.215 553.293 607.093 553.171 606.941 553.171Z"
     fill="#007649"
     id="path11" />
  <path
     d="M628.695 553.694H611.655C611.499 553.694 611.373 553.82 611.373 553.976V572.064C611.373 572.219 611.499 572.345 611.655 572.345H628.695C628.851 572.345 628.977 572.219 628.977 572.064V553.976C628.977 553.82 628.851 553.694 628.695 553.694Z"
     fill="#007649"
     id="path12" />
  <path
     d="M650.449 553.694H633.393C633.238 553.694 633.112 553.82 633.112 553.976V572.064C633.112 572.219 633.238 572.345 633.393 572.345H650.449C650.604 572.345 650.73 572.219 650.73 572.064V553.976C650.73 553.82 650.604 553.694 650.449 553.694Z"
     fill="#007649"
     id="path13" />
  <path
     d="M868.034 562.003C868.069 561.991 868.106 561.986 868.143 561.988C868.18 561.99 868.216 561.999 868.249 562.015C868.283 562.031 868.313 562.053 868.337 562.081C868.362 562.108 868.381 562.141 868.393 562.175L871.989 572.447C872.452 573.766 872.683 575.153 872.669 576.527C872.656 577.901 872.398 579.235 871.91 580.454C871.422 581.673 870.714 582.752 869.826 583.63C868.939 584.508 867.889 585.167 866.736 585.571L866.205 585.758C863.878 586.572 861.276 586.293 858.972 584.984C856.668 583.675 854.849 581.443 853.917 578.778L850.321 568.507C850.309 568.472 850.303 568.435 850.305 568.398C850.307 568.361 850.317 568.325 850.333 568.291C850.348 568.258 850.371 568.228 850.398 568.203C850.426 568.179 850.458 568.16 850.493 568.147L868.034 562.003Z"
     fill="#593987"
     id="path14" />
  <path
     d="M339.111 575.425H321.555C321.395 575.425 321.266 575.554 321.266 575.714V593.786C321.266 593.946 321.395 594.075 321.555 594.075H339.111C339.271 594.075 339.4 593.946 339.4 593.786V575.714C339.4 575.554 339.271 575.425 339.111 575.425Z"
     fill="#007649"
     id="path15" />
  <path
     d="M360.365 575.425H343.309C343.158 575.425 343.035 575.547 343.035 575.698V593.802C343.035 593.953 343.158 594.075 343.309 594.075H360.365C360.516 594.075 360.638 593.953 360.638 593.802V575.698C360.638 575.547 360.516 575.425 360.365 575.425Z"
     fill="#007649"
     id="path16" />
  <path
     d="M382.126 575.425H365.039C364.892 575.425 364.773 575.544 364.773 575.69V593.809C364.773 593.956 364.892 594.075 365.039 594.075H382.126C382.273 594.075 382.392 593.956 382.392 593.809V575.69C382.392 575.544 382.273 575.425 382.126 575.425Z"
     fill="#007649"
     id="path17" />
  <path
     d="M403.325 575.425H386.332C386.163 575.425 386.027 575.561 386.027 575.73V593.77C386.027 593.939 386.163 594.075 386.332 594.075H403.325C403.493 594.075 403.63 593.939 403.63 593.77V575.73C403.63 575.561 403.493 575.425 403.325 575.425Z"
     fill="#007649"
     id="path18" />
  <path
     d="M425.118 575.425H408.046C407.895 575.425 407.773 575.547 407.773 575.698V593.802C407.773 593.953 407.895 594.075 408.046 594.075H425.118C425.269 594.075 425.392 593.953 425.392 593.802V575.698C425.392 575.547 425.269 575.425 425.118 575.425Z"
     fill="#007649"
     id="path19" />
  <path
     d="M585.688 575.933H568.663C568.499 575.933 568.366 576.066 568.366 576.23V594.302C568.366 594.466 568.499 594.599 568.663 594.599H585.688C585.852 594.599 585.985 594.466 585.985 594.302V576.23C585.985 576.066 585.852 575.933 585.688 575.933Z"
     fill="#007649"
     id="path20" />
  <path
     d="M606.91 575.933H589.901C589.733 575.933 589.596 576.069 589.596 576.238V594.294C589.596 594.463 589.733 594.599 589.901 594.599H606.91C607.079 594.599 607.215 594.463 607.215 594.294V576.238C607.215 576.069 607.079 575.933 606.91 575.933Z"
     fill="#007649"
     id="path21" />
  <path
     d="M628.68 575.933H611.655C611.495 575.933 611.366 576.062 611.366 576.222V594.31C611.366 594.47 611.495 594.599 611.655 594.599H628.68C628.839 594.599 628.969 594.47 628.969 594.31V576.222C628.969 576.062 628.839 575.933 628.68 575.933Z"
     fill="#007649"
     id="path22" />
  <path
     d="M649.917 575.933H632.893C632.729 575.933 632.596 576.066 632.596 576.23V594.302C632.596 594.466 632.729 594.599 632.893 594.599H649.917C650.082 594.599 650.215 594.466 650.215 594.302V576.23C650.215 576.066 650.082 575.933 649.917 575.933Z"
     fill="#007649"
     id="path23" />
  <path
     d="M672.211 575.933H654.639C654.483 575.933 654.357 576.059 654.357 576.214V594.318C654.357 594.473 654.483 594.599 654.639 594.599H672.211C672.366 594.599 672.492 594.473 672.492 594.318V576.214C672.492 576.059 672.366 575.933 672.211 575.933Z"
     fill="#007649"
     id="path24" />
  <path
     d="M339.103 598.249H321.563C321.399 598.249 321.266 598.382 321.266 598.546V615.571C321.266 615.735 321.399 615.868 321.563 615.868H339.103C339.267 615.868 339.4 615.735 339.4 615.571V598.546C339.4 598.382 339.267 598.249 339.103 598.249Z"
     fill="#007649"
     id="path25" />
  <path
     d="M360.365 598.249H343.309C343.153 598.249 343.027 598.375 343.027 598.531V615.587C343.027 615.742 343.153 615.868 343.309 615.868H360.365C360.52 615.868 360.646 615.742 360.646 615.587V598.531C360.646 598.375 360.52 598.249 360.365 598.249Z"
     fill="#007649"
     id="path26" />
  <path
     d="M381.571 598.257H364.562C364.398 598.257 364.265 598.39 364.265 598.554V615.563C364.265 615.727 364.398 615.86 364.562 615.86H381.571C381.735 615.86 381.868 615.727 381.868 615.563V598.554C381.868 598.39 381.735 598.257 381.571 598.257Z"
     fill="#007649"
     id="path27" />
  <path
     d="M403.325 598.257H386.332C386.163 598.257 386.027 598.394 386.027 598.562V615.555C386.027 615.724 386.163 615.86 386.332 615.86H403.325C403.493 615.86 403.63 615.724 403.63 615.555V598.562C403.63 598.394 403.493 598.257 403.325 598.257Z"
     fill="#007649"
     id="path28" />
  <path
     d="M425.11 598.249H408.054C407.899 598.249 407.773 598.375 407.773 598.531V615.587C407.773 615.742 407.899 615.868 408.054 615.868H425.11C425.266 615.868 425.392 615.742 425.392 615.587V598.531C425.392 598.375 425.266 598.249 425.11 598.249Z"
     fill="#007649"
     id="path29" />
  <path
     d="M446.356 598.249H429.284C429.133 598.249 429.011 598.372 429.011 598.523V615.595C429.011 615.746 429.133 615.868 429.284 615.868H446.356C446.507 615.868 446.629 615.746 446.629 615.595V598.523C446.629 598.372 446.507 598.249 446.356 598.249Z"
     fill="#007649"
     id="path30" />
  <path
     d="M564.481 598.249H547.378C547.236 598.249 547.12 598.365 547.12 598.507V616.11C547.12 616.253 547.236 616.368 547.378 616.368H564.481C564.624 616.368 564.739 616.253 564.739 616.11V598.507C564.739 598.365 564.624 598.249 564.481 598.249Z"
     fill="#007649"
     id="path31" />
  <path
     d="M585.719 598.249H568.632C568.485 598.249 568.366 598.368 568.366 598.515V616.103C568.366 616.249 568.485 616.368 568.632 616.368H585.719C585.866 616.368 585.985 616.249 585.985 616.103V598.515C585.985 598.368 585.866 598.249 585.719 598.249Z"
     fill="#007649"
     id="path32" />
  <path
     d="M672.226 598.249H654.623C654.481 598.249 654.365 598.365 654.365 598.507V616.11C654.365 616.253 654.481 616.368 654.623 616.368H672.226C672.369 616.368 672.484 616.253 672.484 616.11V598.507C672.484 598.365 672.369 598.249 672.226 598.249Z"
     fill="#007649"
     id="path33" />
  <path
     d="M607.442 598.757H590.401C590.242 598.757 590.112 598.887 590.112 599.047V616.087C590.112 616.247 590.242 616.376 590.401 616.376H607.442C607.601 616.376 607.731 616.247 607.731 616.087V599.047C607.731 598.887 607.601 598.757 607.442 598.757Z"
     fill="#007649"
     id="path34" />
  <path
     d="M628.664 598.765H611.671C611.502 598.765 611.366 598.902 611.366 599.07V616.064C611.366 616.232 611.502 616.368 611.671 616.368H628.664C628.832 616.368 628.969 616.232 628.969 616.064V599.07C628.969 598.902 628.832 598.765 628.664 598.765Z"
     fill="#007649"
     id="path35" />
  <path
     d="M650.426 598.757H633.416C633.248 598.757 633.112 598.894 633.112 599.062V616.071C633.112 616.24 633.248 616.376 633.416 616.376H650.426C650.594 616.376 650.73 616.24 650.73 616.071V599.062C650.73 598.894 650.594 598.757 650.426 598.757Z"
     fill="#007649"
     id="path36" />
  <path
     d="M339.096 619.448H321.571C321.402 619.448 321.266 619.585 321.266 619.753V636.762C321.266 636.93 321.402 637.067 321.571 637.067H339.096C339.264 637.067 339.4 636.93 339.4 636.762V619.753C339.4 619.585 339.264 619.448 339.096 619.448Z"
     fill="#007649"
     id="path37" />
  <path
     d="M360.365 619.448H343.309C343.153 619.448 343.027 619.574 343.027 619.73V636.786C343.027 636.941 343.153 637.067 343.309 637.067H360.365C360.52 637.067 360.646 636.941 360.646 636.786V619.73C360.646 619.574 360.52 619.448 360.365 619.448Z"
     fill="#007649"
     id="path38" />
  <path
     d="M381.571 619.448H364.562C364.394 619.448 364.257 619.585 364.257 619.753V636.762C364.257 636.93 364.394 637.067 364.562 637.067H381.571C381.74 637.067 381.876 636.93 381.876 636.762V619.753C381.876 619.585 381.74 619.448 381.571 619.448Z"
     fill="#007649"
     id="path39" />
  <path
     d="M403.333 619.456H386.324C386.16 619.456 386.027 619.589 386.027 619.753V636.762C386.027 636.926 386.16 637.059 386.324 637.059H403.333C403.497 637.059 403.63 636.926 403.63 636.762V619.753C403.63 619.589 403.497 619.456 403.333 619.456Z"
     fill="#007649"
     id="path40" />
  <path
     d="M424.571 619.448H407.546C407.382 619.448 407.249 619.581 407.249 619.745V636.77C407.249 636.934 407.382 637.067 407.546 637.067H424.571C424.735 637.067 424.868 636.934 424.868 636.77V619.745C424.868 619.581 424.735 619.448 424.571 619.448Z"
     fill="#007649"
     id="path41" />
  <path
     d="M446.348 619.448H429.308C429.148 619.448 429.018 619.578 429.018 619.737V636.778C429.018 636.937 429.148 637.067 429.308 637.067H446.348C446.508 637.067 446.637 636.937 446.637 636.778V619.737C446.637 619.578 446.508 619.448 446.348 619.448Z"
     fill="#007649"
     id="path42" />
  <path
     d="M564.434 619.98H547.425C547.257 619.98 547.12 620.116 547.12 620.285V637.294C547.12 637.462 547.257 637.598 547.425 637.598H564.434C564.603 637.598 564.739 637.462 564.739 637.294V620.285C564.739 620.116 564.603 619.98 564.434 619.98Z"
     fill="#007649"
     id="path43" />
  <path
     d="M585.711 619.98H568.64C568.489 619.98 568.366 620.102 568.366 620.253V637.325C568.366 637.476 568.489 637.598 568.64 637.598H585.711C585.862 637.598 585.985 637.476 585.985 637.325V620.253C585.985 620.102 585.862 619.98 585.711 619.98Z"
     fill="#007649"
     id="path44" />
  <path
     d="M607.426 619.98H590.433C590.26 619.98 590.12 620.12 590.12 620.292V637.286C590.12 637.459 590.26 637.598 590.433 637.598H607.426C607.599 637.598 607.739 637.459 607.739 637.286V620.292C607.739 620.12 607.599 619.98 607.426 619.98Z"
     fill="#007649"
     id="path45" />
  <path
     d="M628.703 619.98H611.647C611.492 619.98 611.366 620.106 611.366 620.261V637.317C611.366 637.473 611.492 637.598 611.647 637.598H628.703C628.858 637.598 628.984 637.473 628.984 637.317V620.261C628.984 620.106 628.858 619.98 628.703 619.98Z"
     fill="#007649"
     id="path46" />
  <path
     d="M650.426 619.98H633.416C633.248 619.98 633.112 620.116 633.112 620.285V637.294C633.112 637.462 633.248 637.598 633.416 637.598H650.426C650.594 637.598 650.73 637.462 650.73 637.294V620.285C650.73 620.116 650.594 619.98 650.426 619.98Z"
     fill="#007649"
     id="path47" />
  <path
     d="M672.242 619.988H654.607C654.469 619.988 654.357 620.1 654.357 620.238V637.341C654.357 637.479 654.469 637.591 654.607 637.591H672.242C672.38 637.591 672.492 637.479 672.492 637.341V620.238C672.492 620.1 672.38 619.988 672.242 619.988Z"
     fill="#007649"
     id="path48" />
  <path
     d="M360.372 641.241H343.301C343.15 641.241 343.027 641.364 343.027 641.515V658.586C343.027 658.737 343.15 658.86 343.301 658.86H360.372C360.524 658.86 360.646 658.737 360.646 658.586V641.515C360.646 641.364 360.524 641.241 360.372 641.241Z"
     fill="#007649"
     id="path49" />
  <path
     d="M381.579 641.241H364.554C364.39 641.241 364.257 641.374 364.257 641.538V658.563C364.257 658.727 364.39 658.86 364.554 658.86H381.579C381.743 658.86 381.876 658.727 381.876 658.563V641.538C381.876 641.374 381.743 641.241 381.579 641.241Z"
     fill="#007649"
     id="path50" />
  <path
     d="M403.349 641.249H386.308C386.153 641.249 386.027 641.375 386.027 641.53V658.571C386.027 658.726 386.153 658.852 386.308 658.852H403.349C403.504 658.852 403.63 658.726 403.63 658.571V641.53C403.63 641.375 403.504 641.249 403.349 641.249Z"
     fill="#007649"
     id="path51" />
  <path
     d="M425.11 641.241H408.054C407.899 641.241 407.773 641.367 407.773 641.522V658.578C407.773 658.734 407.899 658.86 408.054 658.86H425.11C425.266 658.86 425.392 658.734 425.392 658.578V641.522C425.392 641.367 425.266 641.241 425.11 641.241Z"
     fill="#007649"
     id="path52" />
  <path
     d="M446.364 641.241H429.276C429.13 641.241 429.011 641.36 429.011 641.507V658.594C429.011 658.741 429.13 658.86 429.276 658.86H446.364C446.51 658.86 446.629 658.741 446.629 658.594V641.507C446.629 641.36 446.51 641.241 446.364 641.241Z"
     fill="#007649"
     id="path53" />
  <path
     d="M564.458 641.241H547.402C547.246 641.241 547.12 641.367 547.12 641.522V658.578C547.12 658.734 547.246 658.86 547.402 658.86H564.458C564.613 658.86 564.739 658.734 564.739 658.578V641.522C564.739 641.367 564.613 641.241 564.458 641.241Z"
     fill="#007649"
     id="path54" />
  <path
     d="M585.696 641.241H568.655C568.496 641.241 568.366 641.371 568.366 641.53V658.571C568.366 658.73 568.496 658.86 568.655 658.86H585.696C585.855 658.86 585.985 658.73 585.985 658.571V641.53C585.985 641.371 585.855 641.241 585.696 641.241Z"
     fill="#007649"
     id="path55" />
  <path
     d="M606.91 641.241H589.901C589.733 641.241 589.596 641.378 589.596 641.546V658.555C589.596 658.723 589.733 658.86 589.901 658.86H606.91C607.079 658.86 607.215 658.723 607.215 658.555V641.546C607.215 641.378 607.079 641.241 606.91 641.241Z"
     fill="#007649"
     id="path56" />
  <path
     d="M628.695 641.241H611.655C611.495 641.241 611.366 641.371 611.366 641.53V658.571C611.366 658.73 611.495 658.86 611.655 658.86H628.695C628.855 658.86 628.984 658.73 628.984 658.571V641.53C628.984 641.371 628.855 641.241 628.695 641.241Z"
     fill="#007649"
     id="path57" />
  <path
     d="M650.433 641.241H633.409C633.245 641.241 633.112 641.374 633.112 641.538V658.563C633.112 658.727 633.245 658.86 633.409 658.86H650.433C650.597 658.86 650.73 658.727 650.73 658.563V641.538C650.73 641.374 650.597 641.241 650.433 641.241Z"
     fill="#007649"
     id="path58" />
  <path
     d="M381.563 662.44H364.57C364.397 662.44 364.257 662.58 364.257 662.752V679.746C364.257 679.919 364.397 680.059 364.57 680.059H381.563C381.736 680.059 381.876 679.919 381.876 679.746V662.752C381.876 662.58 381.736 662.44 381.563 662.44Z"
     fill="#007649"
     id="path59" />
  <path
     d="M403.325 662.448H386.332C386.163 662.448 386.027 662.584 386.027 662.753V679.746C386.027 679.914 386.163 680.051 386.332 680.051H403.325C403.493 680.051 403.63 679.914 403.63 679.746V662.753C403.63 662.584 403.493 662.448 403.325 662.448Z"
     fill="#007649"
     id="path60" />
  <path
     d="M425.087 662.44H408.078C407.909 662.44 407.773 662.576 407.773 662.745V679.754C407.773 679.922 407.909 680.059 408.078 680.059H425.087C425.255 680.059 425.392 679.922 425.392 679.754V662.745C425.392 662.576 425.255 662.44 425.087 662.44Z"
     fill="#007649"
     id="path61" />
  <path
     d="M445.238 662.979H428.323C428.133 662.979 427.979 663.133 427.979 663.323V680.238C427.979 680.428 428.133 680.582 428.323 680.582H445.238C445.428 680.582 445.582 680.428 445.582 680.238V663.323C445.582 663.133 445.428 662.979 445.238 662.979Z"
     fill="#007649"
     id="path62" />
  <path
     d="M585.711 662.971H568.64C568.489 662.971 568.366 663.094 568.366 663.245V680.317C568.366 680.468 568.489 680.59 568.64 680.59H585.711C585.862 680.59 585.985 680.468 585.985 680.317V663.245C585.985 663.094 585.862 662.971 585.711 662.971Z"
     fill="#007649"
     id="path63" />
  <path
     d="M606.941 662.971H589.87C589.719 662.971 589.596 663.094 589.596 663.245V680.317C589.596 680.468 589.719 680.59 589.87 680.59H606.941C607.093 680.59 607.215 680.468 607.215 680.317V663.245C607.215 663.094 607.093 662.971 606.941 662.971Z"
     fill="#007649"
     id="path64" />
  <path
     d="M628.695 662.971H611.639C611.484 662.971 611.358 663.097 611.358 663.253V680.309C611.358 680.464 611.484 680.59 611.639 680.59H628.695C628.851 680.59 628.977 680.464 628.977 680.309V663.253C628.977 663.097 628.851 662.971 628.695 662.971Z"
     fill="#007649"
     id="path65" />
  <path
     d="M718.051 1006.92C711.379 998.442 699.362 996.77 691.21 1003.19C683.057 1009.6 681.857 1021.67 688.529 1030.15C695.2 1038.63 707.217 1040.3 715.37 1033.89C723.522 1027.47 724.722 1015.4 718.051 1006.92Z"
     fill="#593987"
     id="path66" />
  <path
     d="M615.915 1041.16C615.895 1041.1 615.897 1041.04 615.922 1040.99C615.947 1040.93 615.992 1040.89 616.048 1040.87L625.608 1037.46C627.959 1036.62 630.447 1036.24 632.928 1036.34C635.41 1036.43 637.838 1037 640.072 1038.01C642.306 1039.03 644.304 1040.46 645.95 1042.24C647.596 1044.02 648.86 1046.1 649.667 1048.37L649.878 1048.96C650.687 1051.23 651.025 1053.64 650.872 1056.06C650.719 1058.48 650.079 1060.85 648.988 1063.05C647.897 1065.25 646.377 1067.22 644.514 1068.86C642.651 1070.51 640.481 1071.78 638.13 1072.62L628.57 1076.02C628.514 1076.04 628.452 1076.04 628.398 1076.01C628.344 1075.99 628.302 1075.94 628.281 1075.89L615.915 1041.16Z"
     fill="#593987"
     id="path67" />
  <path
     d="M426.283 1053.9C426.29 1053.86 426.314 1053.82 426.349 1053.79C426.384 1053.77 426.428 1053.76 426.47 1053.77L439.68 1056.24C441.816 1056.64 443.738 1057.69 445.026 1059.16C446.313 1060.63 446.859 1062.4 446.543 1064.08L446.465 1064.51C446.309 1065.34 445.947 1066.12 445.398 1066.81C444.85 1067.51 444.126 1068.09 443.268 1068.54C442.41 1068.99 441.435 1069.29 440.398 1069.42C439.361 1069.56 438.283 1069.53 437.226 1069.33L424.024 1066.86C424.002 1066.85 423.981 1066.85 423.963 1066.83C423.944 1066.82 423.928 1066.81 423.916 1066.79C423.903 1066.77 423.895 1066.75 423.89 1066.73C423.886 1066.71 423.886 1066.68 423.891 1066.66L426.283 1053.9Z"
     fill="#593987"
     id="path68" />
  <path
     d="M421.155 1077.83C421.166 1077.77 421.2 1077.72 421.248 1077.68C421.296 1077.65 421.355 1077.64 421.413 1077.65L438.727 1080.85C440.987 1081.27 443.035 1082.32 444.42 1083.76C445.805 1085.2 446.414 1086.92 446.114 1088.53L445.902 1089.71C445.601 1091.32 444.415 1092.71 442.604 1093.56C440.794 1094.4 438.508 1094.64 436.249 1094.22L418.935 1091.02C418.906 1091.01 418.878 1091 418.853 1090.99C418.828 1090.97 418.807 1090.95 418.79 1090.92C418.773 1090.9 418.762 1090.87 418.756 1090.84C418.75 1090.81 418.749 1090.78 418.755 1090.75L421.155 1077.83Z"
     fill="#593987"
     id="path69" />
</svg>
